<?xml version="1.0" encoding="utf-8"?>
<!-- Generator: Adobe Illustrator 26.1.0, SVG Export Plug-In . SVG Version: 6.00 Build 0)  -->
<svg version="1.1" id="OBJECTS" xmlns="http://www.w3.org/2000/svg" xmlns:xlink="http://www.w3.org/1999/xlink" x="0px" y="0px"
	 viewBox="0 0 841.9 595.3" style="enable-background:new 0 0 841.9 595.3;" xml:space="preserve">
<style type="text/css">
	.st0{fill:#8F89AD;}
	.st1{fill:url(#SVGID_1_);}
	.st2{fill:url(#SVGID_00000061448623211533331740000006631573538692134035_);}
	.st3{fill:url(#SVGID_00000003080696257941385000000009359760238150017436_);}
	
		.st4{fill:none;stroke:url(#SVGID_00000141444683467299822320000003190174490984492420_);stroke-width:4;stroke-linecap:round;stroke-linejoin:round;stroke-miterlimit:10;}
	
		.st5{fill:none;stroke:url(#SVGID_00000155113556855297470160000017185959232491930241_);stroke-width:4;stroke-linecap:round;stroke-linejoin:round;stroke-miterlimit:10;}
	
		.st6{fill:none;stroke:url(#SVGID_00000147222454081013893200000008561764741482569662_);stroke-width:4;stroke-linecap:round;stroke-linejoin:round;stroke-miterlimit:10;}
	
		.st7{fill:none;stroke:url(#SVGID_00000103252017569544681220000012666485944607996587_);stroke-width:4;stroke-linecap:round;stroke-linejoin:round;stroke-miterlimit:10;}
	
		.st8{fill:none;stroke:url(#SVGID_00000101804922468312308460000016848101014679974273_);stroke-width:4;stroke-linecap:round;stroke-linejoin:round;stroke-miterlimit:10;}
	.st9{fill:none;stroke:#4D4D4D;stroke-width:0.5;stroke-miterlimit:10;}
	.st10{fill:url(#SVGID_00000070803542296308219850000014740050277662916502_);}
	.st11{fill:#606060;}
	.st12{fill:url(#SVGID_00000026850711020942168430000003406147610682376851_);}
	.st13{fill:url(#SVGID_00000181780080916840081350000016240015986109421721_);}
	.st14{fill:url(#SVGID_00000147912214341859002660000017027397710477370762_);}
	.st15{fill-rule:evenodd;clip-rule:evenodd;fill:#8F89AD;}
</style>
<g>
	<g>
		<g>
			<path class="st0" d="M70.2,375.2h6.2c1.4,0,2.7,0.3,3.8,0.8s2,1.3,2.6,2.3c0.6,1,0.9,2.2,0.9,3.5c0,1.3-0.3,2.5-0.9,3.5
				c-0.6,1-1.5,1.8-2.6,2.3s-2.4,0.8-3.8,0.8h-6.2V375.2z M76.3,385.4c1.1,0,2-0.3,2.7-1c0.7-0.6,1-1.5,1-2.7c0-1.1-0.3-2-1-2.7
				c-0.7-0.6-1.6-1-2.7-1H74v7.2H76.3z"/>
			<path class="st0" d="M93.8,379.1c0.9,0.8,1.3,2,1.3,3.6v5.7h-3.3V387c-0.5,1-1.5,1.5-3,1.5c-0.8,0-1.5-0.1-2.1-0.4
				c-0.6-0.3-1-0.7-1.3-1.1c-0.3-0.5-0.4-1-0.4-1.6c0-1,0.4-1.7,1.1-2.3c0.7-0.5,1.9-0.8,3.4-0.8h2c-0.1-1.1-0.8-1.6-2.2-1.6
				c-0.5,0-1,0.1-1.5,0.2c-0.5,0.2-0.9,0.4-1.3,0.7l-1.2-2.4c0.6-0.4,1.3-0.7,2.1-0.9c0.8-0.2,1.6-0.3,2.4-0.3
				C91.7,378,93,378.4,93.8,379.1z M90.9,386c0.3-0.2,0.5-0.5,0.7-0.9v-0.9h-1.5c-1,0-1.6,0.3-1.6,1c0,0.3,0.1,0.6,0.4,0.8
				c0.2,0.2,0.6,0.3,1,0.3C90.2,386.3,90.6,386.2,90.9,386z"/>
			<path class="st0" d="M104.5,387.9c-0.3,0.2-0.7,0.3-1.1,0.4c-0.4,0.1-0.9,0.2-1.4,0.2c-1.3,0-2.4-0.3-3.1-1
				c-0.7-0.7-1.1-1.6-1.1-2.9v-3.4h-1.5v-2.7h1.5v-2.7h3.6v2.7h2.3v2.7h-2.3v3.4c0,0.4,0.1,0.7,0.3,0.9c0.2,0.2,0.5,0.3,0.8,0.3
				c0.4,0,0.8-0.1,1.1-0.3L104.5,387.9z"/>
			<path class="st0" d="M114.1,379.1c0.9,0.8,1.3,2,1.3,3.6v5.7h-3.3V387c-0.5,1-1.5,1.5-3,1.5c-0.8,0-1.5-0.1-2.1-0.4
				c-0.6-0.3-1-0.7-1.3-1.1c-0.3-0.5-0.4-1-0.4-1.6c0-1,0.4-1.7,1.1-2.3c0.7-0.5,1.9-0.8,3.4-0.8h2c-0.1-1.1-0.8-1.6-2.2-1.6
				c-0.5,0-1,0.1-1.5,0.2c-0.5,0.2-0.9,0.4-1.3,0.7l-1.2-2.4c0.6-0.4,1.3-0.7,2.1-0.9c0.8-0.2,1.6-0.3,2.4-0.3
				C111.9,378,113.2,378.4,114.1,379.1z M111.2,386c0.3-0.2,0.5-0.5,0.7-0.9v-0.9h-1.5c-1,0-1.6,0.3-1.6,1c0,0.3,0.1,0.6,0.4,0.8
				c0.2,0.2,0.6,0.3,1,0.3C110.5,386.3,110.9,386.2,111.2,386z"/>
			<path class="st0" d="M46.1,410.3c-1.1-0.6-2-1.4-2.6-2.4c-0.6-1-0.9-2.2-0.9-3.5c0-1.3,0.3-2.5,0.9-3.5c0.6-1,1.5-1.9,2.6-2.4
				c1.1-0.6,2.3-0.9,3.7-0.9c1.2,0,2.3,0.2,3.3,0.6c1,0.4,1.8,1,2.4,1.8l-2.4,2.1c-0.9-1-1.9-1.5-3.1-1.5c-0.7,0-1.4,0.2-1.9,0.5
				c-0.6,0.3-1,0.8-1.3,1.3c-0.3,0.6-0.5,1.2-0.5,2s0.2,1.4,0.5,2c0.3,0.6,0.7,1,1.3,1.3c0.6,0.3,1.2,0.5,1.9,0.5
				c1.2,0,2.3-0.5,3.1-1.5l2.4,2.1c-0.6,0.8-1.4,1.4-2.4,1.8s-2.1,0.6-3.3,0.6C48.5,411.2,47.2,410.9,46.1,410.3z"/>
			<path class="st0" d="M58.9,410.4c-0.9-0.5-1.6-1.1-2.1-1.9c-0.5-0.8-0.7-1.7-0.7-2.7c0-1,0.2-1.9,0.7-2.7
				c0.5-0.8,1.2-1.4,2.1-1.9c0.9-0.4,1.9-0.7,3-0.7c1.1,0,2.1,0.2,3,0.7c0.9,0.4,1.6,1.1,2.1,1.9c0.5,0.8,0.7,1.7,0.7,2.7
				c0,1-0.2,1.9-0.7,2.7c-0.5,0.8-1.2,1.4-2.1,1.9c-0.9,0.5-1.9,0.7-3,0.7C60.7,411.1,59.7,410.9,58.9,410.4z M63.4,407.6
				c0.4-0.4,0.6-1,0.6-1.8c0-0.8-0.2-1.3-0.6-1.8c-0.4-0.4-0.9-0.6-1.5-0.6c-0.6,0-1.1,0.2-1.5,0.6c-0.4,0.4-0.6,1-0.6,1.8
				c0,0.8,0.2,1.4,0.6,1.8c0.4,0.4,0.9,0.7,1.5,0.7C62.4,408.3,63,408.1,63.4,407.6z"/>
			<path class="st0" d="M69.2,397h3.6v14h-3.6V397z"/>
			<path class="st0" d="M75.1,397h3.6v14h-3.6V397z"/>
			<path class="st0" d="M91.4,406.8H84c0.2,0.5,0.4,0.9,0.9,1.2c0.4,0.3,1,0.4,1.6,0.4c0.5,0,0.9-0.1,1.3-0.2
				c0.4-0.1,0.7-0.4,1.1-0.7l1.9,2c-1,1.1-2.4,1.7-4.4,1.7c-1.2,0-2.2-0.2-3.1-0.7c-0.9-0.5-1.6-1.1-2.1-1.9
				c-0.5-0.8-0.7-1.7-0.7-2.7c0-1,0.2-1.9,0.7-2.7c0.5-0.8,1.2-1.4,2-1.9c0.9-0.5,1.8-0.7,2.9-0.7c1,0,1.9,0.2,2.8,0.6
				c0.8,0.4,1.5,1,2,1.8c0.5,0.8,0.7,1.7,0.7,2.8C91.5,405.9,91.5,406.2,91.4,406.8z M84.6,403.6c-0.4,0.3-0.6,0.7-0.7,1.3h4.2
				c-0.1-0.5-0.3-1-0.7-1.3c-0.4-0.3-0.8-0.5-1.4-0.5S85,403.3,84.6,403.6z"/>
			<path class="st0" d="M95.3,410.4c-0.9-0.5-1.6-1.1-2.1-1.9c-0.5-0.8-0.7-1.7-0.7-2.7c0-1,0.2-1.9,0.7-2.7
				c0.5-0.8,1.2-1.4,2.1-1.9c0.9-0.4,1.9-0.7,3-0.7c1.2,0,2.2,0.2,3,0.7c0.8,0.5,1.4,1.2,1.8,2.1l-2.8,1.4c-0.5-0.9-1.1-1.4-2-1.4
				c-0.6,0-1.2,0.2-1.6,0.6s-0.6,1-0.6,1.8c0,0.8,0.2,1.4,0.6,1.8s1,0.7,1.6,0.7c0.9,0,1.6-0.5,2-1.4l2.8,1.4
				c-0.4,0.9-0.9,1.6-1.8,2.1c-0.8,0.5-1.8,0.7-3,0.7C97.2,411.1,96.2,410.9,95.3,410.4z"/>
			<path class="st0" d="M111.7,410.5c-0.3,0.2-0.7,0.3-1.1,0.4c-0.4,0.1-0.9,0.2-1.4,0.2c-1.3,0-2.4-0.3-3.1-1
				c-0.7-0.7-1.1-1.6-1.1-2.9v-3.4h-1.5v-2.7h1.5v-2.7h3.6v2.7h2.3v2.7h-2.3v3.4c0,0.4,0.1,0.7,0.3,0.9c0.2,0.2,0.5,0.3,0.8,0.3
				c0.4,0,0.8-0.1,1.1-0.3L111.7,410.5z"/>
			<path class="st0" d="M113.3,399.1c-0.4-0.4-0.6-0.8-0.6-1.4c0-0.5,0.2-1,0.6-1.4c0.4-0.4,0.9-0.5,1.6-0.5s1.2,0.2,1.6,0.5
				c0.4,0.3,0.6,0.8,0.6,1.3c0,0.6-0.2,1-0.6,1.4c-0.4,0.4-0.9,0.6-1.6,0.6S113.7,399.4,113.3,399.1z M113.1,400.7h3.6V411h-3.6
				V400.7z"/>
			<path class="st0" d="M121.1,410.4c-0.9-0.5-1.6-1.1-2.1-1.9c-0.5-0.8-0.7-1.7-0.7-2.7c0-1,0.2-1.9,0.7-2.7
				c0.5-0.8,1.2-1.4,2.1-1.9c0.9-0.4,1.9-0.7,3-0.7c1.1,0,2.1,0.2,3,0.7c0.9,0.4,1.6,1.1,2.1,1.9c0.5,0.8,0.7,1.7,0.7,2.7
				c0,1-0.2,1.9-0.7,2.7c-0.5,0.8-1.2,1.4-2.1,1.9c-0.9,0.5-1.9,0.7-3,0.7C123,411.1,122,410.9,121.1,410.4z M125.6,407.6
				c0.4-0.4,0.6-1,0.6-1.8c0-0.8-0.2-1.3-0.6-1.8c-0.4-0.4-0.9-0.6-1.5-0.6c-0.6,0-1.1,0.2-1.5,0.6c-0.4,0.4-0.6,1-0.6,1.8
				c0,0.8,0.2,1.4,0.6,1.8c0.4,0.4,0.9,0.7,1.5,0.7C124.7,408.3,125.2,408.1,125.6,407.6z"/>
			<path class="st0" d="M141.2,401.7c0.8,0.8,1.2,1.9,1.2,3.4v5.8h-3.6v-5.3c0-1.4-0.6-2.1-1.7-2.1c-0.6,0-1.1,0.2-1.5,0.6
				c-0.4,0.4-0.6,1-0.6,1.8v4.9h-3.6v-10.2h3.4v1.1c0.4-0.4,0.9-0.7,1.4-1c0.6-0.2,1.2-0.3,1.8-0.3
				C139.4,400.6,140.5,401,141.2,401.7z"/>
		</g>
		<g>
			<path class="st0" d="M233.9,378.1h-4.1v-3h11.8v3h-4v10.2h-3.7V378.1z"/>
			<path class="st0" d="M250.7,379.1c0.9,0.8,1.3,2,1.3,3.6v5.7h-3.3V387c-0.5,1-1.5,1.5-3,1.5c-0.8,0-1.5-0.1-2.1-0.4
				c-0.6-0.3-1-0.7-1.3-1.1c-0.3-0.5-0.4-1-0.4-1.6c0-1,0.4-1.7,1.1-2.3c0.7-0.5,1.9-0.8,3.4-0.8h2c-0.1-1.1-0.8-1.6-2.2-1.6
				c-0.5,0-1,0.1-1.5,0.2c-0.5,0.2-0.9,0.4-1.3,0.7l-1.2-2.4c0.6-0.4,1.3-0.7,2.1-0.9c0.8-0.2,1.6-0.3,2.4-0.3
				C248.5,378,249.8,378.4,250.7,379.1z M247.7,386c0.3-0.2,0.5-0.5,0.7-0.9v-0.9h-1.5c-1,0-1.6,0.3-1.6,1c0,0.3,0.1,0.6,0.4,0.8
				c0.2,0.2,0.6,0.3,1,0.3S247.4,386.2,247.7,386z"/>
			<path class="st0" d="M260.7,388.3l-1.8-2.7l-2,2.7h-3.9l3.9-5.1l-3.8-5.1h4l1.8,2.6l1.9-2.6h3.8l-3.8,5l3.9,5.2H260.7z"/>
			<path class="st0" d="M282,388.6l-1.5-1.3c-0.6,0.4-1.3,0.8-2.1,1c-0.8,0.2-1.5,0.3-2.4,0.3c-1,0-1.9-0.2-2.7-0.5
				c-0.8-0.3-1.4-0.8-1.9-1.3c-0.5-0.6-0.7-1.2-0.7-1.9c0-0.8,0.2-1.6,0.7-2.2c0.4-0.6,1.1-1.2,2.1-1.7c-0.8-0.9-1.3-1.7-1.3-2.7
				c0-0.7,0.2-1.3,0.5-1.8c0.4-0.5,0.9-0.9,1.6-1.2c0.7-0.3,1.4-0.4,2.3-0.4c1.2,0,2.2,0.3,2.9,0.9c0.7,0.6,1.1,1.3,1.1,2.3
				c0,0.7-0.2,1.3-0.6,1.8c-0.4,0.5-1,1-1.9,1.5l1.9,1.7c0.3-0.6,0.4-1.2,0.6-1.9l2.9,0.9c-0.3,1.1-0.7,2.1-1.2,3l1.4,1.2L282,388.6
				z M278.4,385.3l-2.8-2.5c-0.4,0.3-0.7,0.5-0.9,0.8c-0.2,0.3-0.3,0.6-0.3,0.9c0,0.4,0.2,0.7,0.5,1c0.4,0.3,0.9,0.4,1.5,0.4
				C277.1,385.9,277.8,385.7,278.4,385.3z M275.9,377.6c-0.2,0.2-0.3,0.4-0.3,0.7c0,0.2,0.1,0.4,0.2,0.6c0.1,0.2,0.3,0.4,0.7,0.8
				c0.5-0.3,0.9-0.5,1.1-0.7c0.2-0.2,0.3-0.5,0.3-0.7c0-0.3-0.1-0.5-0.3-0.6c-0.2-0.2-0.4-0.2-0.8-0.2
				C276.4,377.3,276.1,377.4,275.9,377.6z"/>
			<path class="st0" d="M199.3,410.3c-1.1-0.6-2-1.4-2.6-2.4c-0.6-1-0.9-2.2-0.9-3.5c0-1.3,0.3-2.5,0.9-3.5c0.6-1,1.5-1.9,2.6-2.4
				c1.1-0.6,2.3-0.9,3.7-0.9c1.2,0,2.3,0.2,3.3,0.6c1,0.4,1.8,1,2.4,1.8l-2.4,2.1c-0.9-1-1.9-1.5-3.1-1.5c-0.7,0-1.4,0.2-1.9,0.5
				c-0.6,0.3-1,0.8-1.3,1.3c-0.3,0.6-0.5,1.2-0.5,2s0.2,1.4,0.5,2c0.3,0.6,0.7,1,1.3,1.3c0.6,0.3,1.2,0.5,1.9,0.5
				c1.2,0,2.3-0.5,3.1-1.5l2.4,2.1c-0.6,0.8-1.4,1.4-2.4,1.8c-1,0.4-2.1,0.6-3.3,0.6C201.6,411.2,200.4,410.9,199.3,410.3z"/>
			<path class="st0" d="M218.4,401.7c0.9,0.8,1.3,2,1.3,3.6v5.7h-3.3v-1.3c-0.5,1-1.5,1.5-3,1.5c-0.8,0-1.5-0.1-2.1-0.4
				c-0.6-0.3-1-0.7-1.3-1.1c-0.3-0.5-0.4-1-0.4-1.6c0-1,0.4-1.7,1.1-2.3c0.7-0.5,1.9-0.8,3.4-0.8h2c-0.1-1.1-0.8-1.6-2.2-1.6
				c-0.5,0-1,0.1-1.5,0.2c-0.5,0.2-0.9,0.4-1.3,0.7l-1.2-2.4c0.6-0.4,1.3-0.7,2.1-0.9c0.8-0.2,1.6-0.3,2.4-0.3
				C216.2,400.6,217.5,401,218.4,401.7z M215.4,408.6c0.3-0.2,0.5-0.5,0.7-0.9v-0.9h-1.5c-1,0-1.6,0.3-1.6,1c0,0.3,0.1,0.6,0.4,0.8
				c0.2,0.2,0.6,0.3,1,0.3C214.8,408.9,215.1,408.8,215.4,408.6z"/>
			<path class="st0" d="M222,397h3.6v14H222V397z"/>
			<path class="st0" d="M230,410.4c-0.9-0.5-1.6-1.1-2.1-1.9c-0.5-0.8-0.7-1.7-0.7-2.7c0-1,0.2-1.9,0.7-2.7c0.5-0.8,1.2-1.4,2.1-1.9
				c0.9-0.4,1.9-0.7,3-0.7c1.2,0,2.2,0.2,3,0.7c0.8,0.5,1.4,1.2,1.8,2.1l-2.8,1.4c-0.5-0.9-1.1-1.4-2-1.4c-0.6,0-1.2,0.2-1.6,0.6
				c-0.4,0.4-0.6,1-0.6,1.8c0,0.8,0.2,1.4,0.6,1.8c0.4,0.4,1,0.7,1.6,0.7c0.9,0,1.6-0.5,2-1.4l2.8,1.4c-0.4,0.9-0.9,1.6-1.8,2.1
				c-0.8,0.5-1.8,0.7-3,0.7C231.9,411.1,230.9,410.9,230,410.4z"/>
			<path class="st0" d="M250,400.7V411h-3.4v-1.1c-0.4,0.4-0.8,0.7-1.4,0.9c-0.5,0.2-1.1,0.3-1.7,0.3c-1.3,0-2.4-0.4-3.2-1.2
				c-0.8-0.8-1.2-1.9-1.2-3.5v-5.7h3.6v5.1c0,0.8,0.1,1.3,0.4,1.7c0.3,0.4,0.7,0.5,1.3,0.5c0.6,0,1-0.2,1.4-0.6
				c0.4-0.4,0.5-1,0.5-1.8v-4.9H250z"/>
			<path class="st0" d="M252.3,397h3.6v14h-3.6V397z"/>
			<path class="st0" d="M266.4,401.7c0.9,0.8,1.3,2,1.3,3.6v5.7h-3.3v-1.3c-0.5,1-1.5,1.5-3,1.5c-0.8,0-1.5-0.1-2.1-0.4
				c-0.6-0.3-1-0.7-1.3-1.1c-0.3-0.5-0.4-1-0.4-1.6c0-1,0.4-1.7,1.1-2.3c0.7-0.5,1.9-0.8,3.4-0.8h2c-0.1-1.1-0.8-1.6-2.2-1.6
				c-0.5,0-1,0.1-1.5,0.2c-0.5,0.2-0.9,0.4-1.3,0.7l-1.2-2.4c0.6-0.4,1.3-0.7,2.1-0.9c0.8-0.2,1.6-0.3,2.4-0.3
				C264.2,400.6,265.5,401,266.4,401.7z M263.5,408.6c0.3-0.2,0.5-0.5,0.7-0.9v-0.9h-1.5c-1,0-1.6,0.3-1.6,1c0,0.3,0.1,0.6,0.4,0.8
				c0.2,0.2,0.6,0.3,1,0.3C262.8,408.9,263.2,408.8,263.5,408.6z"/>
			<path class="st0" d="M277,410.5c-0.3,0.2-0.7,0.3-1.1,0.4c-0.4,0.1-0.9,0.2-1.4,0.2c-1.3,0-2.4-0.3-3.1-1
				c-0.7-0.7-1.1-1.6-1.1-2.9v-3.4h-1.5v-2.7h1.5v-2.7h3.6v2.7h2.3v2.7H274v3.4c0,0.4,0.1,0.7,0.3,0.9c0.2,0.2,0.5,0.3,0.8,0.3
				c0.4,0,0.8-0.1,1.1-0.3L277,410.5z"/>
			<path class="st0" d="M278.6,399.1c-0.4-0.4-0.6-0.8-0.6-1.4c0-0.5,0.2-1,0.6-1.4c0.4-0.4,0.9-0.5,1.6-0.5s1.2,0.2,1.6,0.5
				c0.4,0.3,0.6,0.8,0.6,1.3c0,0.6-0.2,1-0.6,1.4c-0.4,0.4-0.9,0.6-1.6,0.6S279,399.4,278.6,399.1z M278.4,400.7h3.6V411h-3.6V400.7
				z"/>
			<path class="st0" d="M286.5,410.4c-0.9-0.5-1.6-1.1-2.1-1.9c-0.5-0.8-0.7-1.7-0.7-2.7c0-1,0.2-1.9,0.7-2.7
				c0.5-0.8,1.2-1.4,2.1-1.9c0.9-0.4,1.9-0.7,3-0.7c1.1,0,2.1,0.2,3,0.7c0.9,0.4,1.6,1.1,2.1,1.9c0.5,0.8,0.7,1.7,0.7,2.7
				c0,1-0.2,1.9-0.7,2.7c-0.5,0.8-1.2,1.4-2.1,1.9c-0.9,0.5-1.9,0.7-3,0.7C288.3,411.1,287.4,410.9,286.5,410.4z M291,407.6
				c0.4-0.4,0.6-1,0.6-1.8c0-0.8-0.2-1.3-0.6-1.8c-0.4-0.4-0.9-0.6-1.5-0.6c-0.6,0-1.1,0.2-1.5,0.6c-0.4,0.4-0.6,1-0.6,1.8
				c0,0.8,0.2,1.4,0.6,1.8c0.4,0.4,0.9,0.7,1.5,0.7C290.1,408.3,290.6,408.1,291,407.6z"/>
			<path class="st0" d="M306.6,401.7c0.8,0.8,1.2,1.9,1.2,3.4v5.8h-3.6v-5.3c0-1.4-0.6-2.1-1.7-2.1c-0.6,0-1.1,0.2-1.5,0.6
				c-0.4,0.4-0.6,1-0.6,1.8v4.9h-3.6v-10.2h3.4v1.1c0.4-0.4,0.9-0.7,1.4-1c0.6-0.2,1.2-0.3,1.8-0.3
				C304.8,400.6,305.8,401,306.6,401.7z"/>
			<path class="st0" d="M311.2,410.8c-0.8-0.2-1.5-0.4-2-0.8l1.1-2.4c0.5,0.3,1,0.5,1.7,0.7c0.6,0.2,1.3,0.3,1.9,0.3
				c0.6,0,1-0.1,1.2-0.2c0.2-0.1,0.4-0.3,0.4-0.5c0-0.2-0.1-0.4-0.4-0.5c-0.3-0.1-0.8-0.2-1.4-0.3c-0.8-0.1-1.5-0.2-2.1-0.4
				c-0.6-0.2-1.1-0.5-1.5-0.9c-0.4-0.4-0.6-1.1-0.6-1.8c0-0.7,0.2-1.2,0.6-1.7c0.4-0.5,1-0.9,1.7-1.2c0.7-0.3,1.6-0.4,2.7-0.4
				c0.7,0,1.5,0.1,2.2,0.2c0.7,0.2,1.3,0.4,1.8,0.6l-1.1,2.4c-0.9-0.5-1.9-0.8-2.9-0.8c-0.6,0-1,0.1-1.2,0.2
				c-0.3,0.1-0.4,0.3-0.4,0.5c0,0.2,0.1,0.4,0.4,0.5c0.3,0.1,0.8,0.2,1.4,0.3c0.8,0.1,1.5,0.3,2.1,0.4c0.6,0.2,1,0.5,1.4,0.9
				c0.4,0.4,0.6,1,0.6,1.8c0,0.6-0.2,1.2-0.6,1.7c-0.4,0.5-1,0.9-1.7,1.2c-0.8,0.3-1.7,0.4-2.7,0.4C312.8,411.1,312,411,311.2,410.8
				z"/>
		</g>
		<g>
			<path class="st0" d="M380.9,384.8h-2v3.5h-3.7v-13.2h6c1.2,0,2.2,0.2,3.1,0.6c0.9,0.4,1.6,1,2,1.7s0.7,1.6,0.7,2.6
				c0,1-0.2,1.8-0.7,2.5c-0.4,0.7-1.1,1.3-1.9,1.7l2.8,4.1h-4L380.9,384.8z M382.7,378.6c-0.4-0.3-1-0.5-1.7-0.5h-2.1v3.9h2.1
				c0.8,0,1.3-0.2,1.7-0.5c0.4-0.3,0.6-0.8,0.6-1.4C383.3,379.4,383.1,378.9,382.7,378.6z"/>
			<path class="st0" d="M399.3,384.1h-7.4c0.1,0.5,0.4,0.9,0.9,1.2c0.4,0.3,1,0.4,1.6,0.4c0.5,0,0.9-0.1,1.3-0.2
				c0.4-0.1,0.7-0.4,1.1-0.7l1.9,2c-1,1.1-2.4,1.7-4.4,1.7c-1.2,0-2.2-0.2-3.1-0.7c-0.9-0.5-1.6-1.1-2.1-1.9
				c-0.5-0.8-0.7-1.7-0.7-2.7c0-1,0.2-1.9,0.7-2.7c0.5-0.8,1.2-1.4,2-1.9c0.9-0.5,1.8-0.7,2.9-0.7c1,0,1.9,0.2,2.8,0.6
				c0.8,0.4,1.5,1,2,1.8c0.5,0.8,0.7,1.7,0.7,2.8C399.3,383.3,399.3,383.6,399.3,384.1z M392.5,381c-0.4,0.3-0.6,0.7-0.7,1.3h4.2
				c-0.1-0.5-0.3-1-0.7-1.3c-0.4-0.3-0.8-0.5-1.4-0.5C393.3,380.5,392.9,380.7,392.5,381z"/>
			<path class="st0" d="M411.6,378.1l-4.2,10.2h-3.7l-4.2-10.2h3.7l2.4,6.2l2.6-6.2H411.6z"/>
			<path class="st0" d="M412.7,376.5c-0.4-0.4-0.6-0.8-0.6-1.4c0-0.5,0.2-1,0.6-1.4c0.4-0.4,0.9-0.5,1.6-0.5c0.7,0,1.2,0.2,1.6,0.5
				s0.6,0.8,0.6,1.3c0,0.6-0.2,1-0.6,1.4c-0.4,0.4-0.9,0.6-1.6,0.6C413.6,377,413.1,376.8,412.7,376.5z M412.5,378.1h3.6v10.2h-3.6
				V378.1z"/>
			<path class="st0" d="M428.8,384.1h-7.4c0.1,0.5,0.4,0.9,0.9,1.2c0.4,0.3,1,0.4,1.6,0.4c0.5,0,0.9-0.1,1.3-0.2
				c0.4-0.1,0.7-0.4,1.1-0.7l1.9,2c-1,1.1-2.4,1.7-4.4,1.7c-1.2,0-2.2-0.2-3.1-0.7c-0.9-0.5-1.6-1.1-2.1-1.9
				c-0.5-0.8-0.7-1.7-0.7-2.7c0-1,0.2-1.9,0.7-2.7c0.5-0.8,1.2-1.4,2-1.9c0.9-0.5,1.8-0.7,2.9-0.7c1,0,1.9,0.2,2.8,0.6
				c0.8,0.4,1.5,1,2,1.8c0.5,0.8,0.7,1.7,0.7,2.8C428.8,383.3,428.8,383.6,428.8,384.1z M422,381c-0.4,0.3-0.6,0.7-0.7,1.3h4.2
				c-0.1-0.5-0.3-1-0.7-1.3c-0.4-0.3-0.8-0.5-1.4-0.5C422.8,380.5,422.4,380.7,422,381z"/>
			<path class="st0" d="M447.2,378.1l-3.6,10.2h-3.5l-1.9-5.6l-2,5.6h-3.5l-3.6-10.2h3.4l2.1,6.2l2.2-6.2h3.1l2.1,6.2l2.2-6.2H447.2
				z"/>
			<path class="st0" d="M464.4,388.6l-1.5-1.3c-0.6,0.4-1.3,0.8-2.1,1c-0.8,0.2-1.5,0.3-2.4,0.3c-1,0-1.9-0.2-2.7-0.5
				c-0.8-0.3-1.4-0.8-1.9-1.3c-0.5-0.6-0.7-1.2-0.7-1.9c0-0.8,0.2-1.6,0.7-2.2c0.4-0.6,1.1-1.2,2.1-1.7c-0.8-0.9-1.3-1.7-1.3-2.7
				c0-0.7,0.2-1.3,0.5-1.8c0.4-0.5,0.9-0.9,1.6-1.2c0.7-0.3,1.4-0.4,2.3-0.4c1.2,0,2.2,0.3,2.9,0.9c0.7,0.6,1.1,1.3,1.1,2.3
				c0,0.7-0.2,1.3-0.6,1.8c-0.4,0.5-1,1-1.9,1.5l1.9,1.7c0.3-0.6,0.4-1.2,0.6-1.9l2.9,0.9c-0.3,1.1-0.7,2.1-1.2,3l1.4,1.2
				L464.4,388.6z M460.8,385.3l-2.8-2.5c-0.4,0.3-0.7,0.5-0.9,0.8c-0.2,0.3-0.3,0.6-0.3,0.9c0,0.4,0.2,0.7,0.5,1
				c0.4,0.3,0.9,0.4,1.5,0.4C459.5,385.9,460.1,385.7,460.8,385.3z M458.3,377.6c-0.2,0.2-0.3,0.4-0.3,0.7c0,0.2,0.1,0.4,0.2,0.6
				c0.1,0.2,0.3,0.4,0.7,0.8c0.5-0.3,0.9-0.5,1.1-0.7c0.2-0.2,0.3-0.5,0.3-0.7c0-0.3-0.1-0.5-0.3-0.6c-0.2-0.2-0.4-0.2-0.8-0.2
				C458.8,377.3,458.5,377.4,458.3,377.6z"/>
			<path class="st0" d="M385.2,408.4h-5.6l-1,2.6h-3.8l5.8-13.2h3.7l5.8,13.2h-3.9L385.2,408.4z M384.1,405.6l-1.7-4.2l-1.7,4.2
				H384.1z"/>
			<path class="st0" d="M400,401.2c0.8,0.4,1.4,1,1.8,1.8c0.4,0.8,0.7,1.7,0.7,2.8c0,1.1-0.2,2-0.7,2.8s-1,1.4-1.8,1.8
				c-0.8,0.4-1.6,0.7-2.5,0.7c-1.2,0-2.1-0.4-2.8-1.1v4.6H391v-13.9h3.4v1c0.7-0.8,1.7-1.2,3-1.2C398.4,400.6,399.2,400.8,400,401.2
				z M398.2,407.6c0.4-0.4,0.6-1,0.6-1.8c0-0.8-0.2-1.3-0.6-1.8c-0.4-0.4-0.9-0.7-1.5-0.7c-0.6,0-1.1,0.2-1.5,0.7
				c-0.4,0.4-0.6,1-0.6,1.8c0,0.8,0.2,1.3,0.6,1.8c0.4,0.4,0.9,0.7,1.5,0.7C397.3,408.3,397.8,408.1,398.2,407.6z"/>
			<path class="st0" d="M413.1,401.2c0.8,0.4,1.4,1,1.8,1.8c0.4,0.8,0.7,1.7,0.7,2.8c0,1.1-0.2,2-0.7,2.8s-1,1.4-1.8,1.8
				c-0.8,0.4-1.6,0.7-2.5,0.7c-1.2,0-2.1-0.4-2.8-1.1v4.6h-3.6v-13.9h3.4v1c0.7-0.8,1.7-1.2,3-1.2
				C411.5,400.6,412.3,400.8,413.1,401.2z M411.3,407.6c0.4-0.4,0.6-1,0.6-1.8c0-0.8-0.2-1.3-0.6-1.8c-0.4-0.4-0.9-0.7-1.5-0.7
				c-0.6,0-1.1,0.2-1.5,0.7c-0.4,0.4-0.6,1-0.6,1.8c0,0.8,0.2,1.3,0.6,1.8c0.4,0.4,0.9,0.7,1.5,0.7
				C410.4,408.3,410.9,408.1,411.3,407.6z"/>
			<path class="st0" d="M422,400.9c0.6-0.2,1.3-0.3,2-0.3v3.2c-0.3,0-0.6-0.1-0.8-0.1c-0.8,0-1.4,0.2-1.8,0.6
				c-0.4,0.4-0.6,1-0.6,1.9v4.7h-3.6v-10.2h3.4v1.2C421,401.5,421.4,401.2,422,400.9z"/>
			<path class="st0" d="M427.6,410.4c-0.9-0.5-1.6-1.1-2.1-1.9c-0.5-0.8-0.7-1.7-0.7-2.7c0-1,0.2-1.9,0.7-2.7
				c0.5-0.8,1.2-1.4,2.1-1.9c0.9-0.4,1.9-0.7,3-0.7s2.1,0.2,3,0.7c0.9,0.4,1.6,1.1,2.1,1.9c0.5,0.8,0.7,1.7,0.7,2.7
				c0,1-0.2,1.9-0.7,2.7c-0.5,0.8-1.2,1.4-2.1,1.9c-0.9,0.5-1.9,0.7-3,0.7C429.4,411.1,428.5,410.9,427.6,410.4z M432.1,407.6
				c0.4-0.4,0.6-1,0.6-1.8c0-0.8-0.2-1.3-0.6-1.8s-0.9-0.6-1.5-0.6s-1.1,0.2-1.5,0.6c-0.4,0.4-0.6,1-0.6,1.8c0,0.8,0.2,1.4,0.6,1.8
				c0.4,0.4,0.9,0.7,1.5,0.7S431.7,408.1,432.1,407.6z"/>
			<path class="st0" d="M448.4,400.7l-4.2,10.2h-3.7l-4.2-10.2h3.7l2.4,6.2l2.6-6.2H448.4z"/>
			<path class="st0" d="M457.2,401.7c0.9,0.8,1.3,2,1.3,3.6v5.7h-3.3v-1.3c-0.5,1-1.5,1.5-3,1.5c-0.8,0-1.5-0.1-2.1-0.4
				c-0.6-0.3-1-0.7-1.3-1.1c-0.3-0.5-0.4-1-0.4-1.6c0-1,0.4-1.7,1.1-2.3c0.7-0.5,1.9-0.8,3.4-0.8h2c-0.1-1.1-0.8-1.6-2.2-1.6
				c-0.5,0-1,0.1-1.5,0.2c-0.5,0.2-0.9,0.4-1.3,0.7l-1.2-2.4c0.6-0.4,1.3-0.7,2.1-0.9c0.8-0.2,1.6-0.3,2.4-0.3
				C455,400.6,456.3,401,457.2,401.7z M454.3,408.6c0.3-0.2,0.5-0.5,0.7-0.9v-0.9h-1.5c-1,0-1.6,0.3-1.6,1c0,0.3,0.1,0.6,0.4,0.8
				c0.2,0.2,0.6,0.3,1,0.3C453.6,408.9,454,408.8,454.3,408.6z"/>
			<path class="st0" d="M460.8,397h3.6v14h-3.6V397z"/>
		</g>
		<g>
			<path class="st0" d="M550,375.8c0.9,0.4,1.6,1,2,1.7c0.5,0.7,0.7,1.6,0.7,2.6c0,1-0.2,1.9-0.7,2.6c-0.5,0.7-1.2,1.3-2,1.7
				s-1.9,0.6-3.1,0.6h-2.3v3.4h-3.7v-13.2h6C548.1,375.2,549.1,375.4,550,375.8z M548.4,381.5c0.4-0.3,0.6-0.8,0.6-1.4
				c0-0.6-0.2-1.1-0.6-1.4c-0.4-0.3-1-0.5-1.7-0.5h-2.1v3.9h2.1C547.4,382,548,381.8,548.4,381.5z"/>
			<path class="st0" d="M562.5,379.1c0.9,0.8,1.3,2,1.3,3.6v5.7h-3.3V387c-0.5,1-1.5,1.5-3,1.5c-0.8,0-1.5-0.1-2.1-0.4
				c-0.6-0.3-1-0.7-1.3-1.1c-0.3-0.5-0.4-1-0.4-1.6c0-1,0.4-1.7,1.1-2.3c0.7-0.5,1.9-0.8,3.4-0.8h2c-0.1-1.1-0.8-1.6-2.2-1.6
				c-0.5,0-1,0.1-1.5,0.2c-0.5,0.2-0.9,0.4-1.3,0.7l-1.2-2.4c0.6-0.4,1.3-0.7,2.1-0.9c0.8-0.2,1.6-0.3,2.4-0.3
				C560.3,378,561.6,378.4,562.5,379.1z M559.6,386c0.3-0.2,0.5-0.5,0.7-0.9v-0.9h-1.5c-1,0-1.6,0.3-1.6,1c0,0.3,0.1,0.6,0.4,0.8
				c0.2,0.2,0.6,0.3,1,0.3C558.9,386.3,559.3,386.2,559.6,386z"/>
			<path class="st0" d="M576.7,378.1l-4.4,10.6c-0.5,1.3-1.1,2.1-1.9,2.6c-0.7,0.5-1.6,0.8-2.7,0.8c-0.5,0-1.1-0.1-1.6-0.3
				c-0.5-0.2-1-0.4-1.3-0.7l1.2-2.5c0.2,0.2,0.4,0.3,0.7,0.4c0.3,0.1,0.6,0.2,0.9,0.2c0.3,0,0.6-0.1,0.8-0.2
				c0.2-0.1,0.4-0.4,0.6-0.7l-4.4-10.3h3.7l2.5,6.2l2.5-6.2H576.7z"/>
			<path class="st0" d="M593.9,379.1c0.7,0.8,1.1,1.9,1.1,3.4v5.8h-3.6v-5.3c0-0.7-0.1-1.2-0.4-1.6c-0.3-0.3-0.7-0.5-1.1-0.5
				c-0.5,0-1,0.2-1.3,0.6c-0.3,0.4-0.5,0.9-0.5,1.7v5.1h-3.6v-5.3c0-1.4-0.5-2.1-1.5-2.1c-0.6,0-1,0.2-1.3,0.6
				c-0.3,0.4-0.5,0.9-0.5,1.7v5.1h-3.6v-10.2h3.4v1.1c0.4-0.4,0.8-0.7,1.3-0.9c0.5-0.2,1.1-0.3,1.7-0.3c0.7,0,1.4,0.1,1.9,0.4
				c0.6,0.3,1,0.7,1.4,1.2c0.4-0.5,0.9-0.9,1.5-1.2c0.6-0.3,1.3-0.4,2-0.4C592.2,378,593.2,378.3,593.9,379.1z"/>
			<path class="st0" d="M607.8,384.1h-7.4c0.1,0.5,0.4,0.9,0.9,1.2c0.4,0.3,1,0.4,1.6,0.4c0.5,0,0.9-0.1,1.3-0.2
				c0.4-0.1,0.7-0.4,1.1-0.7l1.9,2c-1,1.1-2.4,1.7-4.4,1.7c-1.2,0-2.2-0.2-3.1-0.7c-0.9-0.5-1.6-1.1-2.1-1.9
				c-0.5-0.8-0.7-1.7-0.7-2.7c0-1,0.2-1.9,0.7-2.7c0.5-0.8,1.2-1.4,2-1.9c0.9-0.5,1.8-0.7,2.9-0.7c1,0,1.9,0.2,2.8,0.6
				c0.8,0.4,1.5,1,2,1.8c0.5,0.8,0.7,1.7,0.7,2.8C607.9,383.3,607.9,383.6,607.8,384.1z M601.1,381c-0.4,0.3-0.6,0.7-0.7,1.3h4.2
				c-0.1-0.5-0.3-1-0.7-1.3c-0.4-0.3-0.8-0.5-1.4-0.5C601.9,380.5,601.4,380.7,601.1,381z"/>
			<path class="st0" d="M619.3,379.1c0.8,0.8,1.2,1.9,1.2,3.4v5.8h-3.6v-5.3c0-1.4-0.6-2.1-1.7-2.1c-0.6,0-1.1,0.2-1.5,0.6
				c-0.4,0.4-0.6,1-0.6,1.8v4.9h-3.6v-10.2h3.4v1.1c0.4-0.4,0.9-0.7,1.4-1c0.6-0.2,1.2-0.3,1.8-0.3
				C617.5,378,618.5,378.3,619.3,379.1z"/>
			<path class="st0" d="M629.7,387.9c-0.3,0.2-0.7,0.3-1.1,0.4c-0.4,0.1-0.9,0.2-1.4,0.2c-1.3,0-2.4-0.3-3.1-1
				c-0.7-0.7-1.1-1.6-1.1-2.9v-3.4h-1.5v-2.7h1.5v-2.7h3.6v2.7h2.3v2.7h-2.3v3.4c0,0.4,0.1,0.7,0.3,0.9c0.2,0.2,0.5,0.3,0.8,0.3
				c0.4,0,0.8-0.1,1.1-0.3L629.7,387.9z"/>
			<path class="st0" d="M539.7,398.4c0.9,0.4,1.6,1,2,1.7c0.5,0.7,0.7,1.6,0.7,2.6c0,1-0.2,1.9-0.7,2.6c-0.5,0.7-1.2,1.3-2,1.7
				c-0.9,0.4-1.9,0.6-3.1,0.6h-2.3v3.4h-3.7v-13.2h6C537.8,397.8,538.8,398,539.7,398.4z M538.1,404.1c0.4-0.3,0.6-0.8,0.6-1.4
				c0-0.6-0.2-1.1-0.6-1.4s-1-0.5-1.7-0.5h-2.1v3.9h2.1C537.2,404.6,537.7,404.4,538.1,404.1z"/>
			<path class="st0" d="M549,400.9c0.6-0.2,1.3-0.3,2-0.3v3.2c-0.3,0-0.6-0.1-0.8-0.1c-0.8,0-1.4,0.2-1.8,0.6
				c-0.4,0.4-0.6,1-0.6,1.9v4.7h-3.6v-10.2h3.4v1.2C548,401.5,548.5,401.2,549,400.9z"/>
			<path class="st0" d="M554.6,410.4c-0.9-0.5-1.6-1.1-2.1-1.9c-0.5-0.8-0.7-1.7-0.7-2.7c0-1,0.2-1.9,0.7-2.7
				c0.5-0.8,1.2-1.4,2.1-1.9c0.9-0.4,1.9-0.7,3-0.7s2.1,0.2,3,0.7c0.9,0.4,1.6,1.1,2.1,1.9c0.5,0.8,0.7,1.7,0.7,2.7
				c0,1-0.2,1.9-0.7,2.7c-0.5,0.8-1.2,1.4-2.1,1.9c-0.9,0.5-1.9,0.7-3,0.7C556.5,411.1,555.5,410.9,554.6,410.4z M559.1,407.6
				c0.4-0.4,0.6-1,0.6-1.8c0-0.8-0.2-1.3-0.6-1.8s-0.9-0.6-1.5-0.6s-1.1,0.2-1.5,0.6c-0.4,0.4-0.6,1-0.6,1.8c0,0.8,0.2,1.4,0.6,1.8
				c0.4,0.4,0.9,0.7,1.5,0.7S558.7,408.1,559.1,407.6z"/>
			<path class="st0" d="M567.2,410.4c-0.9-0.5-1.6-1.1-2.1-1.9c-0.5-0.8-0.7-1.7-0.7-2.7c0-1,0.2-1.9,0.7-2.7
				c0.5-0.8,1.2-1.4,2.1-1.9c0.9-0.4,1.9-0.7,3-0.7c1.2,0,2.2,0.2,3,0.7c0.8,0.5,1.4,1.2,1.8,2.1l-2.8,1.4c-0.5-0.9-1.1-1.4-2-1.4
				c-0.6,0-1.2,0.2-1.6,0.6s-0.6,1-0.6,1.8c0,0.8,0.2,1.4,0.6,1.8s1,0.7,1.6,0.7c0.9,0,1.6-0.5,2-1.4l2.8,1.4
				c-0.4,0.9-0.9,1.6-1.8,2.1c-0.8,0.5-1.8,0.7-3,0.7C569.1,411.1,568,410.9,567.2,410.4z"/>
			<path class="st0" d="M586.6,406.8h-7.4c0.1,0.5,0.4,0.9,0.9,1.2c0.4,0.3,1,0.4,1.6,0.4c0.5,0,0.9-0.1,1.3-0.2
				c0.4-0.1,0.7-0.4,1.1-0.7l1.9,2c-1,1.1-2.4,1.7-4.4,1.7c-1.2,0-2.2-0.2-3.1-0.7c-0.9-0.5-1.6-1.1-2.1-1.9
				c-0.5-0.8-0.7-1.7-0.7-2.7c0-1,0.2-1.9,0.7-2.7c0.5-0.8,1.2-1.4,2-1.9c0.9-0.5,1.8-0.7,2.9-0.7c1,0,1.9,0.2,2.8,0.6
				c0.8,0.4,1.5,1,2,1.8s0.7,1.7,0.7,2.8C586.7,405.9,586.6,406.2,586.6,406.8z M579.8,403.6c-0.4,0.3-0.6,0.7-0.7,1.3h4.2
				c-0.1-0.5-0.3-1-0.7-1.3c-0.4-0.3-0.8-0.5-1.4-0.5C580.7,403.1,580.2,403.3,579.8,403.6z"/>
			<path class="st0" d="M589.5,410.8c-0.8-0.2-1.5-0.4-2-0.8l1.1-2.4c0.5,0.3,1,0.5,1.7,0.7c0.6,0.2,1.3,0.3,1.9,0.3
				c0.6,0,1-0.1,1.2-0.2c0.2-0.1,0.4-0.3,0.4-0.5c0-0.2-0.1-0.4-0.4-0.5c-0.3-0.1-0.8-0.2-1.4-0.3c-0.8-0.1-1.5-0.2-2.1-0.4
				c-0.6-0.2-1.1-0.5-1.5-0.9c-0.4-0.4-0.6-1.1-0.6-1.8c0-0.7,0.2-1.2,0.6-1.7c0.4-0.5,1-0.9,1.7-1.2c0.7-0.3,1.6-0.4,2.7-0.4
				c0.7,0,1.5,0.1,2.2,0.2c0.7,0.2,1.3,0.4,1.8,0.6l-1.1,2.4c-0.9-0.5-1.9-0.8-2.9-0.8c-0.6,0-1,0.1-1.2,0.2
				c-0.3,0.1-0.4,0.3-0.4,0.5c0,0.2,0.1,0.4,0.4,0.5c0.3,0.1,0.8,0.2,1.4,0.3c0.8,0.1,1.5,0.3,2.1,0.4c0.6,0.2,1,0.5,1.4,0.9
				c0.4,0.4,0.6,1,0.6,1.8c0,0.6-0.2,1.2-0.6,1.7s-1,0.9-1.7,1.2c-0.8,0.3-1.7,0.4-2.7,0.4C591.2,411.1,590.3,411,589.5,410.8z"/>
			<path class="st0" d="M599.8,410.8c-0.8-0.2-1.5-0.4-2-0.8l1.1-2.4c0.5,0.3,1,0.5,1.7,0.7c0.6,0.2,1.3,0.3,1.9,0.3
				c0.6,0,1-0.1,1.2-0.2c0.2-0.1,0.4-0.3,0.4-0.5c0-0.2-0.1-0.4-0.4-0.5c-0.3-0.1-0.8-0.2-1.4-0.3c-0.8-0.1-1.5-0.2-2.1-0.4
				c-0.6-0.2-1.1-0.5-1.5-0.9c-0.4-0.4-0.6-1.1-0.6-1.8c0-0.7,0.2-1.2,0.6-1.7c0.4-0.5,1-0.9,1.7-1.2c0.7-0.3,1.6-0.4,2.7-0.4
				c0.7,0,1.5,0.1,2.2,0.2c0.7,0.2,1.3,0.4,1.8,0.6l-1.1,2.4c-0.9-0.5-1.9-0.8-2.9-0.8c-0.6,0-1,0.1-1.2,0.2
				c-0.3,0.1-0.4,0.3-0.4,0.5c0,0.2,0.1,0.4,0.4,0.5c0.3,0.1,0.8,0.2,1.4,0.3c0.8,0.1,1.5,0.3,2.1,0.4c0.6,0.2,1,0.5,1.4,0.9
				c0.4,0.4,0.6,1,0.6,1.8c0,0.6-0.2,1.2-0.6,1.7s-1,0.9-1.7,1.2c-0.8,0.3-1.7,0.4-2.7,0.4C601.5,411.1,600.6,411,599.8,410.8z"/>
			<path class="st0" d="M609.1,399.1c-0.4-0.4-0.6-0.8-0.6-1.4c0-0.5,0.2-1,0.6-1.4c0.4-0.4,0.9-0.5,1.6-0.5c0.7,0,1.2,0.2,1.6,0.5
				c0.4,0.3,0.6,0.8,0.6,1.3c0,0.6-0.2,1-0.6,1.4c-0.4,0.4-0.9,0.6-1.6,0.6C610.1,399.6,609.5,399.4,609.1,399.1z M608.9,400.7h3.6
				V411h-3.6V400.7z"/>
			<path class="st0" d="M624.5,401.7c0.8,0.8,1.2,1.9,1.2,3.4v5.8h-3.6v-5.3c0-1.4-0.6-2.1-1.7-2.1c-0.6,0-1.1,0.2-1.5,0.6
				c-0.4,0.4-0.6,1-0.6,1.8v4.9h-3.6v-10.2h3.4v1.1c0.4-0.4,0.9-0.7,1.4-1c0.6-0.2,1.2-0.3,1.8-0.3
				C622.7,400.6,623.8,401,624.5,401.7z"/>
			<path class="st0" d="M639.1,400.7v8.3c0,1.9-0.5,3.3-1.5,4.3c-1,0.9-2.5,1.4-4.4,1.4c-1,0-1.9-0.1-2.8-0.3
				c-0.9-0.2-1.6-0.6-2.2-1l1.3-2.5c0.4,0.3,0.9,0.6,1.6,0.8c0.6,0.2,1.3,0.3,1.9,0.3c0.9,0,1.6-0.2,2.1-0.6c0.4-0.4,0.7-1,0.7-1.8
				v-0.3c-0.7,0.8-1.7,1.2-3,1.2c-0.9,0-1.7-0.2-2.5-0.6c-0.8-0.4-1.4-1-1.8-1.7c-0.5-0.7-0.7-1.6-0.7-2.6c0-1,0.2-1.8,0.7-2.6
				c0.5-0.7,1.1-1.3,1.8-1.7c0.8-0.4,1.6-0.6,2.5-0.6c1.5,0,2.5,0.5,3.2,1.4v-1.2H639.1z M634.9,407c0.4-0.4,0.6-0.9,0.6-1.5
				c0-0.6-0.2-1.1-0.6-1.5c-0.4-0.4-0.9-0.6-1.6-0.6c-0.7,0-1.2,0.2-1.6,0.6s-0.6,0.9-0.6,1.5c0,0.6,0.2,1.1,0.6,1.5
				c0.4,0.4,1,0.6,1.6,0.6C633.9,407.6,634.5,407.4,634.9,407z"/>
		</g>
		<g>
			<path class="st0" d="M719.8,375.2h6.2c1.4,0,2.7,0.3,3.8,0.8c1.1,0.5,2,1.3,2.6,2.3c0.6,1,0.9,2.2,0.9,3.5c0,1.3-0.3,2.5-0.9,3.5
				c-0.6,1-1.5,1.8-2.6,2.3c-1.1,0.5-2.4,0.8-3.8,0.8h-6.2V375.2z M725.9,385.4c1.1,0,2-0.3,2.7-1s1-1.5,1-2.7c0-1.1-0.3-2-1-2.7
				s-1.6-1-2.7-1h-2.4v7.2H725.9z"/>
			<path class="st0" d="M735.4,376.5c-0.4-0.4-0.6-0.8-0.6-1.4c0-0.5,0.2-1,0.6-1.4c0.4-0.4,0.9-0.5,1.6-0.5c0.7,0,1.2,0.2,1.6,0.5
				s0.6,0.8,0.6,1.3c0,0.6-0.2,1-0.6,1.4c-0.4,0.4-0.9,0.6-1.6,0.6C736.3,377,735.8,376.8,735.4,376.5z M735.2,378.1h3.6v10.2h-3.6
				V378.1z"/>
			<path class="st0" d="M745.9,378.3c0.6-0.2,1.3-0.3,2-0.3v3.2c-0.3,0-0.6-0.1-0.8-0.1c-0.8,0-1.4,0.2-1.8,0.6
				c-0.4,0.4-0.6,1-0.6,1.9v4.7h-3.6v-10.2h3.4v1.2C744.8,378.9,745.3,378.5,745.9,378.3z"/>
			<path class="st0" d="M759.7,384.1h-7.4c0.1,0.5,0.4,0.9,0.9,1.2c0.4,0.3,1,0.4,1.6,0.4c0.5,0,0.9-0.1,1.3-0.2
				c0.4-0.1,0.7-0.4,1.1-0.7l1.9,2c-1,1.1-2.4,1.7-4.4,1.7c-1.2,0-2.2-0.2-3.1-0.7c-0.9-0.5-1.6-1.1-2.1-1.9
				c-0.5-0.8-0.7-1.7-0.7-2.7c0-1,0.2-1.9,0.7-2.7c0.5-0.8,1.2-1.4,2-1.9c0.9-0.5,1.8-0.7,2.9-0.7c1,0,1.9,0.2,2.8,0.6
				c0.8,0.4,1.5,1,2,1.8c0.5,0.8,0.7,1.7,0.7,2.8C759.7,383.3,759.7,383.6,759.7,384.1z M752.9,381c-0.4,0.3-0.6,0.7-0.7,1.3h4.2
				c-0.1-0.5-0.3-1-0.7-1.3c-0.4-0.3-0.8-0.5-1.4-0.5C753.7,380.5,753.3,380.7,752.9,381z"/>
			<path class="st0" d="M763.6,387.8c-0.9-0.5-1.6-1.1-2.1-1.9c-0.5-0.8-0.7-1.7-0.7-2.7s0.2-1.9,0.7-2.7c0.5-0.8,1.2-1.4,2.1-1.9
				c0.9-0.4,1.9-0.7,3-0.7c1.2,0,2.2,0.2,3,0.7c0.8,0.5,1.4,1.2,1.8,2.1l-2.8,1.4c-0.5-0.9-1.1-1.4-2-1.4c-0.6,0-1.2,0.2-1.6,0.6
				c-0.4,0.4-0.6,1-0.6,1.8c0,0.8,0.2,1.4,0.6,1.8c0.4,0.4,1,0.7,1.6,0.7c0.9,0,1.6-0.5,2-1.4l2.8,1.4c-0.4,0.9-0.9,1.6-1.8,2.1
				c-0.8,0.5-1.8,0.7-3,0.7C765.5,388.5,764.5,388.3,763.6,387.8z"/>
			<path class="st0" d="M780,387.9c-0.3,0.2-0.7,0.3-1.1,0.4c-0.4,0.1-0.9,0.2-1.4,0.2c-1.3,0-2.4-0.3-3.1-1
				c-0.7-0.7-1.1-1.6-1.1-2.9v-3.4h-1.5v-2.7h1.5v-2.7h3.6v2.7h2.3v2.7h-2.3v3.4c0,0.4,0.1,0.7,0.3,0.9c0.2,0.2,0.5,0.3,0.8,0.3
				c0.4,0,0.8-0.1,1.1-0.3L780,387.9z"/>
			<path class="st0" d="M711.7,397.8h6.2c1.4,0,2.7,0.3,3.8,0.8c1.1,0.5,2,1.3,2.6,2.3c0.6,1,0.9,2.2,0.9,3.5c0,1.3-0.3,2.5-0.9,3.5
				c-0.6,1-1.5,1.8-2.6,2.3c-1.1,0.5-2.4,0.8-3.8,0.8h-6.2V397.8z M717.8,408c1.1,0,2-0.3,2.7-1c0.7-0.6,1-1.5,1-2.7
				c0-1.1-0.3-2-1-2.7c-0.7-0.6-1.6-1-2.7-1h-2.4v7.2H717.8z"/>
			<path class="st0" d="M737.5,406.8H730c0.1,0.5,0.4,0.9,0.9,1.2c0.4,0.3,1,0.4,1.6,0.4c0.5,0,0.9-0.1,1.3-0.2s0.7-0.4,1.1-0.7
				l1.9,2c-1,1.1-2.4,1.7-4.4,1.7c-1.2,0-2.2-0.2-3.1-0.7c-0.9-0.5-1.6-1.1-2.1-1.9c-0.5-0.8-0.7-1.7-0.7-2.7c0-1,0.2-1.9,0.7-2.7
				c0.5-0.8,1.2-1.4,2-1.9c0.9-0.5,1.8-0.7,2.9-0.7c1,0,1.9,0.2,2.8,0.6c0.8,0.4,1.5,1,2,1.8s0.7,1.7,0.7,2.8
				C737.5,405.9,737.5,406.2,737.5,406.8z M730.7,403.6c-0.4,0.3-0.6,0.7-0.7,1.3h4.2c-0.1-0.5-0.3-1-0.7-1.3
				c-0.4-0.3-0.8-0.5-1.4-0.5C731.5,403.1,731,403.3,730.7,403.6z"/>
			<path class="st0" d="M748.1,401.2c0.8,0.4,1.4,1,1.8,1.8c0.4,0.8,0.7,1.7,0.7,2.8c0,1.1-0.2,2-0.7,2.8s-1,1.4-1.8,1.8
				c-0.8,0.4-1.6,0.7-2.5,0.7c-1.2,0-2.1-0.4-2.8-1.1v4.6h-3.6v-13.9h3.4v1c0.7-0.8,1.7-1.2,3-1.2
				C746.5,400.6,747.4,400.8,748.1,401.2z M746.4,407.6c0.4-0.4,0.6-1,0.6-1.8c0-0.8-0.2-1.3-0.6-1.8c-0.4-0.4-0.9-0.7-1.5-0.7
				c-0.6,0-1.1,0.2-1.5,0.7c-0.4,0.4-0.6,1-0.6,1.8c0,0.8,0.2,1.3,0.6,1.8c0.4,0.4,0.9,0.7,1.5,0.7
				C745.5,408.3,746,408.1,746.4,407.6z"/>
			<path class="st0" d="M754.4,410.4c-0.9-0.5-1.6-1.1-2.1-1.9c-0.5-0.8-0.7-1.7-0.7-2.7c0-1,0.2-1.9,0.7-2.7
				c0.5-0.8,1.2-1.4,2.1-1.9c0.9-0.4,1.9-0.7,3-0.7s2.1,0.2,3,0.7c0.9,0.4,1.6,1.1,2.1,1.9c0.5,0.8,0.7,1.7,0.7,2.7
				c0,1-0.2,1.9-0.7,2.7c-0.5,0.8-1.2,1.4-2.1,1.9c-0.9,0.5-1.9,0.7-3,0.7C756.3,411.1,755.3,410.9,754.4,410.4z M758.9,407.6
				c0.4-0.4,0.6-1,0.6-1.8c0-0.8-0.2-1.3-0.6-1.8s-0.9-0.6-1.5-0.6s-1.1,0.2-1.5,0.6c-0.4,0.4-0.6,1-0.6,1.8c0,0.8,0.2,1.4,0.6,1.8
				c0.4,0.4,0.9,0.7,1.5,0.7S758.5,408.1,758.9,407.6z"/>
			<path class="st0" d="M766,410.8c-0.8-0.2-1.5-0.4-2-0.8l1.1-2.4c0.5,0.3,1,0.5,1.7,0.7c0.6,0.2,1.3,0.3,1.9,0.3
				c0.6,0,1-0.1,1.2-0.2c0.2-0.1,0.4-0.3,0.4-0.5c0-0.2-0.1-0.4-0.4-0.5c-0.3-0.1-0.8-0.2-1.4-0.3c-0.8-0.1-1.5-0.2-2.1-0.4
				c-0.6-0.2-1.1-0.5-1.5-0.9c-0.4-0.4-0.6-1.1-0.6-1.8c0-0.7,0.2-1.2,0.6-1.7c0.4-0.5,1-0.9,1.7-1.2c0.7-0.3,1.6-0.4,2.7-0.4
				c0.7,0,1.5,0.1,2.2,0.2c0.7,0.2,1.3,0.4,1.8,0.6l-1.1,2.4c-0.9-0.5-1.9-0.8-2.9-0.8c-0.6,0-1,0.1-1.2,0.2
				c-0.3,0.1-0.4,0.3-0.4,0.5c0,0.2,0.1,0.4,0.4,0.5c0.3,0.1,0.8,0.2,1.4,0.3c0.8,0.1,1.5,0.3,2.1,0.4c0.6,0.2,1,0.5,1.4,0.9
				c0.4,0.4,0.6,1,0.6,1.8c0,0.6-0.2,1.2-0.6,1.7c-0.4,0.5-1,0.9-1.7,1.2c-0.8,0.3-1.7,0.4-2.7,0.4C767.7,411.1,766.8,411,766,410.8
				z"/>
			<path class="st0" d="M775.3,399.1c-0.4-0.4-0.6-0.8-0.6-1.4c0-0.5,0.2-1,0.6-1.4c0.4-0.4,0.9-0.5,1.6-0.5c0.7,0,1.2,0.2,1.6,0.5
				c0.4,0.3,0.6,0.8,0.6,1.3c0,0.6-0.2,1-0.6,1.4c-0.4,0.4-0.9,0.6-1.6,0.6C776.3,399.6,775.7,399.4,775.3,399.1z M775.1,400.7h3.6
				V411h-3.6V400.7z"/>
			<path class="st0" d="M788.1,410.5c-0.3,0.2-0.7,0.3-1.1,0.4c-0.4,0.1-0.9,0.2-1.4,0.2c-1.3,0-2.4-0.3-3.1-1
				c-0.7-0.7-1.1-1.6-1.1-2.9v-3.4h-1.5v-2.7h1.5v-2.7h3.6v2.7h2.3v2.7H785v3.4c0,0.4,0.1,0.7,0.3,0.9c0.2,0.2,0.5,0.3,0.8,0.3
				c0.4,0,0.8-0.1,1.1-0.3L788.1,410.5z"/>
		</g>
	</g>
	<g>
		<g>
			<g>
				<linearGradient id="SVGID_1_" gradientUnits="userSpaceOnUse" x1="112.176" y1="195.563" x2="237.3855" y2="195.563">
					<stop  offset="0" style="stop-color:#9C6CFF"/>
					<stop  offset="1" style="stop-color:#8A2BE2"/>
				</linearGradient>
				<path class="st1" d="M234.8,210.4c-0.6,0-1.5,0.2-1.9-0.3c-15.1-16.6-35.8-25.2-58.2-25.2c-22.4,0-43,8.5-58.1,25.1
					c-0.8,0.9-1.8,0.9-2.7,0c-0.9-0.8-2.3-1.1-1.5-2c15.9-17.5,38.7-27.5,62.3-27.5c23.6,0,46.3,10,62.3,27.5c0.8,0.9,0.2,1-0.7,1.8
					C235.9,210.2,235.4,210.4,234.8,210.4z"/>
				
					<linearGradient id="SVGID_00000096758541629834973170000001040971625431593635_" gradientUnits="userSpaceOnUse" x1="769.1544" y1="195.702" x2="831.7265" y2="195.702">
					<stop  offset="0" style="stop-color:#9C6CFF"/>
					<stop  offset="1" style="stop-color:#8A2BE2"/>
				</linearGradient>
				<path style="fill:url(#SVGID_00000096758541629834973170000001040971625431593635_);" d="M831.7,184.9c-22.4,0-43.5,9-58.6,25.6
					c-0.8,0.9-1.6,0.3-2.5-0.5c-0.9-0.8-2.1-1.1-1.3-2c15.9-17.5,38.7-27.5,62.3-27.5V184.9z"/>
				
					<linearGradient id="SVGID_00000103236768586338053550000010856304114755052195_" gradientUnits="userSpaceOnUse" x1="440.3741" y1="195.5482" x2="565.5598" y2="195.5482">
					<stop  offset="0" style="stop-color:#9C6CFF"/>
					<stop  offset="1" style="stop-color:#8A2BE2"/>
				</linearGradient>
				<path style="fill:url(#SVGID_00000103236768586338053550000010856304114755052195_);" d="M443.1,210.3c-0.5,0-1.1-0.2-1.5-0.6
					c-0.9-0.8-1.7-0.8-0.9-1.7c15.9-17.5,38.6-27.5,62.3-27.5c23.6,0,46.4,10,62.3,27.5c0.8,0.9-0.5,1-1.4,1.8
					c-0.9,0.8-1.9,1.1-2.7,0.2c-15.1-16.6-35.8-25.2-58.2-25.2c-22.4,0-43.1,8.6-58.2,25.2C444.3,210.6,443.7,210.3,443.1,210.3z"/>
			</g>
			<g>
				<path class="st0" d="M338.9,349c-23.6,0-46.3-10-62.3-27.5c-0.8-0.9,0.4-0.8,1.3-1.6c0.9-0.8,2-1.3,2.8-0.4
					c15.1,16.6,35.8,25.1,58.2,25.1c22.4,0,43.2-8.7,58.3-25.3c0.8-0.9,1.6-0.5,2.5,0.3c0.9,0.8,2.3,0.9,1.5,1.8
					C385.2,339,362.5,349,338.9,349z"/>
				<path class="st0" d="M667.1,349c-23.7,0-46.4-10-62.3-27.5c-0.8-0.9,0.5-1.3,1.4-2.2c0.9-0.8,1.8-0.8,2.7,0.1
					c15.1,16.6,35.8,25.2,58.2,25.2c22.4,0,43.3-8.8,58.4-25.4c0.8-0.9,1.3-0.3,2.1,0.5c0.9,0.8,2.6,0.8,1.7,1.7
					C713.5,339,690.8,349,667.1,349z"/>
				<g>
					<path class="st0" d="M10.2,349c23.6,0,46.3-10,62.3-27.5c0.8-0.9,0-1.3-0.9-2.1c-0.9-0.8-2-1.2-2.8-0.3
						c-15.1,16.6-36.1,25.6-58.6,25.6V349z"/>
				</g>
			</g>
			<g>
				
					<linearGradient id="SVGID_00000132069292548176745660000007625668834850972820_" gradientUnits="userSpaceOnUse" x1="40.1098" y1="233.2412" x2="145.1715" y2="296.2784">
					<stop  offset="0" style="stop-color:#9C6CFF"/>
					<stop  offset="1" style="stop-color:#8A2BE2"/>
				</linearGradient>
				
					<ellipse transform="matrix(0.7071 -0.7071 0.7071 0.7071 -160.0796 143.0532)" style="fill:none;stroke:url(#SVGID_00000132069292548176745660000007625668834850972820_);stroke-width:4;stroke-linecap:round;stroke-linejoin:round;stroke-miterlimit:10;" cx="92.6" cy="264.8" rx="59.3" ry="59.3"/>
				
					<linearGradient id="SVGID_00000044148334983249762440000013180590904286301360_" gradientUnits="userSpaceOnUse" x1="204.2548" y1="233.2412" x2="309.3164" y2="296.2784">
					<stop  offset="0" style="stop-color:#9C6CFF"/>
					<stop  offset="1" style="stop-color:#8A2BE2"/>
				</linearGradient>
				
					<ellipse transform="matrix(0.7071 -0.7071 0.7071 0.7071 -112.0027 259.1212)" style="fill:none;stroke:url(#SVGID_00000044148334983249762440000013180590904286301360_);stroke-width:4;stroke-linecap:round;stroke-linejoin:round;stroke-miterlimit:10;" cx="256.8" cy="264.8" rx="59.3" ry="59.3"/>
				
					<linearGradient id="SVGID_00000030469789648144242480000007844751185614132617_" gradientUnits="userSpaceOnUse" x1="368.3997" y1="233.2413" x2="473.4614" y2="296.2784">
					<stop  offset="0" style="stop-color:#9C6CFF"/>
					<stop  offset="1" style="stop-color:#8A2BE2"/>
				</linearGradient>
				
					<ellipse transform="matrix(0.2245 -0.9745 0.9745 0.2245 68.4143 615.4912)" style="fill:none;stroke:url(#SVGID_00000030469789648144242480000007844751185614132617_);stroke-width:4;stroke-linecap:round;stroke-linejoin:round;stroke-miterlimit:10;" cx="420.9" cy="264.8" rx="59.3" ry="59.3"/>
				
					<linearGradient id="SVGID_00000103966953344303078530000011020702759795161274_" gradientUnits="userSpaceOnUse" x1="532.5446" y1="233.2413" x2="637.6063" y2="296.2784">
					<stop  offset="0" style="stop-color:#9C6CFF"/>
					<stop  offset="1" style="stop-color:#8A2BE2"/>
				</linearGradient>
				
					<ellipse transform="matrix(0.2245 -0.9745 0.9745 0.2245 195.7014 775.4445)" style="fill:none;stroke:url(#SVGID_00000103966953344303078530000011020702759795161274_);stroke-width:4;stroke-linecap:round;stroke-linejoin:round;stroke-miterlimit:10;" cx="585.1" cy="264.8" rx="59.3" ry="59.3"/>
				
					<linearGradient id="SVGID_00000124124734686057753250000001931031060001965207_" gradientUnits="userSpaceOnUse" x1="696.6895" y1="233.2413" x2="801.7512" y2="296.2784">
					<stop  offset="0" style="stop-color:#9C6CFF"/>
					<stop  offset="1" style="stop-color:#8A2BE2"/>
				</linearGradient>
				
					<ellipse transform="matrix(0.1575 -0.9875 0.9875 0.1575 369.7433 962.9188)" style="fill:none;stroke:url(#SVGID_00000124124734686057753250000001931031060001965207_);stroke-width:4;stroke-linecap:round;stroke-linejoin:round;stroke-miterlimit:10;" cx="749.2" cy="264.8" rx="59.3" ry="59.3"/>
			</g>
		</g>
		<g>
			<g>
				<path class="st9" d="M132,209.5c10.6-11.6,25.8-16.8,42.7-16.8c16.9,0,32.2,5.2,42.7,16.8"/>
				
					<linearGradient id="SVGID_00000044877494038196310000000000214747696018984867_" gradientUnits="userSpaceOnUse" x1="129.8164" y1="209.4928" x2="134.1349" y2="209.4928">
					<stop  offset="0" style="stop-color:#9C6CFF"/>
					<stop  offset="1" style="stop-color:#8A2BE2"/>
				</linearGradient>
				<path style="fill:url(#SVGID_00000044877494038196310000000000214747696018984867_);" d="M129.8,209.5c0-1.2,1-2.2,2.2-2.2
					c1.2,0,2.2,1,2.2,2.2c0,1.2-1,2.2-2.2,2.2C130.8,211.7,129.8,210.7,129.8,209.5z"/>
				<path class="st11" d="M214.1,210.5c-0.2,0-0.4-0.2-0.4-0.5c0-0.3,0.2-0.6,0.5-0.6l3-0.3l-0.3-3c0-0.3,0.2-0.6,0.5-0.6
					c0.3,0,0.6,0.2,0.6,0.5l0.3,3.5c0,0.1,0,0.3-0.1,0.4c-0.1,0.1-0.2,0.2-0.4,0.2l-3.5,0.3C214.2,210.5,214.2,210.5,214.1,210.5z"
					/>
			</g>
			<g>
				<path class="st9" d="M460.3,209.5c10.6-11.6,25.8-16.8,42.7-16.8c16.9,0,32.2,5.2,42.7,16.8"/>
				
					<linearGradient id="SVGID_00000014626733413368947350000016337054722414729401_" gradientUnits="userSpaceOnUse" x1="458.111" y1="209.4928" x2="462.4295" y2="209.4928">
					<stop  offset="0" style="stop-color:#9C6CFF"/>
					<stop  offset="1" style="stop-color:#8A2BE2"/>
				</linearGradient>
				<path style="fill:url(#SVGID_00000014626733413368947350000016337054722414729401_);" d="M458.1,209.5c0-1.2,1-2.2,2.2-2.2
					c1.2,0,2.2,1,2.2,2.2c0,1.2-1,2.2-2.2,2.2C459.1,211.7,458.1,210.7,458.1,209.5z"/>
				<path class="st11" d="M542.4,210.5c-0.2,0-0.4-0.2-0.4-0.5c0-0.3,0.2-0.6,0.5-0.6l3-0.3l-0.3-3c0-0.3,0.2-0.6,0.5-0.6
					c0.3,0,0.6,0.2,0.6,0.5l0.3,3.5c0,0.1,0,0.3-0.1,0.4c-0.1,0.1-0.2,0.2-0.4,0.2l-3.5,0.3C542.5,210.5,542.4,210.5,542.4,210.5z"
					/>
			</g>
			<g>
				<path class="st9" d="M625.6,319.3c10.6,11.6,25.8,16.8,42.7,16.8c16.9,0,32.2-5.2,42.7-16.8"/>
				
					<linearGradient id="SVGID_00000034064567569956749540000004332884672777544606_" gradientUnits="userSpaceOnUse" x1="623.4641" y1="319.3489" x2="627.7825" y2="319.3489">
					<stop  offset="0" style="stop-color:#9C6CFF"/>
					<stop  offset="1" style="stop-color:#8A2BE2"/>
				</linearGradient>
				<path style="fill:url(#SVGID_00000034064567569956749540000004332884672777544606_);" d="M623.5,319.3c0,1.2,1,2.2,2.2,2.2
					c1.2,0,2.2-1,2.2-2.2c0-1.2-1-2.2-2.2-2.2C624.4,317.2,623.5,318.2,623.5,319.3z"/>
				<path class="st11" d="M707.9,318.2c-0.2,0-0.4,0.2-0.4,0.5c0,0.3,0.2,0.6,0.5,0.6l3,0.3l-0.3,3c0,0.3,0.2,0.6,0.5,0.6
					c0.3,0,0.6-0.2,0.6-0.5l0.3-3.5c0-0.1,0-0.3-0.1-0.4c-0.1-0.1-0.2-0.2-0.4-0.2l-3.5-0.3C708,318.2,707.9,318.2,707.9,318.2z"/>
			</g>
			<g>
				<path class="st9" d="M297.4,319.3c10.6,11.6,25.8,16.8,42.7,16.8c16.9,0,32.2-5.2,42.7-16.8"/>
				
					<linearGradient id="SVGID_00000039129030784070982980000004168051851953269934_" gradientUnits="userSpaceOnUse" x1="295.2003" y1="319.3489" x2="299.5189" y2="319.3489">
					<stop  offset="0" style="stop-color:#9C6CFF"/>
					<stop  offset="1" style="stop-color:#8A2BE2"/>
				</linearGradient>
				<circle style="fill:url(#SVGID_00000039129030784070982980000004168051851953269934_);" cx="297.4" cy="319.3" r="2.2"/>
				<path class="st11" d="M379.6,318.2c-0.2,0-0.4,0.2-0.4,0.5c0,0.3,0.2,0.6,0.5,0.6l3,0.3l-0.3,3c0,0.3,0.2,0.6,0.5,0.6
					c0.3,0,0.6-0.2,0.6-0.5l0.3-3.5c0-0.1,0-0.3-0.1-0.4c-0.1-0.1-0.2-0.2-0.4-0.2l-3.5-0.3C379.7,318.2,379.6,318.2,379.6,318.2z"
					/>
			</g>
		</g>
		<path class="st0" d="M106.9,281.7c-0.2-0.6-0.7-1-1.3-1H94.3c-0.9,0-1.7-0.4-2.2-1.1l-2.1-2.9c-0.2-0.2-0.4-0.3-0.6-0.3H70
			c-0.4,0-0.8,0.2-1,0.5c-0.2,0.3-0.3,0.7-0.2,1.1l4.6,19.5c0.2,0.6,0.7,1,1.3,1h34.5c0.4,0,0.8-0.2,1-0.5c0.2-0.3,0.3-0.7,0.2-1.1
			L106.9,281.7z M108.7,270.4h-7.3c-0.2,1.2-1.3,2.1-2.6,2.1H76.5c-1.4,0-2.6-1.2-2.6-2.6v-3.3h-1.7c-1.2,0-2.2,1-2.2,2.2v5.8h19.2
			c0.9,0,1.7,0.4,2.2,1.1l2.1,2.9c0.2,0.2,0.4,0.3,0.6,0.3h11.3c1.5,0,2.8,1,3.1,2.5l1.8,7.7v-16.8
			C110.5,271.1,109.7,270.4,108.7,270.4L108.7,270.4z M76.5,270.5h22.3c0.4,0,0.7-0.3,0.7-0.7v-3H88c-1.3,0-2.3-0.9-2.6-2.1h-4.4
			c-0.5,0-1-0.4-1-1c0-0.5,0.4-1,1-1h4.3v-3.6h-4.3c-0.5,0-1-0.4-1-1c0-0.6,0.4-1,1-1h4.3v-3.6h-4.3c-0.5,0-1-0.4-1-1
			c0-0.6,0.4-1,1-1h4.3v-3.6h-4.3c-0.5,0-1-0.4-1-1s0.4-1,1-1h4.3v-8.6h-8.9c-0.4,0-0.7,0.3-0.7,0.7v31.4
			C75.7,270.2,76.1,270.5,76.5,270.5L76.5,270.5z M105.3,233.2v4.5h4.5L105.3,233.2z M104.4,239.5c-0.5,0-1-0.4-1-1V232H88
			c-0.4,0-0.7,0.3-0.7,0.7v31.4c0,0.4,0.3,0.7,0.7,0.7h22.3c0.4,0,0.7-0.3,0.7-0.7v-24.7L104.4,239.5z M105.8,259H92.6
			c-0.5,0-1-0.4-1-1c0-0.6,0.4-1,1-1h13.2c0.5,0,1,0.4,1,1C106.7,258.6,106.3,259,105.8,259z M105.8,253.6H92.6c-0.5,0-1-0.4-1-1
			c0-0.6,0.4-1,1-1h13.2c0.5,0,1,0.4,1,1C106.7,253.2,106.3,253.6,105.8,253.6z M105.8,248.2H92.6c-0.5,0-1-0.4-1-1c0-0.6,0.4-1,1-1
			h13.2c0.5,0,1,0.4,1,1C106.7,247.8,106.3,248.2,105.8,248.2z M105.8,242.7H92.6c-0.5,0-1-0.4-1-1c0-0.6,0.4-1,1-1h13.2
			c0.5,0,1,0.4,1,1C106.7,242.3,106.3,242.7,105.8,242.7z"/>
		<g>
			<path class="st15" d="M281.6,268.2h-17.8c-0.5,0-0.9,0.4-0.9,0.9v23.7c0,0.5,0.4,0.9,0.9,0.9h17.8c0.5,0,0.9-0.4,0.9-0.9v-23.7
				C282.4,268.6,282.1,268.2,281.6,268.2z M278.8,272.6v4.3h-12.2v-4.3H278.8z M265.7,270.8h14c0.5,0,0.9,0.4,0.9,0.9v6
				c0,0.5-0.4,0.9-0.9,0.9h-14c-0.5,0-0.9-0.4-0.9-0.9v-6C264.8,271.2,265.2,270.8,265.7,270.8z M267,282.8H266V281h3.2v1.9H267z
				 M277,282.8h-0.9V281h3.2v1.9H277z M272,282.8h-0.9V281h3.2v1.9H272z M267,287.2H266v-1.9h3.2v1.9H267z M277,287.2h-0.9v-1.9h3.2
				v1.9H277z M272,287.2h-0.9v-1.9h3.2v1.9H272z M267,291.5H266v-1.9h3.2v1.9H267z M277,291.5h-0.9v-1.9h3.2v1.9H277z M272,291.5
				h-0.9v-1.9h3.2v1.9H272z M255.3,280.6c-3-3-7.8-3-10.8,0c-0.3,0.4-0.6,0.8-0.9,1.2l0,0l0,0l0,0c-2.3,3.5-1.5,8.3,2.1,10.6
				c3.5,2.3,8.3,1.5,10.6-2.1C258.3,287.2,257.9,283.2,255.3,280.6z M240.7,284.2c0.2-0.7,0.4-1.4,0.6-2h-11.7h-0.1c0,0,0,0,0,0.1
				v1.9c0,0.1,0,0.1,0.1,0.1H240.7L240.7,284.2z M240.7,288c-0.2-0.6-0.2-1.3-0.2-2l0,0h-9.3c0,0,0,0-0.1,0c0,0,0,0,0,0.1v1.9
				c0,0,0,0,0,0.1c0,0,0,0,0.1,0H240.7z M242.4,291.9h-12.8c-0.1,0-0.1,0-0.1-0.1V290c0-0.1,0-0.1,0.1-0.1h11.7
				C241.6,290.6,242,291.3,242.4,291.9L242.4,291.9z M250.8,291.5c0,0.5-0.4,0.9-0.9,0.9c-0.5,0-0.9-0.4-0.9-0.9c0,0,0,0,0-0.1v-0.3
				c-1.3-0.4-2.2-1.6-2.2-2.9c0-0.5,0.5-0.9,0.9-0.9s0.9,0.4,0.9,0.9c0,0.6,0.5,1.2,1.2,1.2c0.1,0,0.2,0,0.2,0
				c0.6-0.1,1.2-0.6,1.2-1.2c0-0.3-0.2-0.5-0.3-0.8c-0.3-0.2-0.6-0.5-1-0.5h-0.1c-0.8-0.1-1.5-0.5-2.1-1c-0.5-0.5-0.9-1.3-0.9-2.1
				c0-1.4,0.9-2.6,2.2-2.9v-0.3c0-0.5,0.4-0.9,0.9-0.9s0.9,0.4,0.9,0.9c0,0,0,0,0,0.1v0.3c1.3,0.4,2.2,1.6,2.2,2.9
				c0,0.5-0.5,0.9-0.9,0.9s-0.9-0.4-0.9-0.9c0-0.6-0.5-1.2-1.2-1.2c-0.1,0-0.2,0-0.2,0c-0.6,0.1-1.2,0.6-1.2,1.2
				c0,0.3,0.1,0.5,0.3,0.8c0.3,0.3,0.7,0.5,1.1,0.5l0,0c0.8,0.1,1.5,0.5,2,1c0.5,0.5,0.9,1.3,0.9,2.1c0,1.4-0.9,2.6-2.2,2.9
				L250.8,291.5L250.8,291.5z M234.4,276.1C234.4,276.1,234.5,276.1,234.4,276.1l12.5-5.3l0,0v-0.1l-0.7-1.7c0,0,0,0-0.1-0.1l0,0
				h-0.1l-11,4.6c0,0-0.1,0-0.1,0.1l-3,1.2c0,0,0,0-0.1,0v0.1l0.7,1.7c0,0,0,0,0,0.1h0.1L234.4,276.1L234.4,276.1z M243.6,236.7
				h31.2c0.5,0,0.9,0.4,0.9,0.9v28.8h-11.8c-1.5,0-2.7,1.2-2.7,2.7v20.4h-2.4c1.9-4.9-0.5-10.4-5.3-12.3c-3.9-1.5-8.5-0.3-11.1,3.1
				h-6.7v-2.8l11.9-5c0.9-0.4,1.4-1.4,1.1-2.3l0,0l-0.8-1.9c-0.2-0.5-0.5-0.9-1-1l0,0c-0.5-0.2-1-0.2-1.5,0l-9.7,4.1v-26.8h5.2
				c1.5,0,2.6-1.2,2.6-2.6C243.6,241.9,243.6,236.7,243.6,236.7z M237,242.8h3.9c0.5,0,0.9-0.4,0.9-0.9v-3.9L237,242.8z
				 M244.5,257.2h10.4c0.5,0,0.9-0.4,0.9-0.9c0-0.5-0.4-0.9-0.9-0.9l0,0h-10.4c-0.5,0-0.9,0.4-0.9,0.9
				C243.6,256.8,244.1,257.2,244.5,257.2L244.5,257.2L244.5,257.2z M244.5,261.2h14.5c0.5,0,0.9-0.4,0.9-0.9s-0.4-0.9-0.9-0.9
				c0,0,0,0-0.1,0h-14.5c-0.5,0-0.9,0.4-0.9,0.9S244,261.2,244.5,261.2L244.5,261.2L244.5,261.2z M244.5,265.2h14.5
				c0.5,0,0.9-0.4,0.9-0.9c0-0.5-0.4-0.9-0.9-0.9c0,0,0,0-0.1,0h-14.5c-0.5,0-0.9,0.4-0.9,0.9C243.6,264.8,244,265.2,244.5,265.2
				L244.5,265.2L244.5,265.2z M240.3,257.2h0.4c0.5,0,0.9-0.4,0.9-0.9c0-0.5-0.4-0.9-0.9-0.9l0,0h-0.4c-0.5,0-0.9,0.4-0.9,0.9
				C239.4,256.8,239.8,257.2,240.3,257.2L240.3,257.2z M240.3,261.2h0.4c0.5,0,0.9-0.4,0.9-0.9s-0.4-0.9-0.9-0.9c0,0,0,0-0.1,0h-0.4
				c-0.5,0-0.9,0.4-0.9,0.9C239.4,260.7,239.7,261.2,240.3,261.2L240.3,261.2z M240.3,265.2h0.4c0.5,0,0.9-0.4,0.9-0.9
				c0-0.5-0.4-0.9-0.9-0.9c0,0,0,0-0.1,0h-0.4c-0.5,0-0.9,0.4-0.9,0.9C239.4,264.7,239.7,265.2,240.3,265.2L240.3,265.2z
				 M263.3,240.1c-4.5,0-8.1,3.6-8.1,8.1c0,4.5,3.6,8,8.1,8s8.1-3.6,8.1-8c0-2.2-0.9-4.2-2.4-5.7
				C267.6,240.9,265.5,240.1,263.3,240.1z M269.5,249.1h-6.2c-0.5,0-0.9-0.4-0.9-0.9l0,0V242c-3.4,0.5-5.8,3.7-5.3,7.1
				c0.5,3.4,3.7,5.8,7.1,5.3C267,254,269.1,251.8,269.5,249.1z M264.3,242v5.3h5.3C269.1,244.6,267,242.4,264.3,242z"/>
		</g>
		<path class="st15" d="M589.4,249.5c-2.3-2.3-6-2.3-8.2,0s-2.3,6,0,8.2c2.3,2.3,6,2.3,8.2,0c0,0,0,0,0,0
			C591.6,255.4,591.6,251.8,589.4,249.5z M588,251.7c0,0.5-0.4,0.9-0.9,0.9c-0.5,0-0.9-0.4-0.9-0.9c0,0,0,0,0,0
			c0-0.5-0.4-0.9-0.9-0.9c-0.5,0-0.9,0.4-0.9,0.9s0.4,0.9,0.9,0.9l0,0c1.5,0,2.8,1.2,2.8,2.8c0,0.7-0.3,1.4-0.8,1.9
			c-0.3,0.3-0.6,0.5-1,0.6v0.5c0,0.5-0.4,0.9-0.9,0.9c-0.5,0-0.9-0.4-0.9-0.9c0,0,0,0,0,0v-0.5c-1.1-0.4-1.8-1.4-1.8-2.6
			c0-0.5,0.4-0.9,0.9-0.9c0.5,0,0.9,0.4,0.9,0.9c0,0,0,0,0,0c0,0.5,0.4,0.9,0.8,0.9c0.5,0,0.9-0.4,0.9-0.8c0-0.5-0.4-0.9-0.8-0.9
			c0,0,0,0,0,0c-1.5,0-2.8-1.2-2.8-2.7c0-1.2,0.7-2.2,1.9-2.6v-0.3c0-0.5,0.4-0.9,0.9-0.9c0.5,0,0.9,0.4,0.9,0.9c0,0,0,0,0,0v0.3
			C587.3,249.5,588,250.6,588,251.7z M566.1,242.7v21.8h38.3v-21.8H566.1z M569.8,257.4c1.6,0.4,2.9,1.6,3.2,3.2h3.8
			c0.5,0,0.9,0.4,0.9,0.9c0,0.5-0.4,0.9-0.9,0.9h-4.6c-0.5,0-0.9-0.4-0.9-0.9c0-1.3-1.1-2.4-2.4-2.4c0,0,0,0,0,0
			c-0.5,0-0.9-0.4-0.9-0.9V249c0-0.5,0.4-0.9,0.9-0.9c1.3,0,2.4-1.1,2.4-2.4c0,0,0,0,0,0c0-0.5,0.4-0.9,0.9-0.9h3.9
			c0.5,0,0.9,0.5,0.9,1c0,0.5-0.4,0.8-0.9,0.9H573c-0.4,1.6-1.6,2.8-3.2,3.2C569.8,249.8,569.8,257.4,569.8,257.4z M597.5,260.6
			c0.4-1.6,1.6-2.9,3.2-3.2v-7.6c-1.6-0.4-2.8-1.6-3.2-3.2h-3.2c-0.5,0-0.9-0.5-0.9-1c0-0.5,0.4-0.8,0.9-0.9h4
			c0.5,0,0.9,0.4,0.9,0.9c0,0,0,0,0,0c0,1.3,1.1,2.4,2.4,2.4c0,0,0,0,0,0c0.5,0,0.9,0.4,0.9,0.9c0,0,0,0,0,0v9.2
			c0,0.5-0.4,0.9-0.9,0.9c0,0,0,0,0,0c-1.3,0-2.4,1.1-2.4,2.4c0,0,0,0,0,0c0,0.5-0.4,0.9-0.9,0.9l0,0h-4.7c-0.5,0-0.9-0.4-0.9-0.9
			s0.4-0.9,0.9-0.9c0,0,0,0,0,0L597.5,260.6z M585.3,245.9c4.3,0,7.7,3.5,7.7,7.7s-3.5,7.7-7.7,7.7c-4.3,0-7.7-3.5-7.7-7.7
			c0,0,0,0,0,0C577.5,249.3,581,245.9,585.3,245.9C585.3,245.9,585.3,245.9,585.3,245.9L585.3,245.9z M601.4,291.1h-31.9
			c-0.5,0-0.9,0.4-0.9,0.9c0,0,0,0,0,0v3.7h33.7v-3.7C602.3,291.5,601.9,291.1,601.4,291.1C601.4,291.1,601.4,291.1,601.4,291.1z
			 M618.8,274.7h-66.8v4.2h66.8V274.7z M555.2,277.7c-0.5,0-0.9-0.4-0.9-0.9s0.4-0.9,0.9-0.9c0,0,0,0,0,0h1.8c0.5,0,0.9,0.4,0.9,0.9
			c0,0.5-0.4,0.9-0.9,0.9H555.2z M560.3,277.7c-0.5,0-0.9-0.4-0.9-0.9c0-0.5,0.4-0.9,0.9-0.9c0,0,0,0,0,0h1.8c0.5,0,0.9,0.4,0.9,0.9
			c0,0.5-0.4,0.9-0.9,0.9c0,0,0,0,0,0H560.3z M565.4,277.7c-0.5,0-0.9-0.4-0.9-0.9c0-0.5,0.4-0.9,0.9-0.9c0,0,0,0,0,0h1.8
			c0.5,0,0.9,0.4,0.9,0.9c0,0.5-0.4,0.9-0.9,0.9H565.4z M552.1,272.9h66.8v-38.1h-66.8V272.9z M564.2,265.5v-23.7
			c0-0.5,0.4-0.9,0.9-0.9h40.2c0.5,0,0.9,0.4,0.9,0.9c0,0,0,0,0,0v23.7c0,0.5-0.4,0.9-0.9,0.9c0,0,0,0,0,0h-40.2
			C564.7,266.4,564.2,266,564.2,265.5L564.2,265.5z M611.8,248.4c0-0.5,0.5-0.9,1-0.9c0.5,0,0.8,0.4,0.9,0.9v6
			c0.3-0.4,0.9-0.5,1.3-0.1c0.3,0.2,0.4,0.6,0.3,1l-1.7,4.4c-0.2,0.5-0.7,0.8-1.2,0.6c-0.4-0.1-0.6-0.5-0.6-0.9V248.4z M611.2,259.4
			c0,0.5-0.3,1-0.9,1s-1-0.3-1-0.9c0-0.1,0-0.1,0-0.2v-6.1c-0.3,0.4-0.9,0.5-1.3,0.1c-0.3-0.2-0.4-0.6-0.3-1l1.7-4.4
			c0.2-0.5,0.7-0.8,1.2-0.6c0.4,0.1,0.7,0.5,0.7,0.9L611.2,259.4z M582.3,280.9h6.2v8.3h-6.2V280.9z"/>
		<path class="st0" d="M416.6,276.9H398c-0.6,0-1.2-0.5-1.2-1.2s0.5-1.2,1.2-1.2h18.1c-0.1-0.6-0.1-1.2-0.1-1.8c0-1.8,0.3-3.5,1-5.2
			h-19c-0.6,0-1.2-0.5-1.2-1.2s0.5-1.2,1.2-1.2h20.1c2.4-3.9,6.4-6.4,10.9-6.9v-23.4h-22.8l-14,14v36.8h32
			C420.5,284,417.7,280.8,416.6,276.9L416.6,276.9z M398,246.6h24.9c0.6,0,1.2,0.5,1.2,1.2c0,0.6-0.5,1.2-1.2,1.2H398
			c-0.6,0-1.2-0.5-1.2-1.2C396.8,247.2,397.3,246.6,398,246.6z M398,255.9h24.9c0.6,0,1.2,0.5,1.2,1.2s-0.5,1.2-1.2,1.2H398
			c-0.6,0-1.2-0.5-1.2-1.2S397.3,255.9,398,255.9z"/>
		<path class="st0" d="M452.6,292.4l-11.1-11.1l-0.4,0.5c-0.5,0.6-1.1,1.2-1.7,1.7l-0.5,0.4l11.1,11.1h0c0.3,0.3,0.8,0.5,1.3,0.5
			c0.5,0,0.9-0.2,1.3-0.5l0,0h0C453.3,294.2,453.3,293.1,452.6,292.4L452.6,292.4z"/>
		<path class="st0" d="M440.4,279.8c0.2-0.3,0.4-0.6,0.6-0.9l0.1-0.1c2-3.4,2.1-7.6,0.4-11.2c-1.7-3.6-5-6.1-8.9-6.8
			c-3.9-0.7-7.9,0.6-10.7,3.4c-2.8,2.8-4.1,6.8-3.4,10.7c0.7,3.9,3.2,7.2,6.8,8.9c3.6,1.7,7.7,1.5,11.2-0.4l0.1-0.1
			c0.3-0.2,0.6-0.4,0.9-0.6C438.6,281.9,439.6,280.9,440.4,279.8L440.4,279.8z M436.2,270l-7.2,7.2c-0.2,0.2-0.5,0.3-0.8,0.3
			c-0.3,0-0.6-0.1-0.8-0.3l-2.7-2.6c-0.5-0.5-0.5-1.2,0-1.7s1.2-0.5,1.7,0l1.8,1.8l6.4-6.4c0.2-0.2,0.5-0.3,0.8-0.3
			c0.3,0,0.6,0.1,0.8,0.3C436.6,268.8,436.6,269.6,436.2,270L436.2,270z"/>
		<path class="st15" d="M729.8,276.1H751v-2.8c0-0.8-0.7-1.5-1.5-1.5h-18.2c-0.8,0-1.5,0.7-1.5,1.5L729.8,276.1L729.8,276.1z
			 M734.2,284.7v-6.4h-4.3v4.9c0,0.8,0.7,1.5,1.5,1.5H734.2z M736.3,278.2v6.4h13.2c0.8,0,1.5-0.7,1.5-1.5v-4.9L736.3,278.2z
			 M743.9,258.9h1.9c0.4,0,0.8,0.2,1,0.6c0.2,0.4,0.1,0.8-0.1,1.1l-5.4,6.7v0c-0.2,0.3-0.5,0.4-0.8,0.4c-0.3,0-0.6-0.1-0.8-0.4
			l-5.4-6.7c-0.3-0.3-0.4-0.8-0.2-1.2c0.2-0.4,0.6-0.6,1-0.6h1.9v-7c0-0.6,0.5-1.1,1.1-1.1h4.8h0c0.6,0,1.1,0.5,1.1,1.1V258.9z
			 M738,261h-0.8l3.2,3.9l3.2-3.9h-0.8c-0.6,0-1.1-0.5-1.1-1.1v-7h-2.7v7C739.1,260.5,738.6,261,738,261L738,261z M770.1,247v0.2
			c0,0.3-0.1,0.6-0.3,0.8c-0.2,0.2-0.5,0.3-0.8,0.3c-0.3,0-0.6-0.1-0.8-0.3c-0.2-0.2-0.3-0.5-0.3-0.8V247c-0.4-0.1-0.8-0.3-1.1-0.5
			c-0.7-0.5-1.1-1.2-1.1-2c0-0.3,0.1-0.6,0.3-0.8c0.2-0.2,0.5-0.3,0.8-0.3c0.3,0,0.6,0.1,0.8,0.3s0.3,0.5,0.3,0.8
			c0,0.1,0.1,0.2,0.2,0.3v0c0.6,0.4,1.3,0.4,1.9,0c0.1-0.1,0.2-0.2,0.2-0.3v-1c0,0,0-0.1,0-0.1c-0.1-0.1-0.2-0.2-0.4-0.2l-2.5-1.1
			c-0.5-0.2-0.9-0.5-1.2-0.9c-0.3-0.4-0.5-0.9-0.5-1.4v-1c0-0.8,0.4-1.6,1.1-2c0.3-0.2,0.7-0.4,1.1-0.5v-0.2c0-0.3,0.1-0.6,0.3-0.8
			c0.2-0.2,0.5-0.3,0.8-0.3c0.3,0,0.6,0.1,0.8,0.3c0.2,0.2,0.3,0.5,0.3,0.8v0.2c0.4,0.1,0.8,0.3,1.1,0.5c0.7,0.5,1.1,1.2,1.1,2
			c0,0.6-0.5,1-1.1,1c-0.6,0-1-0.4-1.1-1c0-0.1-0.1-0.2-0.2-0.3c-0.6-0.4-1.3-0.4-1.9,0c-0.1,0.1-0.2,0.2-0.2,0.3v1c0,0,0,0.1,0,0.1
			c0.1,0.1,0.2,0.2,0.4,0.2l2.5,1.1c0.5,0.2,0.9,0.5,1.2,0.9c0.3,0.4,0.5,0.9,0.5,1.4v1c0,0.8-0.4,1.6-1.1,2
			C770.9,246.7,770.5,246.9,770.1,247L770.1,247z M775.2,235.3c-3-3-7.6-3.4-11.1-1.1s-4.9,6.8-3.2,10.7c1.6,3.9,5.7,6.1,9.9,5.3
			c4.1-0.8,7.1-4.4,7.1-8.7C777.8,239.2,776.9,236.9,775.2,235.3L775.2,235.3z M769,230.5c-3.4,0-6.6,1.6-8.7,4.3
			c-2.1,2.7-2.8,6.2-1.9,9.5c0.9,3.3,3.2,6,6.4,7.3c3.2,1.3,6.7,1.1,9.7-0.6c3-1.7,5-4.7,5.4-8.1c0.4-3.4-0.7-6.8-3.1-9.2
			C774.7,231.7,771.9,230.5,769,230.5L769,230.5z M778.8,231.7L778.8,231.7c-3-3-7.3-4.5-11.6-3.9c-4.3,0.6-8,3.1-10.2,6.8
			c-2.2,3.7-2.5,8.3-0.8,12.2c1.6,4,5.1,7,9.2,8.1c4.2,1.1,8.6,0.2,12-2.4c3.4-2.6,5.4-6.7,5.4-11
			C782.9,237.8,781.4,234.3,778.8,231.7L778.8,231.7z M753.1,243.7c0.4,3,1.7,5.9,3.7,8.2v36.4c0,0.7-0.6,1.2-1.2,1.2h-30.2
			c-0.7,0-1.2-0.6-1.3-1.2V245c0-0.7,0.6-1.2,1.3-1.2h9v0.4l0,0c0,1.7,1.4,3.2,3.2,3.2h6c1.7,0,3.2-1.4,3.2-3.2v-0.4L753.1,243.7z
			 M745.5,241.6L745.5,241.6c-0.6,0-1.1,0.5-1.1,1.1v1.4c0,0.6-0.5,1-1,1h-6c-0.6,0-1-0.5-1-1v-1.4c0-0.6-0.5-1.1-1.1-1.1h-10.1
			c-1.9,0-3.4,1.5-3.4,3.4v43.4c0,1.9,1.5,3.4,3.4,3.4h30.2c1.9,0,3.4-1.5,3.4-3.4V254c0.7,0.5,1.4,1,2.1,1.5v37.1
			c0,1-0.8,1.8-1.8,1.8h-37.7c-1,0-1.8-0.8-1.8-1.8v-51.8c0-1,0.8-1.8,1.8-1.8h31.6c-0.1,0.9-0.2,1.7-0.2,2.6v0.1L745.5,241.6z
			 M731.3,269.6h18.2c2,0,3.7,1.6,3.7,3.7v9.9c0,2-1.6,3.7-3.7,3.7h-18.2c-2,0-3.7-1.6-3.7-3.7v-9.9
			C727.7,271.3,729.3,269.6,731.3,269.6z"/>
	</g>
</g>
</svg>
