<?xml version="1.0" encoding="utf-8"?>
<!-- Generator: Adobe Illustrator 26.1.0, SVG Export Plug-In . SVG Version: 6.00 Build 0)  -->
<svg version="1.1" id="Layer_1" xmlns="http://www.w3.org/2000/svg" xmlns:xlink="http://www.w3.org/1999/xlink" x="0px" y="0px"
	 viewBox="0 0 93 72" style="enable-background:new 0 0 93 72;" xml:space="preserve">
<g>
	<path d="M46.5,67.1c-17.2,0-31.3-14.1-31-31.7c0.3-16.7,14-30.3,31-30.3c16.9,0,31,13.7,30.9,31.1C77.5,53.3,63.7,67.1,46.5,67.1z
		 M46.8,20.8c-0.1-0.2-0.2-0.2-0.2-0.3c-0.4-0.6-0.7-1.2-1.1-1.9c-0.1-0.1-0.1-0.2-0.2-0.3c-0.6-0.7-1.3-1-2.2-0.8
		c-0.9,0.2-1.4,0.8-1.6,1.6c-0.1,0.6,0,1.2,0.3,1.7c0.8,1.3,1.5,2.5,2.3,3.8c0.3,0.5,0.3,0.3,0,0.8c-2.5,4.2-5,8.5-7.5,12.7
		c-0.2,0.3-0.3,0.4-0.6,0.4c-2,0-4,0-6,0c-0.2,0-0.4,0-0.7,0c-0.9,0.1-1.7,0.9-1.8,1.7c-0.1,1,0.3,1.9,1.2,2.3
		c0.4,0.2,0.7,0.2,1.1,0.2c7.5,0,15,0,22.5,0c0.1,0,0.2,0,0.4,0c0.1-0.2,0.2-0.5,0.2-0.7c0-0.4-0.1-0.8-0.3-1.2
		c-0.1-0.2-0.2-0.5-0.4-0.7c-0.3-0.5-0.7-0.9-1.2-1.2c-0.5-0.3-1.1-0.4-1.7-0.4c-2.5,0-5,0-7.4,0c-0.1,0-0.2,0-0.4,0
		c0.1-0.2,0.1-0.3,0.2-0.4c3-5.1,6-10.2,9-15.4c0.4-0.7,0.8-1.4,1.2-2.1c0.4-0.7,0.5-1.4,0.1-2.1c-0.3-0.7-1-1.1-1.8-1.2
		c-0.8-0.1-1.5,0.3-2,1c-0.4,0.6-0.7,1.2-1,1.8C47,20.4,46.9,20.5,46.8,20.8z M50,26.2c-0.1,0.1-0.2,0.2-0.3,0.3
		c-0.9,1-1.4,2.1-1.4,3.5c0,1.1,0.3,2.2,0.9,3.2c3,5,5.9,10,8.8,15.1c0.3,0.5,0.6,1,0.9,1.5c0.5,0.7,1.2,1,2,0.9
		c0.9-0.1,1.5-0.6,1.8-1.5c0.2-0.6,0.1-1.2-0.2-1.8c-0.8-1.4-1.7-2.9-2.5-4.3c-0.1-0.1-0.1-0.2-0.2-0.3c0.2,0,0.3,0,0.4,0
		c1.1,0,2.3,0,3.4,0c0.9,0,1.5-0.5,1.9-1.3c0.3-0.8,0.2-1.6-0.4-2.2c-0.5-0.5-1-0.7-1.7-0.7c-1.9,0-3.9,0-5.8,0
		c-0.2,0-0.4-0.1-0.5-0.3c-1.9-3.2-3.8-6.4-5.6-9.5C50.9,27.9,50.4,27.1,50,26.2z M30.8,48.4c0,1,0.6,1.9,1.5,2.1
		c0.9,0.3,1.9-0.1,2.4-0.9c0.9-1.4,1.7-2.9,2.6-4.4c0.1-0.1,0.1-0.3,0-0.4c-0.2-0.3-0.4-0.6-0.7-0.9c-0.7-0.6-1.6-0.8-2.5-0.7
		c-0.4,0-0.7,0.2-0.9,0.6c-0.7,1.2-1.4,2.3-2.1,3.5C30.9,47.8,30.8,48.2,30.8,48.4z"/>
</g>
</svg>
