<?xml version="1.0" encoding="utf-8"?>
<!-- Generator: Adobe Illustrator 26.1.0, SVG Export Plug-In . SVG Version: 6.00 Build 0)  -->
<svg version="1.1" id="Illustration" xmlns="http://www.w3.org/2000/svg" xmlns:xlink="http://www.w3.org/1999/xlink" x="0px"
	 y="0px" viewBox="0 0 2500 1666.7" style="enable-background:new 0 0 2500 1666.7;" xml:space="preserve">
<style type="text/css">
	.st0{opacity:0.5;fill:url(#SVGID_1_);}
	.st1{opacity:0.5;fill:url(#SVGID_00000173877939670300428530000002092185405772319669_);}
	.st2{fill:url(#SVGID_00000051349934709363154640000012025651731403703953_);}
	.st3{opacity:0.43;fill:#FFFFFF;}
	.st4{fill:url(#SVGID_00000052805219598074130110000001971810061287241893_);}
	.st5{opacity:0.45;fill:#FFFFFF;}
	.st6{opacity:0.72;}
	.st7{fill:url(#SVGID_00000005243193738050700340000016089481523144045197_);}
	.st8{opacity:0.86;fill:#FFFFFF;}
	.st9{fill:url(#SVGID_00000049202918690785458830000004228860052388771996_);}
	.st10{fill:url(#SVGID_00000129180054187029592930000002713035463390451892_);}
	.st11{fill:url(#SVGID_00000083793995661152914480000015634499981046645912_);}
	.st12{fill:url(#SVGID_00000147899665705517426200000004180073648288625031_);}
	.st13{fill:url(#SVGID_00000100359655486092212180000008182399233193933503_);}
	.st14{fill:url(#SVGID_00000024689554233346164550000007353738453384466367_);}
	.st15{fill:url(#SVGID_00000153688988519340061690000005266635707769049785_);}
	.st16{fill:url(#SVGID_00000150784627535287668740000010985874717802700949_);}
	.st17{opacity:0.2;fill:#FFFFFF;}
	.st18{opacity:0.63;fill:url(#SVGID_00000148622356201877154220000001445585027453872308_);}
	.st19{opacity:0.63;fill:url(#SVGID_00000000191661863881375970000004912930868395597210_);}
	.st20{opacity:0.63;fill:url(#SVGID_00000084521639741241000000000003490473619123214509_);}
	.st21{fill:url(#SVGID_00000121249717246641794570000017148158391180835262_);}
	.st22{opacity:0.63;fill:url(#SVGID_00000091000312835091352490000009244121716636207533_);}
	.st23{opacity:0.63;fill:url(#SVGID_00000053511130195230198230000017301673192178548621_);}
	.st24{opacity:0.63;fill:url(#SVGID_00000079476089992795409830000015346579009205385859_);}
	.st25{fill:url(#SVGID_00000005267552699953310410000008510222700894569407_);}
	.st26{opacity:0.63;fill:url(#SVGID_00000173127716700222322420000015432935344477370251_);}
	.st27{opacity:0.63;fill:url(#SVGID_00000148648238281635547360000007307404831979106441_);}
	.st28{opacity:0.63;fill:url(#SVGID_00000128446148630760520090000008744715879104583610_);}
	.st29{opacity:0.63;fill:url(#SVGID_00000078760128810235389390000001664006078861829537_);}
	.st30{opacity:0.63;fill:url(#SVGID_00000074421878704851977750000002810351456582964868_);}
	.st31{opacity:0.63;fill:url(#SVGID_00000070827408317839684520000014162603095726274954_);}
	.st32{fill:url(#SVGID_00000124854219035720628190000015981593474438728067_);}
	.st33{opacity:0.7;}
	.st34{fill:#FFFFFF;}
	.st35{fill:url(#SVGID_00000025423800694885538310000017461842606527548350_);}
	.st36{fill:url(#SVGID_00000145033336834406404560000008471892719005012131_);}
	.st37{opacity:0.6;fill:#FFFFFF;}
	.st38{fill:url(#SVGID_00000102534017520917346600000002405589935180556988_);}
	.st39{fill:url(#SVGID_00000135680512077372116200000001889155832079647407_);}
	.st40{fill:url(#SVGID_00000071555030654232709000000004416124922480240302_);}
	.st41{opacity:0.9;}
	.st42{fill:url(#SVGID_00000016064734713368034580000009035631607913253301_);}
	.st43{fill:url(#SVGID_00000018221414333713594780000006440160648759586467_);}
	.st44{opacity:0.78;fill:#FFFFFF;}
	.st45{fill:url(#SVGID_00000006671697933825051870000018254317790781522843_);}
	.st46{fill:url(#SVGID_00000057869850367546686100000014252674364086320815_);}
	.st47{fill:url(#SVGID_00000137815294397144374710000004916449155500966844_);}
	.st48{fill:url(#SVGID_00000000192986863136599800000016450389263622266258_);}
	.st49{fill:url(#SVGID_00000173873424245335097080000007285825254581432247_);}
	.st50{fill:url(#SVGID_00000018929630564942631840000010145829827282729630_);}
	.st51{fill:url(#SVGID_00000157277532026637093410000016711205814411115684_);}
	.st52{fill:url(#SVGID_00000093880712428648419380000006702247170442956949_);}
	.st53{fill:url(#SVGID_00000095338579291365750130000009167571648560229793_);}
	.st54{fill:url(#SVGID_00000109739266387061252850000003537802116945557689_);}
	.st55{fill:url(#SVGID_00000160901096178307506990000008966771326756511664_);}
	.st56{opacity:0.6;}
	.st57{fill:url(#SVGID_00000165228251490914539780000013056415185171053470_);}
	.st58{fill:url(#SVGID_00000102534833304545853510000005149569092802495907_);}
	.st59{fill:url(#SVGID_00000023264010421920399770000017451415046281878936_);}
	.st60{fill:url(#SVGID_00000109002348430909406810000017493510068437796226_);}
	.st61{fill:url(#SVGID_00000054970935968602660070000014524402659229116800_);}
	.st62{fill:url(#SVGID_00000029752595107083629770000012573896875157407878_);}
	.st63{fill:url(#SVGID_00000029750665639957593720000011967389363979231636_);}
	.st64{fill:url(#SVGID_00000021108367797666838610000009902443406346539136_);}
	.st65{fill:url(#SVGID_00000029014070101395347240000000507522702431774399_);}
	.st66{fill:url(#SVGID_00000050658264851332623940000018251135990463999413_);}
	.st67{fill:url(#SVGID_00000103959807915248200230000009036758977758949014_);}
	.st68{fill:url(#SVGID_00000132059626666802551430000003714057572147854256_);}
	.st69{fill:url(#SVGID_00000136385175841541040790000003617901333381388978_);}
	.st70{fill:url(#SVGID_00000054255768539538300200000007035231225922103183_);}
	.st71{fill:url(#SVGID_00000083772478574226529480000015811602659570982798_);}
	.st72{fill:url(#SVGID_00000078040531237437894040000002242804305147469959_);}
	.st73{fill:url(#SVGID_00000031891220078992615810000008658619130625380757_);}
	.st74{fill:url(#SVGID_00000068645177052474642320000010865079251582490003_);}
	.st75{fill:url(#SVGID_00000033358868246909160010000014669465533804508310_);}
	.st76{fill:url(#SVGID_00000071536758560989795960000013312652269057111972_);}
	.st77{fill:url(#SVGID_00000005264116187417181800000004438815051943089839_);}
	.st78{fill:url(#SVGID_00000140712307519458414870000010063539482550356139_);}
	.st79{fill:url(#SVGID_00000139273308897267346650000001558804043645836418_);}
	.st80{fill:url(#SVGID_00000017502525692729603180000017287979254443766159_);}
	.st81{fill:url(#SVGID_00000104694957857644446660000002391174090351116712_);}
	.st82{fill:url(#SVGID_00000144316283425615854050000008943832121968106641_);}
	.st83{fill:url(#SVGID_00000080899536824158009850000001026051654880228243_);}
	.st84{fill:url(#SVGID_00000117637366297429383540000014467696051867218096_);}
	.st85{fill:url(#SVGID_00000070076113184147986460000009018727375062667182_);}
	.st86{fill:url(#SVGID_00000107582766790619130770000002322969361213003181_);}
	.st87{fill:url(#SVGID_00000029728912508047751740000004716810412177131924_);}
	.st88{fill:url(#SVGID_00000057835222364143363280000018025782817308436650_);}
	.st89{fill:url(#SVGID_00000030489016594162900110000013498467899586159805_);}
	.st90{fill:url(#SVGID_00000110440368099488299400000004009488454764280240_);}
	.st91{fill:url(#SVGID_00000171710764888408963990000004090867603642370494_);}
	.st92{fill:url(#SVGID_00000098916465169031622600000005459022083274520761_);}
</style>
<g>
	<g>
		<linearGradient id="SVGID_1_" gradientUnits="userSpaceOnUse" x1="103.9016" y1="849.8856" x2="2430.7024" y2="849.8856">
			<stop  offset="0" style="stop-color:#B37CFF"/>
			<stop  offset="1" style="stop-color:#F895E7"/>
		</linearGradient>
		<path class="st0" d="M714.2,117.1c-36.4,11.7-90.9,64.9-138.7,149.7c-58.8,104.4-93.7,113.5-176.8,62.1
			c-83.1-51.4-180.8-16.9-251.5,120C76.5,585.8,200.3,692.2,315.1,859c114.8,166.8-114.4,123.6-188.6,318.4s30.5,413.3,374.9,410.7
			c345-2.6,866.4,2.4,866.4,2.4s483.6,46.1,659.7-72.9c176.1-119-40.5-176.8,123.3-252.9c163.8-76.1,334.7-81.2,263.1-277.9
			c-71.6-196.6-173-155.9-238.4-208.5c-65.4-52.6-104.8-109.7-11.2-203.2c93.5-93.6,165.1-156.6,117.8-280.6
			c-67.8-177.9-232.5-200.8-413.3-125.4c-180.9,75.4-350,380.1-500.8,303C1217.3,394.9,1024.5,17.4,714.2,117.1z"/>
		
			<linearGradient id="SVGID_00000173851176409384644100000008589762524336104891_" gradientUnits="userSpaceOnUse" x1="52.2071" y1="816.5845" x2="2482.397" y2="816.5845">
			<stop  offset="0" style="stop-color:#B37CFF"/>
			<stop  offset="1" style="stop-color:#F895E7"/>
		</linearGradient>
		<path style="opacity:0.5;fill:url(#SVGID_00000173851176409384644100000008589762524336104891_);" d="M689.7,51.2
			c-38.1,12.2-95,67.8-144.9,156.4c-61.4,109-97.9,118.5-184.7,64.8c-86.8-53.7-188.9-17.6-262.7,125.4
			c-73.8,143,55.5,254.1,175.4,428.3c119.9,174.2-119.5,129.1-197,332.6c-77.5,203.5,31.8,431.7,391.6,429
			c360.3-2.7,904.9,2.5,904.9,2.5s505.1,48.1,689-76.2c183.9-124.3-42.3-184.7,128.8-264.2c171.1-79.5,349.6-84.8,274.8-290.2
			s-180.7-162.8-249-217.8c-68.3-54.9-109.4-114.5-11.7-212.3c97.7-97.7,172.5-163.6,123.1-293.1c-70.8-185.8-242.8-209.7-431.7-131
			s-365.5,397-523,316.4S1013.7-52.9,689.7,51.2z"/>
	</g>
	<g>
		
			<linearGradient id="SVGID_00000039839944396513758570000008837766102368318851_" gradientUnits="userSpaceOnUse" x1="6414.0259" y1="1841.8315" x2="7021.7427" y2="1841.8315" gradientTransform="matrix(0.9989 -4.820000e-02 3.660000e-02 0.7594 -4835.7705 -154.6493)">
			<stop  offset="0" style="stop-color:#CB236D"/>
			<stop  offset="1" style="stop-color:#4C246D"/>
		</linearGradient>
		<path style="fill:url(#SVGID_00000039839944396513758570000008837766102368318851_);" d="M2172,403.3c-2.7-8.3-18.3-8.1-21.1,0.3
			c-26.9,81.2-106.1,292.7-234.9,408.3c-209.8,188.3-343.7,485.9-200.5,631.6C1715.4,1443.6,2461.8,1309.1,2172,403.3z"/>
		<path class="st3" d="M2154.3,518.4c-0.2,2.8-0.7,5-1,7.5l-1.3,7.2c-0.9,4.8-1.8,9.5-2.7,14.3c-1.9,9.5-3.9,19-6,28.5
			c-4.1,18.9-8.8,37.8-13.4,56.6c-9.6,37.6-20.3,74.8-31.9,111.9c-23,74.1-50.5,146.7-81.7,217.8c-15.6,35.5-32.8,70.4-50.7,104.8
			l-13.8,25.6c-4.6,8.5-9.6,16.9-14.4,25.3l-7.2,12.6l-7.6,12.4c-5.1,8.3-10,16.6-15.3,24.8c-20.9,32.7-43.4,64.4-67.1,95.1
			c-12.3,15-24.3,30.2-37.4,44.6c-12.6,14.8-26.4,28.4-39.8,42.4c-0.5,0.5-1.2,0.5-1.7,0c-0.5-0.5-0.5-1.2,0-1.7l0,0
			c26.4-28.3,51.5-57.7,75-88.4c23.2-30.9,45.2-62.7,65.6-95.5c20.2-32.9,39.7-66.3,57.5-100.6c17.8-34.3,34.5-69.1,50.3-104.4
			c15.7-35.3,30.4-71.1,44.1-107.2l10.1-27.2l9.7-27.3c6.4-18.3,12.7-36.5,18.6-54.9c12-36.8,23-73.9,33.1-111.2
			c5-18.7,10-37.4,14.4-56.2c2.3-9.4,4.4-18.8,6.5-28.3c1.1-4.7,2.1-9.4,3.1-14.2l1.4-7.1c0.4-2.3,0.9-4.9,1.2-6.9l0-0.4
			c0.1-0.7,0.7-1.1,1.4-1.1C2153.9,517.2,2154.4,517.8,2154.3,518.4z"/>
	</g>
	<g>
		
			<linearGradient id="SVGID_00000107581958096355934980000000611112440662197928_" gradientUnits="userSpaceOnUse" x1="7222.3892" y1="1147.9121" x2="7541.3442" y2="1147.9121" gradientTransform="matrix(0.2512 0.968 -0.9015 0.2339 1082.6608 -6028.3208)">
			<stop  offset="0" style="stop-color:#A737D5"/>
			<stop  offset="1" style="stop-color:#EF497A"/>
		</linearGradient>
		<path style="fill:url(#SVGID_00000107581958096355934980000000611112440662197928_);" d="M1347.4,1552.1c0,0,73.8-132.2,275-186.9
			c186.7-50.7,636-157.2,789.5-275.8c6.8-5.3,15.8,3.2,11.8,11.1c-43.6,84.1-168.6,285.2-417.8,406.9
			C1684.6,1664.3,1347.4,1552.1,1347.4,1552.1z"/>
		<path class="st5" d="M2285.7,1209.9c-11.7,16.5-25.4,31.5-40,45.6l-5.4,5.3l-5.6,5.1l-11.3,10.2c-3.8,3.3-7.8,6.5-11.7,9.8
			c-3.9,3.2-7.7,6.6-11.8,9.6l-12.2,9.1l-6.1,4.5c-2,1.5-4.1,3-6.2,4.4c-8.4,5.6-16.8,11.4-25.3,17l-26.1,15.8l-3.3,2l-3.3,1.8
			l-6.7,3.6l-13.4,7.2c-36.1,18.5-73.4,35-112,47.7l-14.4,4.9l-7.2,2.5c-2.4,0.8-4.9,1.4-7.3,2.1l-29.3,8.3
			c-4.9,1.4-9.8,2.8-14.7,4.1l-14.7,3.6l-29.5,7.2c-9.8,2.4-19.7,4.6-29.6,6.9c-9.9,2.2-19.7,4.6-29.6,6.7
			c-19.8,4.3-39.5,8.6-59.4,12.5c-19.8,4.1-39.7,7.9-59.5,11.8l-59.6,11c-39.7,7.2-79.5,14.4-118.9,23c-9.9,2-19.6,4.5-29.4,6.8
			c-4.9,1.1-9.7,2.5-14.6,3.9c-4.8,1.4-9.7,2.6-14.5,4.1c-9.5,3.2-19.2,6.1-28.4,10l-7,2.8c-1.2,0.5-2.4,0.9-3.5,1.4l-3.4,1.6
			l-13.6,6.5l-0.1,0c-0.6,0.3-1.3,0-1.6-0.6c-0.3-0.6-0.1-1.3,0.5-1.6c17.7-9.9,36.6-17.8,55.8-24.3c4.8-1.6,9.7-3,14.5-4.5
			c4.9-1.5,9.7-3.1,14.6-4.3c9.8-2.6,19.6-5.4,29.4-7.6c39.4-9.5,79.1-17,118.7-24.9c39.6-7.9,79.2-15.7,118.8-23.9
			c39.5-8.2,78.9-17.1,118.2-26.4l29.4-7.2l14.7-3.6l14.5-4l29.1-8.1c2.4-0.7,4.9-1.3,7.2-2.1l7.1-2.4l14.3-4.8l14.3-4.8l7.1-2.4
			c2.4-0.8,4.7-1.8,7-2.7l28.1-11l7-2.8l6.9-3.1l13.7-6.2l13.7-6.2c2.3-1,4.5-2.1,6.8-3.3l6.7-3.4l13.4-6.8l6.7-3.4l3.4-1.7l3.3-1.9
			l26.2-15c8.5-5.3,16.9-10.8,25.4-16.2c2.1-1.3,4.2-2.8,6.2-4.2l6.2-4.4l12.3-8.7c4.1-2.9,8-6.1,12-9.2c4-3.1,8-6.1,11.9-9.3
			l11.5-9.7l5.8-4.9l5.6-5.1c3.7-3.4,7.5-6.7,11-10.3c3.5-3.6,7.2-7.1,10.7-10.7c6.9-7.3,13.8-14.7,19.9-22.7c0-0.1,0.1-0.1,0.2,0
			C2285.7,1209.7,2285.7,1209.8,2285.7,1209.9z"/>
	</g>
	<g class="st6">
		
			<linearGradient id="SVGID_00000050641115011771103250000008502097381039525306_" gradientUnits="userSpaceOnUse" x1="2941.2517" y1="-2095.7856" x2="3622.5129" y2="-2095.7856" gradientTransform="matrix(0.4804 -0.877 0.877 0.4804 787.6006 4661.5454)">
			<stop  offset="0" style="stop-color:#A737D5"/>
			<stop  offset="1" style="stop-color:#EF497A"/>
		</linearGradient>
		<path style="fill:url(#SVGID_00000050641115011771103250000008502097381039525306_);" d="M305,281
			c-26.3,111.4-152.7,766.2,440.4,995.3c0,0,194.2-409.7-424.3-1000.1C315.7,271,306.8,273.7,305,281z"/>
		<path class="st8" d="M354.3,386c6.4,36,13.5,71.8,20.9,107.6c7.4,35.8,15.3,71.5,23.6,107.1c16.5,71.2,34.6,142,54.9,212.2
			c20.3,70.2,42.7,139.7,68.8,207.9c12.9,34.1,27.1,67.7,42.5,100.7c15.5,33,32.2,65.3,51.5,96.1l0,0c1.4,2.3,0.7,5.3-1.6,6.8
			c-2.3,1.4-5.3,0.7-6.8-1.6l0,0c-19.3-31.4-36-64.2-51.4-97.5c-15.3-33.3-29.4-67.2-42.1-101.6c-25.8-68.6-47.8-138.5-67.7-209
			c-19.9-70.5-37.6-141.5-53.6-212.9c-8-35.7-15.7-71.5-22.9-107.3c-7.2-35.9-14.1-71.8-20.2-107.9c-0.2-1.1,0.6-2.2,1.7-2.4
			C353,384.1,354.1,384.9,354.3,386L354.3,386z"/>
	</g>
	<g>
		
			<linearGradient id="SVGID_00000003801115309551899030000007098490992116456584_" gradientUnits="userSpaceOnUse" x1="10297.7383" y1="-848.0764" x2="10616.6846" y2="-848.0764" gradientTransform="matrix(-0.6825 0.7309 0.7309 0.6825 8127.8525 -5902.1147)">
			<stop  offset="0" style="stop-color:#A737D5"/>
			<stop  offset="1" style="stop-color:#EF497A"/>
		</linearGradient>
		<path style="fill:url(#SVGID_00000003801115309551899030000007098490992116456584_);" d="M810.4,1602.2c0,0-7.4-156.7-169.4-311.2
			C490.6,1147.6,121.6,816.4,33.7,630c-3.9-8.3-16.2-5.5-16.1,3.7c1.6,97.9,24.8,342.9,200.4,582.4
			C444.5,1524.9,810.4,1602.2,810.4,1602.2z"/>
		<path class="st5" d="M95.7,803.7c2,10.6,5.1,21,8.2,31.3l5.1,15.4c1.7,5.1,3.7,10.1,5.6,15.2c1,2.5,1.9,5.1,2.9,7.6l3.1,7.5
			l6.3,14.9l6.9,14.6c2.4,4.8,4.4,9.8,7,14.6c19.4,38.5,41.9,75.4,67.5,110.1c25.4,34.7,52.7,68.2,82.6,99.2l11.1,11.8l5.5,5.9
			l5.8,5.6l23.3,22.4c3.9,3.7,7.7,7.5,11.7,11.2l12,10.9l24,21.8c32.2,28.8,64.6,57.3,97.5,85.4c32.9,28.1,66,55.8,99.2,83.5
			c33.1,27.8,66.5,55.3,98.7,84.4c8.1,7.2,15.9,14.8,23.8,22.2c4,3.7,7.7,7.6,11.5,11.5c3.8,3.9,7.7,7.7,11.4,11.6
			c14.8,15.9,28.7,32.7,40.6,50.9c0.4,0.6,0.2,1.3-0.4,1.7c-0.5,0.4-1.3,0.2-1.7-0.3l0-0.1l-9.6-13l-2.4-3.2
			c-0.8-1.1-1.7-2.1-2.6-3.1l-5.2-6.1c-6.8-8.4-14.4-16-21.8-23.8c-3.8-3.9-7.7-7.5-11.6-11.3c-3.9-3.7-7.7-7.5-11.7-11.1
			c-8-7.2-15.9-14.6-24.2-21.5c-32.6-28.3-66.2-55.5-99.8-82.8l-50.3-41c-16.6-13.8-33.3-27.6-49.8-41.6c-16.6-13.9-33-28-49.3-42.2
			c-8.2-7-16.3-14.3-24.4-21.5l-24.3-21.6l-24-21.8l-12-10.9c-4-3.6-7.8-7.5-11.7-11.3l-23.3-22.7l-5.8-5.7l-5.6-5.9l-11.1-11.9
			l-11.1-11.9c-3.7-4-7.5-7.9-10.9-12.1l-20.9-25c-7.2-8.2-13.4-17.1-20.1-25.7c-6.5-8.7-13.3-17.2-19.2-26.3
			c-25-35.5-46.9-73.2-65.6-112.4c-2.5-4.8-4.5-9.9-6.7-14.8l-6.4-14.9l-5.8-15.2l-2.9-7.6c-0.9-2.6-1.7-5.1-2.6-7.7
			c-7.1-20.5-13.1-41.4-16.5-62.8c0-0.1,0-0.2,0.1-0.2C95.6,803.6,95.7,803.7,95.7,803.7z"/>
	</g>
	<g>
		
			<linearGradient id="SVGID_00000109747611731000313610000009039087211429773467_" gradientUnits="userSpaceOnUse" x1="2447.7087" y1="489.9146" x2="1107.1093" y2="2249.8816" gradientTransform="matrix(0.9999 -1.050000e-02 1.050000e-02 0.9999 -22.7692 -37.6772)">
			<stop  offset="0" style="stop-color:#FDF53F"/>
			<stop  offset="1" style="stop-color:#D93C65"/>
		</linearGradient>
		<path style="fill:url(#SVGID_00000109747611731000313610000009039087211429773467_);" d="M1939.8,491.1l43.3,2.3
			c21.4,1.1,38.1,18.8,38.1,40.3l-4.3,1026.4c-0.1,23.4-19.2,42.2-42.6,41.9l-297-3.2L1939.8,491.1z"/>
		
			<linearGradient id="SVGID_00000068653637726739420480000007233852271120585406_" gradientUnits="userSpaceOnUse" x1="2329.0144" y1="1048.022" x2="1272.5409" y2="1125.9401" gradientTransform="matrix(0.9999 -1.050000e-02 1.050000e-02 0.9999 -22.7692 -37.6772)">
			<stop  offset="0" style="stop-color:#53D8FF"/>
			<stop  offset="1" style="stop-color:#3840F7"/>
		</linearGradient>
		<path style="fill:url(#SVGID_00000068653637726739420480000007233852271120585406_);" d="M1421.2,497.4l547.9-32.2
			c11.3-0.7,20.8,8.5,20.6,19.8l-22.7,1057.8c-0.5,22.6-19.3,40.4-41.8,39.8l-385.5-11.5L1421.2,497.4z"/>
		
			<linearGradient id="SVGID_00000032619821157312592290000015702599974573140884_" gradientUnits="userSpaceOnUse" x1="2056.1113" y1="1062.4636" x2="1173.8037" y2="1106.0062" gradientTransform="matrix(0.9999 -1.050000e-02 1.050000e-02 0.9999 -22.7692 -37.6772)">
			<stop  offset="0" style="stop-color:#53D8FF"/>
			<stop  offset="1" style="stop-color:#3840F7"/>
		</linearGradient>
		<path style="fill:url(#SVGID_00000032619821157312592290000015702599974573140884_);" d="M1450.7,519.3l481.5-66.6
			c12.4-1.7,23.4,8,23.2,20.5L1943.1,1540c-0.2,15-12.1,27.3-27.1,27.9l-354.6,14.1L1450.7,519.3z"/>
		
			<linearGradient id="SVGID_00000000205961991009625900000012250206182497791387_" gradientUnits="userSpaceOnUse" x1="2001.7192" y1="982.8318" x2="887.9648" y2="1288.7704" gradientTransform="matrix(0.9999 -1.050000e-02 1.050000e-02 0.9999 -22.7692 -37.6772)">
			<stop  offset="0" style="stop-color:#FDF53F"/>
			<stop  offset="1" style="stop-color:#D93C65"/>
		</linearGradient>
		<path style="fill:url(#SVGID_00000000205961991009625900000012250206182497791387_);" d="M1323.4,467.6l528.3-38.4
			c26.3-1.9,48.8,18.8,49.1,45.2l11.4,1089.2c0.2,22.1-17.5,40.2-39.6,40.4l-487.4,5.1c-23,0.2-42.2-17.5-43.6-40.5l-67.2-1044.6
			C1272.5,494.8,1294.4,469.7,1323.4,467.6z"/>
		
			<linearGradient id="SVGID_00000173158529139381236360000015891865677619363508_" gradientUnits="userSpaceOnUse" x1="1937.8087" y1="747.5452" x2="784.5134" y2="1064.3452" gradientTransform="matrix(0.9999 -1.050000e-02 1.050000e-02 0.9999 -22.7692 -37.6772)">
			<stop  offset="0" style="stop-color:#FDF53F"/>
			<stop  offset="1" style="stop-color:#D93C65"/>
		</linearGradient>
		<path style="fill:url(#SVGID_00000173158529139381236360000015891865677619363508_);" d="M1936.1,857.2l-62.6,0.7
			c-5.4,0.1-9.8-4.3-9.9-9.7l-3.2-305.5c-0.1-5.4,4.3-9.8,9.7-9.9l62.6-0.7c5.4-0.1,9.8,4.3,9.9,9.7l3.2,305.5
			C1945.8,852.8,1941.5,857.2,1936.1,857.2z"/>
	</g>
	<g>
		<g>
			<g>
				
					<linearGradient id="SVGID_00000010988830404680738600000013194036451488019878_" gradientUnits="userSpaceOnUse" x1="1966.0795" y1="920.3347" x2="1952.13" y2="2210.637">
					<stop  offset="0" style="stop-color:#53D8FF"/>
					<stop  offset="1" style="stop-color:#3840F7"/>
				</linearGradient>
				<path style="fill:url(#SVGID_00000010988830404680738600000013194036451488019878_);" d="M1706.5,1044.6
					c-2.8,98.8-11.7,439.4-7.5,560.1c0.5,12.8,12,23.1,26.5,23.5c71.4,2.1,333.3,7.3,450.2,3c24.3-0.9,43.7-18.4,44.2-39.9
					c2.4-103.7,7.8-395.2-4.9-528.7c-1.5-16-15.7-28.7-33.8-30.3c-77.8-6.9-340.8-23.7-441.8-17.9
					C1721.3,1015.3,1707,1028.5,1706.5,1044.6z"/>
				
					<linearGradient id="SVGID_00000068655938363762214280000015534151451293278376_" gradientUnits="userSpaceOnUse" x1="1923.7352" y1="1277.9708" x2="1973.2141" y2="1072.8734">
					<stop  offset="0" style="stop-color:#2B3582"/>
					<stop  offset="1" style="stop-color:#150E42"/>
				</linearGradient>
				<path style="fill:url(#SVGID_00000068655938363762214280000015534151451293278376_);" d="M1738.4,1067.6
					c-3.8,23.1-16,99.9-12.1,128.3c0.6,4.2,13.3,7.5,29.5,7.7c66.6,1,293.7,3.2,391.4,1.2c17.6-0.4,31.4-4,32.3-8.5
					c4.9-23.5,19.2-95,15.5-123.1c-0.6-4.5-14.1-8.1-31.5-8.5c-72-1.7-313.4-5.6-396.4-4.4
					C1751.5,1060.4,1739.1,1063.6,1738.4,1067.6z"/>
				<path class="st17" d="M2164.6,1087.7c-3.5-3.7-8.4-5.8-13.5-5.8l-374.1-5.9c-10-0.2-18.4,7.4-19.4,17.4l-7.8,83
					c-0.6,6.8,10.5,12.5,24.8,12.7l367.8,4.5c14.2,0.2,26-5.3,26.1-12l1.4-80C2170.1,1096.3,2168.2,1091.3,2164.6,1087.7z"/>
			</g>
			<g>
				
					<linearGradient id="SVGID_00000134936338856416057760000016413111374634204334_" gradientUnits="userSpaceOnUse" x1="1742.2797" y1="1286.2306" x2="1828.4287" y2="1286.2306">
					<stop  offset="0" style="stop-color:#2B3582"/>
					<stop  offset="1" style="stop-color:#150E42"/>
				</linearGradient>
				<path style="opacity:0.63;fill:url(#SVGID_00000134936338856416057760000016413111374634204334_);" d="M1828.4,1286.6
					c0,14.8-12,26.7-26.7,26.7H1769c-14.8,0-26.7-12-26.7-26.7v-0.7c0-14.8,12-26.7,26.7-26.7h32.7c14.8,0,26.7,12,26.7,26.7V1286.6
					z"/>
				
					<linearGradient id="SVGID_00000156583375263604608920000010928273304922580913_" gradientUnits="userSpaceOnUse" x1="1862.8882" y1="1286.2306" x2="1949.0372" y2="1286.2306">
					<stop  offset="0" style="stop-color:#2B3582"/>
					<stop  offset="1" style="stop-color:#150E42"/>
				</linearGradient>
				<path style="opacity:0.63;fill:url(#SVGID_00000156583375263604608920000010928273304922580913_);" d="M1949,1286.6
					c0,14.8-12,26.7-26.7,26.7h-32.7c-14.8,0-26.7-12-26.7-26.7v-0.7c0-14.8,12-26.7,26.7-26.7h32.7c14.8,0,26.7,12,26.7,26.7
					V1286.6z"/>
				
					<linearGradient id="SVGID_00000003817563764448516610000003355799955515158203_" gradientUnits="userSpaceOnUse" x1="1978.574" y1="1286.2306" x2="2064.7229" y2="1286.2306">
					<stop  offset="0" style="stop-color:#2B3582"/>
					<stop  offset="1" style="stop-color:#150E42"/>
				</linearGradient>
				<path style="opacity:0.63;fill:url(#SVGID_00000003817563764448516610000003355799955515158203_);" d="M2064.7,1286.6
					c0,14.8-12,26.7-26.7,26.7h-32.7c-14.8,0-26.7-12-26.7-26.7v-0.7c0-14.8,12-26.7,26.7-26.7h32.7c14.8,0,26.7,12,26.7,26.7
					V1286.6z"/>
				
					<linearGradient id="SVGID_00000140014839429840651280000018274988578231137438_" gradientUnits="userSpaceOnUse" x1="2166.3984" y1="1257.3245" x2="1974.3711" y2="1483.7448">
					<stop  offset="0" style="stop-color:#E40045"/>
					<stop  offset="1" style="stop-color:#5C0E16"/>
				</linearGradient>
				<path style="fill:url(#SVGID_00000140014839429840651280000018274988578231137438_);" d="M2182.9,1288.7
					c0,15-12.1,27.1-27.1,27.1h-32c-15,0-27.1-12.1-27.1-27.1l0,0c0-15,12.1-27.1,27.1-27.1h32
					C2170.7,1261.6,2182.9,1273.7,2182.9,1288.7L2182.9,1288.7z"/>
			</g>
			<g>
				
					<linearGradient id="SVGID_00000042705076906234300870000009882936663763349388_" gradientUnits="userSpaceOnUse" x1="1742.2797" y1="1369.9182" x2="1828.4287" y2="1369.9182">
					<stop  offset="0" style="stop-color:#2B3582"/>
					<stop  offset="1" style="stop-color:#150E42"/>
				</linearGradient>
				<path style="opacity:0.63;fill:url(#SVGID_00000042705076906234300870000009882936663763349388_);" d="M1828.4,1370.3
					c0,14.8-12,26.7-26.7,26.7H1769c-14.8,0-26.7-12-26.7-26.7v-0.7c0-14.8,12-26.7,26.7-26.7h32.7c14.8,0,26.7,12,26.7,26.7V1370.3
					z"/>
				
					<linearGradient id="SVGID_00000060013490716653698140000003907902547247917184_" gradientUnits="userSpaceOnUse" x1="1862.8882" y1="1369.9182" x2="1949.0372" y2="1369.9182">
					<stop  offset="0" style="stop-color:#2B3582"/>
					<stop  offset="1" style="stop-color:#150E42"/>
				</linearGradient>
				<path style="opacity:0.63;fill:url(#SVGID_00000060013490716653698140000003907902547247917184_);" d="M1949,1370.3
					c0,14.8-12,26.7-26.7,26.7h-32.7c-14.8,0-26.7-12-26.7-26.7v-0.7c0-14.8,12-26.7,26.7-26.7h32.7c14.8,0,26.7,12,26.7,26.7
					V1370.3z"/>
				
					<linearGradient id="SVGID_00000085229084822960215000000013231580187845064602_" gradientUnits="userSpaceOnUse" x1="1978.574" y1="1369.9182" x2="2064.7229" y2="1369.9182">
					<stop  offset="0" style="stop-color:#2B3582"/>
					<stop  offset="1" style="stop-color:#150E42"/>
				</linearGradient>
				<path style="opacity:0.63;fill:url(#SVGID_00000085229084822960215000000013231580187845064602_);" d="M2064.7,1370.3
					c0,14.8-12,26.7-26.7,26.7h-32.7c-14.8,0-26.7-12-26.7-26.7v-0.7c0-14.8,12-26.7,26.7-26.7h32.7c14.8,0,26.7,12,26.7,26.7
					V1370.3z"/>
				
					<linearGradient id="SVGID_00000021120041706181191830000002208483611400164773_" gradientUnits="userSpaceOnUse" x1="2099.1824" y1="1369.9182" x2="2185.3313" y2="1369.9182">
					<stop  offset="0" style="stop-color:#2B3582"/>
					<stop  offset="1" style="stop-color:#150E42"/>
				</linearGradient>
				<path style="fill:url(#SVGID_00000021120041706181191830000002208483611400164773_);" d="M2185.3,1370.3
					c0,14.8-12,26.7-26.7,26.7h-32.7c-14.8,0-26.7-12-26.7-26.7v-0.7c0-14.8,12-26.7,26.7-26.7h32.7c14.8,0,26.7,12,26.7,26.7
					V1370.3z"/>
			</g>
			<g>
				
					<linearGradient id="SVGID_00000054951385951277275970000008666633886553100438_" gradientUnits="userSpaceOnUse" x1="1742.2797" y1="1448.6829" x2="1828.4287" y2="1448.6829">
					<stop  offset="0" style="stop-color:#2B3582"/>
					<stop  offset="1" style="stop-color:#150E42"/>
				</linearGradient>
				<path style="opacity:0.63;fill:url(#SVGID_00000054951385951277275970000008666633886553100438_);" d="M1828.4,1449
					c0,14.8-12,26.7-26.7,26.7H1769c-14.8,0-26.7-12-26.7-26.7v-0.7c0-14.8,12-26.7,26.7-26.7h32.7c14.8,0,26.7,12,26.7,26.7V1449z"
					/>
				
					<linearGradient id="SVGID_00000162350453089844837800000016842261048165278378_" gradientUnits="userSpaceOnUse" x1="1862.8882" y1="1448.6829" x2="1949.0372" y2="1448.6829">
					<stop  offset="0" style="stop-color:#2B3582"/>
					<stop  offset="1" style="stop-color:#150E42"/>
				</linearGradient>
				<path style="opacity:0.63;fill:url(#SVGID_00000162350453089844837800000016842261048165278378_);" d="M1949,1449
					c0,14.8-12,26.7-26.7,26.7h-32.7c-14.8,0-26.7-12-26.7-26.7v-0.7c0-14.8,12-26.7,26.7-26.7h32.7c14.8,0,26.7,12,26.7,26.7V1449z
					"/>
				
					<linearGradient id="SVGID_00000083075146579704753020000010761043989996883616_" gradientUnits="userSpaceOnUse" x1="1978.574" y1="1448.6829" x2="2064.7229" y2="1448.6829">
					<stop  offset="0" style="stop-color:#2B3582"/>
					<stop  offset="1" style="stop-color:#150E42"/>
				</linearGradient>
				<path style="opacity:0.63;fill:url(#SVGID_00000083075146579704753020000010761043989996883616_);" d="M2064.7,1449
					c0,14.8-12,26.7-26.7,26.7h-32.7c-14.8,0-26.7-12-26.7-26.7v-0.7c0-14.8,12-26.7,26.7-26.7h32.7c14.8,0,26.7,12,26.7,26.7V1449z
					"/>
			</g>
			<g>
				
					<linearGradient id="SVGID_00000114064557929772225600000006704939508511548856_" gradientUnits="userSpaceOnUse" x1="1742.2797" y1="1529.9091" x2="1828.4287" y2="1529.9091">
					<stop  offset="0" style="stop-color:#2B3582"/>
					<stop  offset="1" style="stop-color:#150E42"/>
				</linearGradient>
				<path style="opacity:0.63;fill:url(#SVGID_00000114064557929772225600000006704939508511548856_);" d="M1828.4,1530.3
					c0,14.8-12,26.7-26.7,26.7H1769c-14.8,0-26.7-12-26.7-26.7v-0.7c0-14.8,12-26.7,26.7-26.7h32.7c14.8,0,26.7,12,26.7,26.7V1530.3
					z"/>
				
					<linearGradient id="SVGID_00000163768856492694363760000011678583982848029868_" gradientUnits="userSpaceOnUse" x1="1862.8882" y1="1529.9091" x2="1949.0372" y2="1529.9091">
					<stop  offset="0" style="stop-color:#2B3582"/>
					<stop  offset="1" style="stop-color:#150E42"/>
				</linearGradient>
				<path style="opacity:0.63;fill:url(#SVGID_00000163768856492694363760000011678583982848029868_);" d="M1949,1530.3
					c0,14.8-12,26.7-26.7,26.7h-32.7c-14.8,0-26.7-12-26.7-26.7v-0.7c0-14.8,12-26.7,26.7-26.7h32.7c14.8,0,26.7,12,26.7,26.7
					V1530.3z"/>
				
					<linearGradient id="SVGID_00000076603927304089754690000000902786377153031083_" gradientUnits="userSpaceOnUse" x1="1978.574" y1="1529.9091" x2="2064.7229" y2="1529.9091">
					<stop  offset="0" style="stop-color:#2B3582"/>
					<stop  offset="1" style="stop-color:#150E42"/>
				</linearGradient>
				<path style="opacity:0.63;fill:url(#SVGID_00000076603927304089754690000000902786377153031083_);" d="M2064.7,1530.3
					c0,14.8-12,26.7-26.7,26.7h-32.7c-14.8,0-26.7-12-26.7-26.7v-0.7c0-14.8,12-26.7,26.7-26.7h32.7c14.8,0,26.7,12,26.7,26.7
					V1530.3z"/>
			</g>
			
				<linearGradient id="SVGID_00000078020515226402361820000017152662312355884418_" gradientUnits="userSpaceOnUse" x1="2104.1052" y1="1490.5267" x2="2173.0244" y2="1490.5267">
				<stop  offset="0" style="stop-color:#2B3582"/>
				<stop  offset="1" style="stop-color:#150E42"/>
			</linearGradient>
			<path style="fill:url(#SVGID_00000078020515226402361820000017152662312355884418_);" d="M2173,1523.1
				c0,18.7-15.2,33.8-33.8,33.8h-1.2c-18.7,0-33.8-15.2-33.8-33.8v-65.2c0-18.7,15.2-33.8,33.8-33.8h1.2c18.7,0,33.8,15.2,33.8,33.8
				V1523.1z"/>
		</g>
		<g class="st33">
			<path class="st34" d="M2126.3,1100.7c0,3.2-2.6,5.8-5.8,5.8H2105c-3.2,0-5.8-2.6-5.8-5.8v-0.7c0-3.2,2.6-5.8,5.8-5.8h15.5
				c3.2,0,5.8,2.6,5.8,5.8V1100.7z"/>
			<path class="st34" d="M2126.3,1179.5c0,3.2-2.6,5.8-5.8,5.8H2105c-3.2,0-5.8-2.6-5.8-5.8v-0.7c0-3.2,2.6-5.8,5.8-5.8h15.5
				c3.2,0,5.8,2.6,5.8,5.8V1179.5z"/>
			<path class="st34" d="M2104.1,1130.3c0,3.2-2.6,5.8-5.8,5.8h-0.7c-3.2,0-5.8-2.6-5.8-5.8v-15.5c0-3.2,2.6-5.8,5.8-5.8h0.7
				c3.2,0,5.8,2.6,5.8,5.8V1130.3z"/>
			<path class="st34" d="M2104.1,1164.7c0,3.2-2.6,5.8-5.8,5.8h-0.7c-3.2,0-5.8-2.6-5.8-5.8v-15.5c0-3.2,2.6-5.8,5.8-5.8h0.7
				c3.2,0,5.8,2.6,5.8,5.8V1164.7z"/>
			<path class="st34" d="M2143.5,1130.3c0,3.2-2.6,5.8-5.8,5.8h-0.7c-3.2,0-5.8-2.6-5.8-5.8v-15.5c0-3.2,2.6-5.8,5.8-5.8h0.7
				c3.2,0,5.8,2.6,5.8,5.8V1130.3z"/>
			<path class="st34" d="M2143.5,1164.7c0,3.2-2.6,5.8-5.8,5.8h-0.7c-3.2,0-5.8-2.6-5.8-5.8v-15.5c0-3.2,2.6-5.8,5.8-5.8h0.7
				c3.2,0,5.8,2.6,5.8,5.8V1164.7z"/>
		</g>
	</g>
	<g>
		
			<linearGradient id="SVGID_00000051359609678429050570000007828946142081172921_" gradientUnits="userSpaceOnUse" x1="1518.8591" y1="380.5697" x2="416.407" y2="2140.9351" gradientTransform="matrix(0.9996 2.870000e-02 -2.870000e-02 0.9996 -49.8959 -11.9939)">
			<stop  offset="0" style="stop-color:#2B3582"/>
			<stop  offset="1" style="stop-color:#150E42"/>
		</linearGradient>
		<path style="fill:url(#SVGID_00000051359609678429050570000007828946142081172921_);" d="M673.5,274.9l815.6,16.1
			c45,0.9,81.4,36.9,82.8,81.9l36.9,1183.7c1.1,35.2-27.2,64.3-62.4,64.3l-935.1-1.4c-33.1-0.1-59.7-27.2-59.1-60.3l23.5-1190.1
			C576.7,316,620.5,273.9,673.5,274.9z"/>
		<path class="st34" d="M748.3,1602.2C748.3,1602.2,748.3,1602.2,748.3,1602.2l-104.7-3.4c-35.1-1.1-63.1-30.6-62.4-65.7l3.1-157.9
			c0-1.3,1.1-2.4,2.5-2.4c0,0,0,0,0,0c1.4,0,2.4,1.2,2.4,2.5l-3.1,157.9c-0.6,32.4,25.2,59.7,57.6,60.7l104.6,3.4
			c1.4,0,2.4,1.2,2.4,2.5C750.7,1601.1,749.7,1602.2,748.3,1602.2z"/>
		
			<linearGradient id="SVGID_00000079483143116577486350000004753545431305147543_" gradientUnits="userSpaceOnUse" x1="70.9362" y1="4840.2261" x2="1022.3718" y2="3436.5242" gradientTransform="matrix(0.9998 1.970000e-02 -1.970000e-02 0.9998 462.7197 -2992.8135)">
			<stop  offset="0" style="stop-color:#A737D5"/>
			<stop  offset="1" style="stop-color:#EF497A"/>
		</linearGradient>
		<path style="fill:url(#SVGID_00000079483143116577486350000004753545431305147543_);" d="M676.2,265.4
			c111.1,17.3,493.2,71.6,810.3,53.5c14.5-0.8,26.8,10.4,27.3,24.8l39.7,1189c0.5,16.3-12.2,30-28.5,30.6
			c-133.3,5.3-682.4,24.9-877.7,0.6c-11.9-1.5-20.7-11.7-20.6-23.7L644,292.5C644.3,275.6,659.4,262.8,676.2,265.4z"/>
		<path class="st37" d="M687.5,296.4c106.9,16.6,474.6,68.9,779.8,51.5c13.9-0.8,25.8,10,26.2,23.9l38.2,1144.2
			c0.5,15.7-11.7,28.9-27.4,29.5c-128.3,5.1-656.7,24-844.6,0.5c-11.4-1.4-19.9-11.2-19.8-22.8l16.6-1200.7
			C656.8,306.3,671.4,293.9,687.5,296.4z"/>
		
			<linearGradient id="SVGID_00000093169477449365535820000011114773461268237726_" gradientUnits="userSpaceOnUse" x1="1279.9203" y1="-20.8277" x2="904.4547" y2="473.0885" gradientTransform="matrix(0.9996 2.870000e-02 -2.870000e-02 0.9996 -49.8959 -11.9939)">
			<stop  offset="0" style="stop-color:#2B3582"/>
			<stop  offset="1" style="stop-color:#150E42"/>
		</linearGradient>
		<path style="fill:url(#SVGID_00000093169477449365535820000011114773461268237726_);" d="M1135,122.7
			c-29.1-21.1-54.7-21.2-72.8-16.2c-16.5,4.5-27.5,20.2-26.3,37.3l6.1,85l92.4,10C1134.4,238.9,1192,164.1,1135,122.7z M1093,190.4
			c-12.7-0.3-22.9-10.8-22.6-23.5c0.3-12.7,10.8-22.9,23.5-22.6c12.7,0.3,22.9,10.8,22.6,23.5C1116.3,180.5,1105.7,190.6,1093,190.4
			z"/>
		<path class="st34" d="M1050.4,195.4c-1.6-0.6-2.8-2.1-2.9-3.9l-1-13.5c-0.2-2.5,1.7-4.7,4.2-4.9c2.5-0.2,4.7,1.7,4.9,4.2l1,13.5
			c0.2,2.5-1.7,4.7-4.2,4.9C1051.7,195.7,1051,195.6,1050.4,195.4z M1048.5,168.8c-1.6-0.6-2.8-2.1-2.9-3.9l-0.7-10.3
			c-1.2-17.4,10-33.4,26.8-38c11.5-3.1,23.3-3.4,35-0.7c2.4,0.6,4,3,3.5,5.5c-0.6,2.5-3,4-5.5,3.5c-10.3-2.3-20.5-2.1-30.5,0.6
			c-12.6,3.4-21,15.4-20.1,28.5l0.7,10.3c0.2,2.5-1.7,4.7-4.2,4.9C1049.8,169.2,1049.1,169.1,1048.5,168.8z"/>
		
			<linearGradient id="SVGID_00000062162980570280588270000016993081489743449770_" gradientUnits="userSpaceOnUse" x1="865.7524" y1="3011.2212" x2="490.5229" y2="3504.8267" gradientTransform="matrix(0.9998 1.970000e-02 -1.970000e-02 0.9998 462.7197 -2992.8135)">
			<stop  offset="0" style="stop-color:#2B3582"/>
			<stop  offset="1" style="stop-color:#150E42"/>
		</linearGradient>
		<path style="fill:url(#SVGID_00000062162980570280588270000016993081489743449770_);" d="M914.7,281.2l0.8-42.7
			c0.3-14.7,12.7-26.3,27.4-25.5l294,15.9c13,0.7,23.4,11.2,23.9,24.3l1.7,41.1L914.7,281.2z"/>
		<path class="st34" d="M1025.5,231C1025.4,231,1025.4,231,1025.5,231l-12.7-0.2c-1.4,0-2.4-1.2-2.4-2.5c0-1.4,1.3-2.4,2.5-2.4
			l12.7,0.2c1.4,0,2.4,1.2,2.4,2.5C1027.9,229.9,1026.8,231,1025.5,231z"/>
		<path class="st34" d="M929.2,270.2c-1.7-0.7-3-2.4-2.9-4.4l0.3-17.3c0.1-7.1,3-13.7,8.1-18.6c5.1-4.9,11.8-7.5,18.9-7.4l46.5,0.9
			c2.5,0.1,4.5,2.1,4.5,4.7c0,2.5-2.1,4.5-4.7,4.5l-46.5-0.9c-9.6-0.2-17.5,7.5-17.7,17l-0.3,17.3c0,2.5-2.1,4.5-4.7,4.5
			C930.2,270.5,929.7,270.4,929.2,270.2z"/>
		
			<linearGradient id="SVGID_00000085220672353065940800000013696980595047830934_" gradientUnits="userSpaceOnUse" x1="818.4659" y1="3041.416" x2="559.3792" y2="3517.1519" gradientTransform="matrix(0.9998 1.970000e-02 -1.970000e-02 0.9998 462.7197 -2992.8135)">
			<stop  offset="0" style="stop-color:#2B3582"/>
			<stop  offset="1" style="stop-color:#150E42"/>
		</linearGradient>
		<path style="fill:url(#SVGID_00000085220672353065940800000013696980595047830934_);" d="M822.8,263.8l514.5,10.1
			c18.5,0.4,34.1,14,36.9,32.3l0.4,2.5c3.1,20-12.7,38-32.9,37.6l-527.9-10.4c-12.1-0.2-21.6-10.6-20.8-22.7l1.6-23.6
			C795.5,274.9,808,263.5,822.8,263.8z"/>
		<g class="st41">
			<g>
				<path class="st34" d="M1417.4,416.7c0,8.5-6.9,15.4-15.4,15.4H795.3c-8.5,0-15.4-6.9-15.4-15.4v-1.2c0-8.5,6.9-15.4,15.4-15.4
					H1402c8.5,0,15.4,6.9,15.4,15.4V416.7z"/>
				<path class="st34" d="M1417.4,473.4c0,8.5-6.9,15.4-15.4,15.4H795.3c-8.5,0-15.4-6.9-15.4-15.4v-1.2c0-8.5,6.9-15.4,15.4-15.4
					H1402c8.5,0,15.4,6.9,15.4,15.4V473.4z"/>
			</g>
			<g>
				<path class="st34" d="M988.2,574.9c0,8.4-8.8,14.8-19.7,14.8H749.4c-10.9,0-19.7-6.4-19.7-14.8l0,0c0-8.4,8.8-14.8,19.7-14.8
					h219.1C979.4,560.1,988.2,566.5,988.2,574.9L988.2,574.9z"/>
				<path class="st34" d="M1086.6,642.6c0,7.8-8.8,13.5-19.7,13.5H847.9c-10.9,0-19.7-5.7-19.7-13.5l0,0c0-7.8,8.8-13.5,19.7-13.5
					H1067C1077.8,629,1086.6,634.8,1086.6,642.6L1086.6,642.6z"/>
				<path class="st34" d="M1086.6,694.3c0,7.8-8.8,13.5-19.7,13.5H847.9c-10.9,0-19.7-5.7-19.7-13.5l0,0c0-7.8,8.8-13.5,19.7-13.5
					H1067C1077.8,680.7,1086.6,686.4,1086.6,694.3L1086.6,694.3z"/>
				<path class="st34" d="M1086.6,748.4c0,7.8-8.8,13.5-19.7,13.5H847.9c-10.9,0-19.7-5.7-19.7-13.5l0,0c0-7.8,8.8-13.5,19.7-13.5
					H1067C1077.8,734.9,1086.6,740.6,1086.6,748.4L1086.6,748.4z"/>
				<path class="st34" d="M1392.8,642.6c0,7.5-6.1,13.5-13.5,13.5h-66.5c-7.5,0-13.5-6.1-13.5-13.5l0,0c0-7.5,6.1-13.5,13.5-13.5
					h66.5C1386.7,629,1392.8,635.1,1392.8,642.6L1392.8,642.6z"/>
				<path class="st34" d="M1392.8,694.3c0,7.5-6.1,13.5-13.5,13.5h-66.5c-7.5,0-13.5-6.1-13.5-13.5l0,0c0-7.5,6.1-13.5,13.5-13.5
					h66.5C1386.7,680.7,1392.8,686.8,1392.8,694.3L1392.8,694.3z"/>
				<path class="st34" d="M1392.8,748.4c0,7.5-6.1,13.5-13.5,13.5h-66.5c-7.5,0-13.5-6.1-13.5-13.5l0,0c0-7.5,6.1-13.5,13.5-13.5
					h66.5C1386.7,734.9,1392.8,740.9,1392.8,748.4L1392.8,748.4z"/>
				<path class="st34" d="M1429.7,821c0,2.7-2.2,4.9-4.9,4.9h-352c-2.7,0-4.9-2.2-4.9-4.9l0,0c0-2.7,2.2-4.9,4.9-4.9h352
					C1427.5,816.1,1429.7,818.3,1429.7,821L1429.7,821z"/>
			</g>
			<g>
				<path class="st34" d="M988.2,904.7c0,8.4-8.8,14.8-19.7,14.8H749.4c-10.9,0-19.7-6.4-19.7-14.8l0,0c0-8.4,8.8-14.8,19.7-14.8
					h219.1C979.4,889.9,988.2,896.3,988.2,904.7L988.2,904.7z"/>
				<path class="st34" d="M1086.6,972.4c0,7.8-8.8,13.5-19.7,13.5H847.9c-10.9,0-19.7-5.7-19.7-13.5l0,0c0-7.8,8.8-13.5,19.7-13.5
					H1067C1077.8,958.9,1086.6,964.6,1086.6,972.4L1086.6,972.4z"/>
				<path class="st34" d="M1086.6,1024.1c0,7.8-8.8,13.5-19.7,13.5H847.9c-10.9,0-19.7-5.7-19.7-13.5l0,0c0-7.8,8.8-13.5,19.7-13.5
					H1067C1077.8,1010.6,1086.6,1016.3,1086.6,1024.1L1086.6,1024.1z"/>
				<path class="st34" d="M1086.6,1078.2c0,7.8-8.8,13.5-19.7,13.5H847.9c-10.9,0-19.7-5.7-19.7-13.5l0,0c0-7.8,8.8-13.5,19.7-13.5
					H1067C1077.8,1064.7,1086.6,1070.4,1086.6,1078.2L1086.6,1078.2z"/>
				<path class="st34" d="M1392.8,972.4c0,7.5-6.1,13.5-13.5,13.5h-66.5c-7.5,0-13.5-6.1-13.5-13.5l0,0c0-7.5,6.1-13.5,13.5-13.5
					h66.5C1386.7,958.9,1392.8,964.9,1392.8,972.4L1392.8,972.4z"/>
				<path class="st34" d="M1392.8,1024.1c0,7.5-6.1,13.5-13.5,13.5h-66.5c-7.5,0-13.5-6.1-13.5-13.5l0,0c0-7.5,6.1-13.5,13.5-13.5
					h66.5C1386.7,1010.6,1392.8,1016.6,1392.8,1024.1L1392.8,1024.1z"/>
				<path class="st34" d="M1392.8,1078.2c0,7.5-6.1,13.5-13.5,13.5h-66.5c-7.5,0-13.5-6.1-13.5-13.5l0,0c0-7.5,6.1-13.5,13.5-13.5
					h66.5C1386.7,1064.7,1392.8,1070.8,1392.8,1078.2L1392.8,1078.2z"/>
				<path class="st34" d="M1429.7,1150.9c0,2.7-2.2,4.9-4.9,4.9h-352c-2.7,0-4.9-2.2-4.9-4.9l0,0c0-2.7,2.2-4.9,4.9-4.9h352
					C1427.5,1145.9,1429.7,1148.1,1429.7,1150.9L1429.7,1150.9z"/>
			</g>
			<g>
				<path class="st34" d="M988.2,1229.6c0,8.4-8.8,14.8-19.7,14.8H749.4c-10.9,0-19.7-6.4-19.7-14.8l0,0c0-8.4,8.8-14.8,19.7-14.8
					h219.1C979.4,1214.9,988.2,1221.2,988.2,1229.6L988.2,1229.6z"/>
				<path class="st34" d="M1086.6,1297.3c0,7.8-8.8,13.5-19.7,13.5H847.9c-10.9,0-19.7-5.7-19.7-13.5l0,0c0-7.8,8.8-13.5,19.7-13.5
					H1067C1077.8,1283.8,1086.6,1289.5,1086.6,1297.3L1086.6,1297.3z"/>
				<path class="st34" d="M1086.6,1349c0,7.8-8.8,13.5-19.7,13.5H847.9c-10.9,0-19.7-5.7-19.7-13.5l0,0c0-7.8,8.8-13.5,19.7-13.5
					H1067C1077.8,1335.5,1086.6,1341.2,1086.6,1349L1086.6,1349z"/>
				<path class="st34" d="M1086.6,1403.1c0,7.8-8.8,13.5-19.7,13.5H847.9c-10.9,0-19.7-5.7-19.7-13.5l0,0c0-7.8,8.8-13.5,19.7-13.5
					H1067C1077.8,1389.6,1086.6,1395.3,1086.6,1403.1L1086.6,1403.1z"/>
				<path class="st34" d="M1392.8,1302.2c0,7.5-6.1,13.5-13.5,13.5h-66.5c-7.5,0-13.5-6.1-13.5-13.5l0,0c0-7.5,6.1-13.5,13.5-13.5
					h66.5C1386.7,1288.7,1392.8,1294.8,1392.8,1302.2L1392.8,1302.2z"/>
				<path class="st34" d="M1392.8,1353.9c0,7.5-6.1,13.5-13.5,13.5h-66.5c-7.5,0-13.5-6.1-13.5-13.5l0,0c0-7.5,6.1-13.5,13.5-13.5
					h66.5C1386.7,1340.4,1392.8,1346.4,1392.8,1353.9L1392.8,1353.9z"/>
				<path class="st34" d="M1392.8,1408.1c0,7.5-6.1,13.5-13.5,13.5h-66.5c-7.5,0-13.5-6.1-13.5-13.5l0,0c0-7.5,6.1-13.5,13.5-13.5
					h66.5C1386.7,1394.5,1392.8,1400.6,1392.8,1408.1L1392.8,1408.1z"/>
				<path class="st34" d="M1429.7,1480.7c0,2.7-2.2,4.9-4.9,4.9h-352c-2.7,0-4.9-2.2-4.9-4.9l0,0c0-2.7,2.2-4.9,4.9-4.9h352
					C1427.5,1475.8,1429.7,1478,1429.7,1480.7L1429.7,1480.7z"/>
			</g>
		</g>
	</g>
	<g>
		<g>
			
				<linearGradient id="SVGID_00000080199267953507553330000017525239847639807629_" gradientUnits="userSpaceOnUse" x1="48.5489" y1="642.4098" x2="129.8513" y2="548.041">
				<stop  offset="0" style="stop-color:#FDF53F"/>
				<stop  offset="1" style="stop-color:#D93C65"/>
			</linearGradient>
			<circle style="fill:url(#SVGID_00000080199267953507553330000017525239847639807629_);" cx="131.5" cy="546.1" r="60.6"/>
			
				<linearGradient id="SVGID_00000125588581416981416570000005468393739894959285_" gradientUnits="userSpaceOnUse" x1="175.7925" y1="479.2117" x2="-64.6211" y2="842.4081">
				<stop  offset="0" style="stop-color:#FDF53F"/>
				<stop  offset="1" style="stop-color:#D93C65"/>
			</linearGradient>
			<circle style="fill:url(#SVGID_00000125588581416981416570000005468393739894959285_);" cx="131.5" cy="546.1" r="58.6"/>
			<path class="st34" d="M83.2,524.3c-0.4,0-0.8-0.1-1.1-0.3c-1.2-0.6-1.7-2.1-1.1-3.3c9.7-19.2,29-31.1,50.5-31.1
				c3.4,0,6.9,0.3,10.2,0.9c1.3,0.2,2.2,1.5,2,2.9c-0.2,1.3-1.5,2.2-2.9,2c-3.1-0.6-6.2-0.8-9.3-0.8c-19.6,0-37.3,10.9-46.1,28.4
				C84.9,523.8,84.1,524.3,83.2,524.3z"/>
			<circle class="st44" cx="132.8" cy="547.4" r="49.6"/>
			<g>
				
					<linearGradient id="SVGID_00000137847489280161590730000013889241188892472506_" gradientUnits="userSpaceOnUse" x1="168.6207" y1="489.6186" x2="40.6057" y2="704.5346">
					<stop  offset="0" style="stop-color:#FDF53F"/>
					<stop  offset="1" style="stop-color:#D93C65"/>
				</linearGradient>
				<path style="fill:url(#SVGID_00000137847489280161590730000013889241188892472506_);" d="M127.9,584.3v-5.4
					c-5.6-0.2-11.2-1.6-15.1-3.3c-1.4-0.6-2.1-2.2-1.7-3.7l1.4-5c0.5-1.8,2.5-2.8,4.3-2.1c3.9,1.6,8.8,2.9,14,2.9
					c5.4,0,9.5-1.8,9.5-5.6c0-3.4-3.1-5.4-10.7-7.4c-10.7-2.9-18.5-7.6-18.5-17.1c0-8.5,6.2-15.1,17.1-16.8v-5.4
					c0-1.7,1.4-3.1,3.1-3.1h3.2c1.7,0,3.1,1.4,3.1,3.1v4.8c5.2,0.2,9,1.1,12,2.2c1.5,0.5,2.4,2.2,2,3.8l-1.3,4.6
					c-0.5,1.8-2.4,2.8-4.1,2.1c-2.8-1-6.7-2.1-11.8-2.1c-6.4,0-8.3,2.7-8.3,5.1c0,2.9,3.9,5,12.2,7.5c11.9,3.6,16.9,8.5,16.9,17.4
					c0,8.2-6.1,15.5-17.8,17.4v6c0,1.7-1.4,3.1-3.1,3.1H131C129.3,587.4,127.9,586,127.9,584.3z"/>
			</g>
		</g>
		<g>
			
				<linearGradient id="SVGID_00000141419316795894077360000002666782702333140906_" gradientUnits="userSpaceOnUse" x1="159.6402" y1="641.8517" x2="301.1736" y2="477.5721">
				<stop  offset="0" style="stop-color:#FDF53F"/>
				<stop  offset="1" style="stop-color:#D93C65"/>
			</linearGradient>
			<circle style="fill:url(#SVGID_00000141419316795894077360000002666782702333140906_);" cx="304" cy="474.3" r="105.5"/>
			
				<linearGradient id="SVGID_00000003105107255454122100000008054002650189819566_" gradientUnits="userSpaceOnUse" x1="381.1493" y1="357.7523" x2="-37.3691" y2="990.0143">
				<stop  offset="0" style="stop-color:#FDF53F"/>
				<stop  offset="1" style="stop-color:#D93C65"/>
			</linearGradient>
			<circle style="fill:url(#SVGID_00000003105107255454122100000008054002650189819566_);" cx="304" cy="474.3" r="102"/>
			<path class="st34" d="M219.9,434.3c-0.4,0-0.8-0.1-1.1-0.3c-1.2-0.6-1.7-2.1-1.1-3.3c16.5-32.8,49.6-53.1,86.3-53.1
				c5.9,0,11.7,0.5,17.4,1.6c1.3,0.2,2.2,1.5,2,2.9c-0.2,1.3-1.5,2.2-2.9,2c-5.4-1-11-1.5-16.5-1.5c-34.8,0-66.2,19.3-81.9,50.4
				C221.7,433.8,220.8,434.3,219.9,434.3z"/>
			<circle class="st44" cx="306.3" cy="476.5" r="86.3"/>
			<g>
				
					<linearGradient id="SVGID_00000137092854978171464700000017364906249701788859_" gradientUnits="userSpaceOnUse" x1="368.6645" y1="375.8685" x2="145.812" y2="750.0009">
					<stop  offset="0" style="stop-color:#FDF53F"/>
					<stop  offset="1" style="stop-color:#D93C65"/>
				</linearGradient>
				<path style="fill:url(#SVGID_00000137092854978171464700000017364906249701788859_);" d="M297.8,540.7v-9.4
					c-9.8-0.4-19.5-2.7-26.4-5.7c-2.5-1.1-3.7-3.8-3-6.4l2.4-8.7c0.9-3.2,4.4-4.9,7.4-3.6c6.8,2.9,15.2,5.1,24.3,5.1
					c9.4,0,16.5-3.2,16.5-9.8c0-5.9-5.4-9.4-18.5-12.9c-18.7-5.1-32.1-13.3-32.1-29.7c0-14.9,10.9-26.2,29.7-29.3v-9.4
					c0-3,2.5-5.5,5.5-5.5h5.5c3,0,5.5,2.5,5.5,5.5v8.4c9.1,0.4,15.7,1.9,20.9,3.8c2.7,0.9,4.1,3.8,3.4,6.6l-2.2,8.1
					c-0.8,3.1-4.2,4.8-7.2,3.7c-4.8-1.8-11.6-3.7-20.5-3.7c-11.2,0-14.4,4.6-14.4,8.8c0,5.1,6.7,8.6,21.3,13.1
					c20.8,6.2,29.4,14.9,29.4,30.4c0,14.2-10.6,27-31,30.2v10.5c0,3-2.5,5.5-5.5,5.5h-5.5C300.2,546.1,297.8,543.7,297.8,540.7z"/>
			</g>
		</g>
		<g>
			
				<linearGradient id="SVGID_00000034060788262851879550000018333418706734935992_" gradientUnits="userSpaceOnUse" x1="228.2267" y1="882.3913" x2="373.8629" y2="713.3495">
				<stop  offset="0" style="stop-color:#FDF53F"/>
				<stop  offset="1" style="stop-color:#D93C65"/>
			</linearGradient>
			<circle style="fill:url(#SVGID_00000034060788262851879550000018333418706734935992_);" cx="376.8" cy="709.9" r="108.6"/>
			
				<linearGradient id="SVGID_00000127723437596160112670000017781607544740219561_" gradientUnits="userSpaceOnUse" x1="456.1569" y1="590.0564" x2="25.5067" y2="1240.646">
				<stop  offset="0" style="stop-color:#FDF53F"/>
				<stop  offset="1" style="stop-color:#D93C65"/>
			</linearGradient>
			<circle style="fill:url(#SVGID_00000127723437596160112670000017781607544740219561_);" cx="376.8" cy="709.9" r="105"/>
			<path class="st34" d="M290.2,668.8c-0.4,0-0.8-0.1-1.1-0.3c-1.2-0.6-1.7-2.1-1.1-3.3c17-33.7,51-54.6,88.8-54.6
				c6,0,12.1,0.5,17.9,1.6c1.3,0.2,2.2,1.5,2,2.9c-0.2,1.3-1.5,2.2-2.9,2c-5.6-1-11.3-1.5-17-1.5c-35.9,0-68.2,19.9-84.4,51.9
				C292,668.3,291.1,668.8,290.2,668.8z"/>
			
				<ellipse transform="matrix(0.2334 -0.9724 0.9724 0.2334 -401.9298 914.6481)" class="st44" cx="379.1" cy="712.2" rx="88.8" ry="88.8"/>
			<g>
				
					<linearGradient id="SVGID_00000014618619086904467620000000914297372321387412_" gradientUnits="userSpaceOnUse" x1="443.3102" y1="608.6978" x2="213.9977" y2="993.6754">
					<stop  offset="0" style="stop-color:#FDF53F"/>
					<stop  offset="1" style="stop-color:#D93C65"/>
				</linearGradient>
				<path style="fill:url(#SVGID_00000014618619086904467620000000914297372321387412_);" d="M370.4,778.3v-9.7
					c-10.1-0.4-20-2.8-27.1-5.9c-2.5-1.1-3.8-3.9-3.1-6.6l2.5-9c0.9-3.3,4.5-5,7.6-3.7c7,2.9,15.7,5.3,25,5.3
					c9.7,0,16.9-3.3,16.9-10c0-6.1-5.6-9.7-19.1-13.3c-19.2-5.3-33.1-13.7-33.1-30.6c0-15.3,11.2-27,30.6-30.1V655
					c0-3.1,2.5-5.6,5.6-5.6h5.7c3.1,0,5.6,2.5,5.6,5.6v8.7c9.3,0.4,16.1,2,21.5,3.9c2.8,1,4.3,3.9,3.5,6.8l-2.3,8.3
					c-0.9,3.2-4.3,5-7.4,3.8c-5-1.9-12-3.8-21.1-3.8c-11.5,0-14.8,4.8-14.8,9c0,5.3,6.9,8.9,21.9,13.5c21.4,6.4,30.3,15.3,30.3,31.3
					c0,14.6-10.9,27.8-31.9,31.1v10.8c0,3.1-2.5,5.6-5.6,5.6H376C372.9,783.9,370.4,781.4,370.4,778.3z"/>
			</g>
		</g>
		<g>
			
				<linearGradient id="SVGID_00000053540777558351290920000017784367152031751353_" gradientUnits="userSpaceOnUse" x1="407.2328" y1="688.3889" x2="513.9394" y2="564.5332">
				<stop  offset="0" style="stop-color:#FDF53F"/>
				<stop  offset="1" style="stop-color:#D93C65"/>
			</linearGradient>
			<circle style="fill:url(#SVGID_00000053540777558351290920000017784367152031751353_);" cx="516.1" cy="562" r="79.6"/>
			
				<linearGradient id="SVGID_00000164487177325863795200000008936637636969476227_" gradientUnits="userSpaceOnUse" x1="574.2355" y1="474.1974" x2="258.7014" y2="950.8794">
				<stop  offset="0" style="stop-color:#FDF53F"/>
				<stop  offset="1" style="stop-color:#D93C65"/>
			</linearGradient>
			<circle style="fill:url(#SVGID_00000164487177325863795200000008936637636969476227_);" cx="516.1" cy="562" r="76.9"/>
			<path class="st34" d="M452.7,532.5c-0.4,0-0.8-0.1-1.1-0.3c-1.2-0.6-1.7-2.1-1.1-3.3c12.6-24.9,37.7-40.4,65.6-40.4
				c4.4,0,8.9,0.4,13.2,1.2c1.3,0.2,2.2,1.5,2,2.9c-0.2,1.3-1.5,2.2-2.9,2c-4.1-0.7-8.2-1.1-12.4-1.1c-26,0-49.5,14.4-61.2,37.7
				C454.4,532.1,453.6,532.5,452.7,532.5z"/>
			
				<ellipse transform="matrix(0.9264 -0.3766 0.3766 0.9264 -174.1665 236.4834)" class="st44" cx="517.8" cy="563.7" rx="65.1" ry="65.1"/>
			<g>
				
					<linearGradient id="SVGID_00000002377548784445416860000007068874840326808233_" gradientUnits="userSpaceOnUse" x1="564.8229" y1="487.8557" x2="396.8073" y2="769.926">
					<stop  offset="0" style="stop-color:#FDF53F"/>
					<stop  offset="1" style="stop-color:#D93C65"/>
				</linearGradient>
				<path style="fill:url(#SVGID_00000002377548784445416860000007068874840326808233_);" d="M511.4,612.1V605
					c-7.4-0.3-14.7-2-19.9-4.3c-1.9-0.8-2.8-2.9-2.3-4.8l1.8-6.6c0.7-2.4,3.3-3.7,5.6-2.7c5.1,2.2,11.5,3.9,18.3,3.9
					c7.1,0,12.4-2.4,12.4-7.4c0-4.5-4.1-7.1-14-9.8c-14.1-3.9-24.2-10-24.2-22.4c0-11.2,8.2-19.8,22.4-22.1v-7.1
					c0-2.3,1.8-4.1,4.1-4.1h4.2c2.3,0,4.1,1.8,4.1,4.1v6.4c6.8,0.3,11.8,1.4,15.8,2.8c2,0.7,3.1,2.9,2.6,5l-1.7,6.1
					c-0.6,2.4-3.2,3.6-5.4,2.8c-3.6-1.4-8.8-2.8-15.4-2.8c-8.4,0-10.8,3.5-10.8,6.6c0,3.9,5.1,6.5,16,9.9
					c15.7,4.7,22.2,11.2,22.2,22.9c0,10.7-8,20.4-23.4,22.8v7.9c0,2.3-1.8,4.1-4.1,4.1h-4.2C513.2,616.2,511.4,614.4,511.4,612.1z"
					/>
			</g>
		</g>
	</g>
	<g>
		
			<linearGradient id="SVGID_00000180325363484419157140000010953931206136910748_" gradientUnits="userSpaceOnUse" x1="1807.918" y1="315.3467" x2="1715.7483" y2="750.7679">
			<stop  offset="0" style="stop-color:#53D8FF"/>
			<stop  offset="1" style="stop-color:#3840F7"/>
		</linearGradient>
		<path style="fill:url(#SVGID_00000180325363484419157140000010953931206136910748_);" d="M1491.6,636.1c-5.7-1.9-4.9-10.2,1.1-11
			c27.1-3.5,66.7-14.1,79.7-45.9c20.4-49.8-21.8-242,172.2-276.4c178.9-31.7,278.6,24.9,276.4,190.3
			C2018.8,653.5,1761.2,728.6,1491.6,636.1z"/>
		<g class="st56">
			<rect x="1628.8" y="454.8" class="st34" width="18.2" height="142.8"/>
			<rect x="1659.3" y="503.9" class="st34" width="18.2" height="93.7"/>
			<rect x="1689.8" y="382.6" class="st34" width="18.2" height="215"/>
			<rect x="1720.3" y="546" class="st34" width="18.2" height="51.6"/>
			<rect x="1750.8" y="411.4" class="st34" width="18.2" height="186.3"/>
			<rect x="1781.3" y="443.6" class="st34" width="18.2" height="154"/>
			<rect x="1811.7" y="478.7" class="st34" width="18.2" height="119"/>
			<rect x="1842.2" y="339.2" class="st34" width="18.2" height="258.5"/>
			<rect x="1872.7" y="366.5" class="st34" width="18.2" height="231.1"/>
			<rect x="1903.2" y="407.9" class="st34" width="18.2" height="189.8"/>
			<rect x="1933.7" y="550.8" class="st34" width="18.2" height="46.9"/>
		</g>
	</g>
	<g>
		
			<linearGradient id="SVGID_00000064350804886875751160000003055862883339778963_" gradientUnits="userSpaceOnUse" x1="11817.2773" y1="1505.7604" x2="11598.5088" y2="1743.7195" gradientTransform="matrix(1 9.500000e-03 -9.500000e-03 1 -11384.5 -57.7272)">
			<stop  offset="0" style="stop-color:#2B3582"/>
			<stop  offset="1" style="stop-color:#150E42"/>
		</linearGradient>
		<path style="fill:url(#SVGID_00000064350804886875751160000003055862883339778963_);" d="M349.2,1577.4c0,0-2.4,12.8-3.6,25.5
			c-0.5,5,3.3,9.3,8.3,9.6c16.9,0.9,53.1,2.6,66,2.1c2-0.1,3.2-2.1,2.5-3.9l0,0c-0.6-1.5-1.7-2.8-3.2-3.5l-59.5-28L349.2,1577.4z"/>
		
			<linearGradient id="SVGID_00000093899181051355379320000004731305643120084871_" gradientUnits="userSpaceOnUse" x1="11746.2686" y1="1523.4316" x2="11765.7012" y2="1523.4316" gradientTransform="matrix(1 9.500000e-03 -9.500000e-03 1 -11384.5 -57.7272)">
			<stop  offset="0" style="stop-color:#F9B776"/>
			<stop  offset="1" style="stop-color:#F47960"/>
		</linearGradient>
		<path style="fill:url(#SVGID_00000093899181051355379320000004731305643120084871_);" d="M347.4,1569.8l1.7,15.4
			c0,0,10.4,5,17.6-0.4l-4.2-17.1L347.4,1569.8z"/>
		
			<linearGradient id="SVGID_00000036963481267314264650000001230533881739929491_" gradientUnits="userSpaceOnUse" x1="11834.5156" y1="1236.6359" x2="11648.3516" y2="1488.9572" gradientTransform="matrix(1 9.500000e-03 -9.500000e-03 1 -11384.5 -57.7272)">
			<stop  offset="0" style="stop-color:#FDF53F"/>
			<stop  offset="1" style="stop-color:#D93C65"/>
		</linearGradient>
		<path style="fill:url(#SVGID_00000036963481267314264650000001230533881739929491_);" d="M351.5,1281.4c-0.8,4-6.1,199.9,14,287.9
			c0.3,1.4-0.4,2.9-1.8,3.4c-3.2,1.3-9.5,3.1-17.1,3.3c-2.3,0.1-4.4-1.5-5.1-3.7c-5.8-20.4-33.5-122.8-36.3-220.3
			c-3.1-109,0-3.7,0-3.7l3.1-67.3L351.5,1281.4z"/>
		
			<linearGradient id="SVGID_00000129902295566260326370000011391659865721028026_" gradientUnits="userSpaceOnUse" x1="11768.2002" y1="1460.6332" x2="11549.4229" y2="1698.6024" gradientTransform="matrix(1 9.500000e-03 -9.500000e-03 1 -11384.5 -57.7272)">
			<stop  offset="0" style="stop-color:#2B3582"/>
			<stop  offset="1" style="stop-color:#150E42"/>
		</linearGradient>
		<path style="fill:url(#SVGID_00000129902295566260326370000011391659865721028026_);" d="M280.4,1583.4c0,0-3.7,6.4-7.3,23.6
			c-0.7,3.1,1.5,6.1,4.6,6.4c5.6,0.6,14.2,1.4,21.1,1.4c3.2,0,5.7-2.7,5.3-5.9c-0.7-6.3-3-16.6-10.2-24.7L280.4,1583.4z"/>
		
			<linearGradient id="SVGID_00000090989019751978224980000013533267308392470674_" gradientUnits="userSpaceOnUse" x1="11676.2334" y1="1522.4324" x2="11693.0107" y2="1522.4324" gradientTransform="matrix(1 9.500000e-03 -9.500000e-03 1 -11384.5 -57.7272)">
			<stop  offset="0" style="stop-color:#F9B776"/>
			<stop  offset="1" style="stop-color:#F47960"/>
		</linearGradient>
		<path style="fill:url(#SVGID_00000090989019751978224980000013533267308392470674_);" d="M277.4,1563.6l4,23.2c0,0,4.2,3.2,12.5,1
			l-1.8-25L277.4,1563.6z"/>
		
			<linearGradient id="SVGID_00000045611880572879765580000017044862630852524697_" gradientUnits="userSpaceOnUse" x1="11801.3359" y1="1212.1565" x2="11615.1738" y2="1464.4749" gradientTransform="matrix(1 9.500000e-03 -9.500000e-03 1 -11384.5 -57.7272)">
			<stop  offset="0" style="stop-color:#FDF53F"/>
			<stop  offset="1" style="stop-color:#D93C65"/>
		</linearGradient>
		<path style="fill:url(#SVGID_00000045611880572879765580000017044862630852524697_);" d="M268.5,1286.6
			c-18.1,103.2,1.3,255.5,8,285.4c0.4,1.8,1.9,3.2,3.7,3.6c3.1,0.5,8.3,1,13.4-0.4c1.8-0.5,3-2.1,3.1-3.9
			c1.2-24.1,0.9-171.9,17.4-230.1c0.8-3,2.7-5.5,5.2-7.3l31.2-21.7l2.7-35.6L268.5,1286.6z"/>
		<g>
			
				<linearGradient id="SVGID_00000085209551403507333590000000563258443293162664_" gradientUnits="userSpaceOnUse" x1="-412.257" y1="1212.5623" x2="-275.6498" y2="1071.0322" gradientTransform="matrix(-1 0 0 1 -41.1824 0)">
				<stop  offset="0" style="stop-color:#53D8FF"/>
				<stop  offset="1" style="stop-color:#3840F7"/>
			</linearGradient>
			<path style="fill:url(#SVGID_00000085209551403507333590000000563258443293162664_);" d="M379.6,1091.8
				c-51.3-1.3-108.1,12.4-108.1,12.4c-16.2,89.1-4.5,192.2-4.5,192.2c39.6,10.8,84.6-5.6,84.6-5.6c7-37.3,38.8-142,38.8-142
				c25.1-2.9,45.8-9.9,62.9-19.3c-12.8-15.2-18.8-34.4-21.3-45.7C413.8,1089.3,395.4,1092.2,379.6,1091.8z"/>
			
				<linearGradient id="SVGID_00000181070448783557595480000014929834643377533571_" gradientUnits="userSpaceOnUse" x1="11826.2549" y1="1016.457" x2="11925.5361" y2="1016.457" gradientTransform="matrix(1 9.500000e-03 -9.500000e-03 1 -11384.5 -57.7272)">
				<stop  offset="0" style="stop-color:#F9B776"/>
				<stop  offset="1" style="stop-color:#F47960"/>
			</linearGradient>
			<path style="fill:url(#SVGID_00000181070448783557595480000014929834643377533571_);" d="M531.9,1017.6c-5-6.1-11.4-3.3-11.4-3.3
				c-7.9,31.8-47.7,57.3-88.5,69.6c2.5,11.3,8.5,30.5,21.3,45.7C521.2,1092.3,531.9,1017.6,531.9,1017.6z"/>
		</g>
		<g>
			
				<linearGradient id="SVGID_00000020389537069665564380000003899783660555992961_" gradientUnits="userSpaceOnUse" x1="-2666.686" y1="998.8851" x2="-2600.0671" y2="1150.4579" gradientTransform="matrix(-1 -9.500000e-03 -9.500000e-03 1 -2147.7737 30.9542)">
				<stop  offset="0" style="stop-color:#F9B776"/>
				<stop  offset="1" style="stop-color:#F47960"/>
			</linearGradient>
			<path style="fill:url(#SVGID_00000020389537069665564380000003899783660555992961_);" d="M530.7,1019.1c0.5,1.7-5.6,4.2-9.2-2.7
				c-0.1-3.3-2-17.4,0-20.1c10.6-14.2,31.1-31.9,31.1-31.9c3.4,3.4,0.5,6.7,0.5,6.7l-9.9,10.2c2,3.7,4.5,6.9,5.6,11.4
				c0.9,3.4,0.3,7.1-1.5,10.1c-1.8,3.1-4.2,7.1-6.4,10.3C536.7,1019.2,530.7,1019.1,530.7,1019.1z"/>
			
				<linearGradient id="SVGID_00000112614920291627248060000010923468840391875755_" gradientUnits="userSpaceOnUse" x1="11925.0605" y1="949.3384" x2="11952.8584" y2="906.5995" gradientTransform="matrix(1 9.500000e-03 -9.500000e-03 1 -11384.5 -57.7272)">
				<stop  offset="0" style="stop-color:#F9B776"/>
				<stop  offset="1" style="stop-color:#F47960"/>
			</linearGradient>
			<path style="fill:url(#SVGID_00000112614920291627248060000010923468840391875755_);" d="M538.8,988l-9,7.5l-2.9,7.5l7.9,8.9
				c0,0,2.8-15,4.9-18.2C541.7,990.6,540.7,989,538.8,988z"/>
		</g>
		
			<linearGradient id="SVGID_00000129193779509924206390000015923454560483652745_" gradientUnits="userSpaceOnUse" x1="-381.8586" y1="1241.9033" x2="-245.2508" y2="1100.3726" gradientTransform="matrix(-1 0 0 1 -41.1824 0)">
			<stop  offset="0" style="stop-color:#53D8FF"/>
			<stop  offset="1" style="stop-color:#3840F7"/>
		</linearGradient>
		<path style="fill:url(#SVGID_00000129193779509924206390000015923454560483652745_);" d="M290.7,1154.1l-19.2-49.9
			c0,0-48.3,32.1-56.5,73.4c9.1,0.8,25.5,3.3,41.6,11.6C260.2,1169.7,290.7,1154.1,290.7,1154.1z"/>
		
			<linearGradient id="SVGID_00000096778413706936786990000004935075720836239277_" gradientUnits="userSpaceOnUse" x1="11609.0068" y1="1157.0732" x2="11734.6445" y2="1157.0732" gradientTransform="matrix(1 9.500000e-03 -9.500000e-03 1 -11384.5 -57.7272)">
			<stop  offset="0" style="stop-color:#F9B776"/>
			<stop  offset="1" style="stop-color:#F47960"/>
		</linearGradient>
		<path style="fill:url(#SVGID_00000096778413706936786990000004935075720836239277_);" d="M332.1,1201.3c0,0-54.1,29.9-72,3.8
			c-3.7-5.4-4.6-10.8-3.6-15.9c-16.1-8.3-32.5-10.8-41.6-11.6c-2.5,12.4-1.4,25.7,5.8,39.1c31.3,58.5,118.4-2.1,118.4-2.1
			L332.1,1201.3z"/>
		
			<linearGradient id="SVGID_00000063625610540877744990000014585927437484858518_" gradientUnits="userSpaceOnUse" x1="11705.4834" y1="1022.7614" x2="11755.1592" y2="1022.7614" gradientTransform="matrix(1 9.500000e-03 -9.500000e-03 1 -11384.5 -57.7272)">
			<stop  offset="0" style="stop-color:#F9B776"/>
			<stop  offset="1" style="stop-color:#F47960"/>
		</linearGradient>
		<path style="fill:url(#SVGID_00000063625610540877744990000014585927437484858518_);" d="M328,1049.6l-16.8,47.1
			c-0.3,0.8,0,1.6,0.8,2.1c4.4,2.5,20.4,9.8,39.8-2.3c2-1.3,3.4-3.3,3.7-5.7l5.7-40.8L328,1049.6z"/>
		<g>
			
				<linearGradient id="SVGID_00000148624932590704662730000007928272063184201101_" gradientUnits="userSpaceOnUse" x1="2925.6204" y1="5905.1143" x2="2907.0576" y2="5843.8896" gradientTransform="matrix(0.7523 -0.6588 0.6588 0.7523 -5718.1753 -1469.7991)">
				<stop  offset="0" style="stop-color:#F9B776"/>
				<stop  offset="1" style="stop-color:#F47960"/>
			</linearGradient>
			<path style="fill:url(#SVGID_00000148624932590704662730000007928272063184201101_);" d="M363.9,1006.2c0,0,17.6,33.9,15.2,47.5
				c-2.4,13.6-24.6,12.4-44,1.2l-13.2-36.6L363.9,1006.2z"/>
			
				<linearGradient id="SVGID_00000092416985421879749960000017391565959815794050_" gradientUnits="userSpaceOnUse" x1="2908.8743" y1="5798.439" x2="2924.4019" y2="5887.0034" gradientTransform="matrix(0.7523 -0.6588 0.6588 0.7523 -5718.1753 -1469.7991)">
				<stop  offset="0" style="stop-color:#2B3582"/>
				<stop  offset="1" style="stop-color:#150E42"/>
			</linearGradient>
			<path style="fill:url(#SVGID_00000092416985421879749960000017391565959815794050_);" d="M336.2,1037c0.8-0.3,1.1-1.3,0.6-2
				c-1.4-2.2-4.1-6.7-4.9-10.6c0,0-3.2-2.1,8.3-4.7c11.5-2.6,28.5-6.7,32.2-16.4c3.6-9.5-5.4-33.4-20.2-14.5c-0.6,0.7-1.7,0.7-2.2,0
				c-2.4-3.1-8.6-9.7-17.4-5.8c-8.2,3.6-9.2,9.6-9.1,12.6c0,0.9-0.8,1.6-1.7,1.4c-4.1-0.8-14.1-1.6-18.8,8.6
				c-3.9,8.4-1.5,13.2,0.8,15.5c0.7,0.8,0.4,2-0.6,2.3c-2.7,0.8-6.3,3.1-6,9.5c0.4,8.8,10.3,8.1,13.1,7.8c0.5-0.1,0.9,0.1,1.2,0.4
				c2.4,2.7,13.1,14.1,24.9,15.6c1,0.1,1.8-0.9,1.5-1.8l-4.9-14.8c-0.2-0.7,0.1-1.4,0.8-1.7L336.2,1037z"/>
			
				<linearGradient id="SVGID_00000038371990256433476350000014017390596272963490_" gradientUnits="userSpaceOnUse" x1="2906.645" y1="5904.8281" x2="2889.9436" y2="5849.7437" gradientTransform="matrix(0.7523 -0.6588 0.6588 0.7523 -5718.1753 -1469.7991)">
				<stop  offset="0" style="stop-color:#F9B776"/>
				<stop  offset="1" style="stop-color:#F47960"/>
			</linearGradient>
			<path style="fill:url(#SVGID_00000038371990256433476350000014017390596272963490_);" d="M338.2,1039.1c0,0-12.7-8.9-13.7-1.5
				c-1,7.4,11.4,10.8,17.6,8.1L338.2,1039.1z"/>
		</g>
		<g>
			<g>
				
					<linearGradient id="SVGID_00000131334237542980800620000005993972117579607449_" gradientUnits="userSpaceOnUse" x1="11479.3467" y1="1129.801" x2="11548.6738" y2="1418.663" gradientTransform="matrix(1 0 0 1 -11106.5049 0)">
					<stop  offset="0" style="stop-color:#2B3582"/>
					<stop  offset="1" style="stop-color:#150E42"/>
				</linearGradient>
				<path style="fill:url(#SVGID_00000131334237542980800620000005993972117579607449_);" d="M321.1,1248.6l29.5-103
					c0.3-1.2,1.3-2,2.5-2.2c5.3-0.6,20.8-2.4,38.7-3.9c21.5-1.8,46.5-3.3,61.5-2c2.1,0.2,3.4,2.4,2.5,4.3
					c-8.5,17.2-43.4,87.1-60.9,110c-0.6,0.8-1.5,1.2-2.4,1.2l-68.4-0.6C321.9,1252.4,320.5,1250.5,321.1,1248.6z"/>
				
					<linearGradient id="SVGID_00000137853633208960976810000012371625524110760078_" gradientUnits="userSpaceOnUse" x1="11431.8418" y1="1206.2203" x2="11471.1211" y2="1206.2203" gradientTransform="matrix(1 0 0 1 -11106.5049 0)">
					<stop  offset="0" style="stop-color:#F9B776"/>
					<stop  offset="1" style="stop-color:#F47960"/>
				</linearGradient>
				<path style="fill:url(#SVGID_00000137853633208960976810000012371625524110760078_);" d="M328.2,1223.7c0,0-4.1-16.9-2.5-22.9
					c1.7-6,4.9-13.7,15.6-12c10.7,1.7,23.3,6.2,23.3,6.2s-0.6,7.8-8.8,5.3l5,3.9c0,0-0.7,6.2-7.6,2.9l4.7,5.2c0,0-2.9,5.1-8,1.8
					S342.5,1225.7,328.2,1223.7z"/>
			</g>
			<path class="st34" d="M354,1176l6-20.4c0.7-2.5,2.7-4.3,5.2-4.8c18.8-3.9,70.3-4.8,70.8-4.8l0-2.5c-2.1,0-52.2,0.8-71.3,4.8
				c-3.4,0.7-6.1,3.2-7,6.6l-6,20.4L354,1176z"/>
		</g>
	</g>
	<g>
		<g>
			<path class="st34" d="M277.9,805.4l-6.8,2.6l-0.1,0c-1.2,0.5-2.5-0.1-2.9-1.3c-0.5-1.2,0.1-2.5,1.3-2.9l0,0l7-2.7
				c1.2-0.4,2.5,0.1,2.9,1.3C279.7,803.7,279.1,805,277.9,805.4L277.9,805.4z"/>
			<path class="st34" d="M251.3,817.4l-6.4,3.5l-0.1,0c-1.1,0.6-2.5,0.2-3.1-0.9c-0.6-1.1-0.2-2.5,0.9-3.1l0,0l6.5-3.6
				c1.1-0.6,2.5-0.2,3.1,0.9C252.8,815.4,252.4,816.8,251.3,817.4L251.3,817.4z"/>
			<path class="st34" d="M226.4,832.8l-5.9,4.3l-0.1,0c-1,0.8-2.5,0.5-3.2-0.5c-0.8-1-0.5-2.5,0.5-3.2l0,0l6-4.4
				c1-0.8,2.5-0.5,3.2,0.5C227.7,830.6,227.5,832,226.4,832.8L226.4,832.8z"/>
			<path class="st34" d="M203.6,851.1l-5.4,5l0,0c-0.9,0.9-2.4,0.8-3.3-0.1c-0.9-0.9-0.8-2.4,0.1-3.3l0,0l5.5-5.1
				c0.9-0.9,2.4-0.8,3.3,0.1C204.7,848.8,204.6,850.2,203.6,851.1L203.6,851.1z"/>
			<path class="st34" d="M183.1,872l-4.8,5.5l0,0c-0.9,1-2.4,1.1-3.3,0.2c-1-0.9-1.1-2.4-0.2-3.3l0,0l4.9-5.6c0.9-1,2.3-1.1,3.3-0.2
				C183.9,869.5,184,870.9,183.1,872L183.1,872z"/>
			<path class="st34" d="M164.8,894.9l-4.2,6l0,0c-0.8,1.1-2.3,1.4-3.3,0.6c-1.1-0.8-1.4-2.3-0.6-3.3l0,0l4.3-6.1
				c0.8-1.1,2.2-1.3,3.3-0.6C165.4,892.3,165.6,893.7,164.8,894.9L164.8,894.9z"/>
			<path class="st34" d="M148.9,919.5l-3.6,6.4l0,0c-0.7,1.2-2.1,1.6-3.3,0.9c-1.2-0.7-1.6-2.1-0.9-3.3l0,0l3.7-6.5
				c0.7-1.2,2.1-1.6,3.3-0.9C149.2,916.8,149.6,918.3,148.9,919.5L148.9,919.5z"/>
			<path class="st34" d="M135.5,945.5l-3,6.7l0,0.1c-0.6,1.2-2,1.8-3.2,1.2c-1.2-0.6-1.8-2-1.2-3.2l0,0l3-6.8c0.6-1.2,2-1.8,3.2-1.2
				C135.5,942.8,136,944.2,135.5,945.5L135.5,945.5z"/>
			<path class="st34" d="M124.5,972.7l-2.4,6.9l0,0.1c-0.4,1.3-1.9,2-3.2,1.6c-1.3-0.4-2-1.9-1.6-3.2l0,0l2.4-7
				c0.4-1.3,1.9-2,3.1-1.5C124.2,969.9,124.9,971.3,124.5,972.7L124.5,972.7z"/>
			<path class="st34" d="M116,1000.7l-1.7,7.1l0,0.1c-0.3,1.3-1.7,2.2-3,1.9c-1.3-0.3-2.2-1.7-1.9-3l0,0l1.8-7.2
				c0.3-1.3,1.7-2.2,3-1.8C115.5,997.9,116.3,999.3,116,1000.7L116,1000.7z"/>
			<path class="st34" d="M110.1,1029.4l-1.1,7.2l0,0.1c-0.2,1.4-1.5,2.4-2.9,2.2c-1.4-0.2-2.4-1.5-2.2-2.9l0,0l1.1-7.4
				c0.2-1.4,1.5-2.3,2.9-2.1C109.3,1026.7,110.3,1028,110.1,1029.4L110.1,1029.4z"/>
			<path class="st34" d="M106.9,1058.5l-0.4,7.3l0,0.1c-0.1,1.4-1.3,2.5-2.7,2.4c-1.4-0.1-2.5-1.3-2.4-2.7v0l0.4-7.4
				c0.1-1.4,1.3-2.5,2.7-2.4C105.9,1055.8,107,1057,106.9,1058.5L106.9,1058.5z"/>
			<path class="st34" d="M106.6,1087.8l0.4,7.3l0,0.1c0.1,1.4-1,2.7-2.5,2.7c-1.4,0.1-2.7-1-2.7-2.5l0,0l-0.4-7.4
				c-0.1-1.4,1-2.6,2.5-2.7C105.3,1085.2,106.5,1086.3,106.6,1087.8L106.6,1087.8z"/>
			<path class="st34" d="M109,1117l1,7.3l0,0.1c0.2,1.4-0.8,2.8-2.2,3c-1.4,0.2-2.8-0.8-3-2.2l0,0l-1-7.4c-0.2-1.4,0.8-2.8,2.2-3
				C107.5,1114.5,108.8,1115.5,109,1117L109,1117z"/>
			<path class="st34" d="M114.1,1145.8l1.7,7.1l0,0.1c0.3,1.4-0.6,2.9-2,3.2c-1.4,0.3-2.9-0.6-3.2-2l0,0l-1.7-7.2
				c-0.3-1.4,0.6-2.8,2-3.2C112.3,1143.4,113.8,1144.3,114.1,1145.8L114.1,1145.8z"/>
			<path class="st34" d="M121.7,1174.1l2.3,7l0,0.1c0.5,1.4-0.3,2.9-1.7,3.4c-1.4,0.5-2.9-0.3-3.4-1.7l0,0l-2.3-7.1
				c-0.5-1.4,0.3-2.9,1.7-3.4C119.7,1171.9,121.2,1172.6,121.7,1174.1L121.7,1174.1z"/>
			<path class="st34" d="M131.7,1201.6l2.9,6.7l0,0.1c0.6,1.4-0.1,3-1.4,3.6c-1.4,0.6-3-0.1-3.6-1.4l0,0l-2.9-6.9
				c-0.6-1.4,0.1-3,1.4-3.5C129.5,1199.6,131.1,1200.2,131.7,1201.6L131.7,1201.6z"/>
			<path class="st34" d="M144,1228.2l3.4,6.5l0,0c0.7,1.3,0.2,3-1.1,3.7c-1.3,0.7-3,0.2-3.7-1.1l0,0l-3.5-6.6
				c-0.7-1.3-0.2-3,1.2-3.7C141.6,1226.3,143.3,1226.9,144,1228.2L144,1228.2z"/>
			<path class="st34" d="M158.5,1253.7l3.9,6.2l0,0c0.8,1.3,0.4,3-0.8,3.8c-1.3,0.8-3,0.4-3.8-0.8l0,0l-4-6.3
				c-0.8-1.3-0.4-3,0.9-3.8C155.9,1252,157.6,1252.4,158.5,1253.7L158.5,1253.7z"/>
			<path class="st34" d="M175,1277.9l4.4,5.8l0,0c0.9,1.2,0.7,3-0.5,3.9c-1.2,0.9-3,0.7-3.9-0.5l0,0l-4.5-5.9
				c-0.9-1.2-0.7-3,0.5-3.9C172.3,1276.4,174,1276.7,175,1277.9L175,1277.9z"/>
			<path class="st34" d="M193.4,1300.7l4.9,5.4l0,0c1,1.2,1,3-0.2,4c-1.2,1-3,1-4-0.2l0,0l-5-5.5c-1-1.2-0.9-2.9,0.2-4
				C190.6,1299.4,192.3,1299.5,193.4,1300.7L193.4,1300.7z"/>
			<path class="st34" d="M213.7,1321.8l5.3,5l0,0c1.2,1.1,1.2,2.9,0.1,4c-1.1,1.2-2.9,1.2-4,0.1l0,0l-5.4-5.1
				c-1.1-1.1-1.2-2.9-0.1-4C210.7,1320.8,212.5,1320.7,213.7,1321.8L213.7,1321.8z"/>
			<path class="st34" d="M235.7,1341.2l5.8,4.5l0.1,0c1.3,1,1.5,2.8,0.5,4.1c-1,1.3-2.8,1.5-4.1,0.5l0,0l-5.9-4.6
				c-1.3-1-1.5-2.8-0.5-4C232.6,1340.3,234.4,1340.1,235.7,1341.2L235.7,1341.2z"/>
			<path class="st34" d="M259.3,1358.4l6.1,4l0.1,0c1.4,0.9,1.7,2.7,0.9,4c-0.9,1.4-2.7,1.7-4,0.9l0,0l-6.3-4.1
				c-1.3-0.9-1.7-2.7-0.9-4C256.1,1357.9,257.9,1357.5,259.3,1358.4L259.3,1358.4z"/>
			<path class="st34" d="M284.5,1373.4l6.5,3.4l0.1,0c1.4,0.7,2,2.5,1.3,4c-0.7,1.4-2.5,2-4,1.3l0,0l-6.6-3.4c-1.4-0.7-2-2.5-1.3-4
				C281.2,1373.2,283,1372.6,284.5,1373.4L284.5,1373.4z"/>
			<path class="st34" d="M310.9,1385.9l6.8,2.8l0.1,0c1.5,0.6,2.3,2.4,1.6,3.9c-0.6,1.5-2.4,2.3-3.9,1.6l0,0l-6.9-2.8
				c-1.5-0.6-2.2-2.4-1.6-3.9C307.6,1386,309.3,1385.3,310.9,1385.9L310.9,1385.9z"/>
			<path class="st34" d="M338.4,1396l7,2.1l0.1,0c1.6,0.5,2.5,2.2,2,3.8c-0.5,1.6-2.2,2.5-3.8,2l0,0l-7.1-2.2
				c-1.6-0.5-2.5-2.2-2-3.7C335,1396.4,336.7,1395.5,338.4,1396L338.4,1396z"/>
			<path class="st34" d="M366.6,1403.7l7.2,1.5l0.1,0c1.6,0.3,2.7,2,2.3,3.6c-0.3,1.6-2,2.7-3.6,2.3l0,0l-7.3-1.6
				c-1.6-0.4-2.7-2-2.3-3.6C363.3,1404.3,364.9,1403.3,366.6,1403.7L366.6,1403.7z"/>
			<path class="st34" d="M395.4,1408.8l7.3,0.9l0.1,0c1.7,0.2,2.9,1.7,2.7,3.4c-0.2,1.7-1.7,2.9-3.4,2.7l0,0l-7.4-0.9
				c-1.7-0.2-2.9-1.7-2.6-3.4C392.2,1409.8,393.7,1408.6,395.4,1408.8L395.4,1408.8z"/>
			<path class="st34" d="M424.6,1411.5l7.3,0.3l0.1,0c1.7,0.1,3,1.5,3,3.2c-0.1,1.7-1.5,3-3.2,3h0l-7.4-0.3c-1.7-0.1-3-1.5-2.9-3.2
				C421.4,1412.8,422.8,1411.5,424.6,1411.5L424.6,1411.5z"/>
			<path class="st34" d="M453.8,1411.8l7.3-0.3l0.1,0c1.7-0.1,3.2,1.3,3.2,3c0.1,1.7-1.3,3.2-3,3.2h0l-7.4,0.3
				c-1.7,0.1-3.2-1.3-3.2-3C450.7,1413.4,452.1,1411.9,453.8,1411.8L453.8,1411.8z"/>
			<path class="st34" d="M483.1,1409.8l7.3-0.9l0.1,0c1.7-0.2,3.3,1,3.5,2.7c0.2,1.7-1,3.3-2.7,3.5h0l-7.4,0.9
				c-1.7,0.2-3.3-1-3.5-2.7C480.1,1411.6,481.3,1410,483.1,1409.8L483.1,1409.8z"/>
			<path class="st34" d="M512,1405.5l7.2-1.4l0.1,0c1.7-0.3,3.3,0.8,3.7,2.5c0.3,1.7-0.8,3.3-2.5,3.7l0,0l-7.3,1.4
				c-1.7,0.3-3.3-0.8-3.7-2.5C509.2,1407.5,510.3,1405.9,512,1405.5L512,1405.5z"/>
			<path class="st34" d="M540.6,1399l7.1-2l0.1,0c1.7-0.5,3.4,0.5,3.9,2.2c0.5,1.7-0.5,3.4-2.2,3.9l0,0l-7.2,2
				c-1.7,0.5-3.4-0.5-3.9-2.2C537.9,1401.2,538.9,1399.5,540.6,1399L540.6,1399z"/>
			<path class="st34" d="M568.6,1390.4l6.9-2.5l0.1,0c1.6-0.6,3.4,0.3,4,1.9c0.6,1.6-0.3,3.4-1.9,4l0,0l-7,2.5
				c-1.6,0.6-3.4-0.3-4-1.9C566,1392.8,566.9,1391,568.6,1390.4L568.6,1390.4z"/>
			<path class="st34" d="M595.8,1379.6l6.7-3l0.1,0c1.6-0.7,3.5,0,4.2,1.6c0.7,1.6,0,3.5-1.6,4.2l0,0l-6.8,3.1
				c-1.6,0.7-3.5,0-4.2-1.6C593.5,1382.2,594.2,1380.4,595.8,1379.6L595.8,1379.6z"/>
			<path class="st34" d="M622.2,1366.9l6.5-3.5l0,0c1.5-0.8,3.5-0.2,4.3,1.3c0.8,1.5,0.2,3.5-1.3,4.3l0,0l-6.6,3.5
				c-1.5,0.8-3.5,0.2-4.3-1.3C620,1369.6,620.6,1367.7,622.2,1366.9L622.2,1366.9z"/>
			<path class="st34" d="M647.7,1352.4l6.2-3.9l0,0c1.5-0.9,3.4-0.5,4.4,1c0.9,1.5,0.5,3.4-1,4.4l0,0l-6.3,3.9
				c-1.5,0.9-3.4,0.5-4.4-1C645.7,1355.3,646.2,1353.3,647.7,1352.4L647.7,1352.4z"/>
			<path class="st34" d="M672.3,1336.3l6-4.2l0,0c1.4-1,3.4-0.7,4.4,0.8c1,1.4,0.7,3.4-0.8,4.4l0,0l-6.1,4.3c-1.4,1-3.4,0.7-4.4-0.8
				C670.5,1339.3,670.8,1337.4,672.3,1336.3L672.3,1336.3z"/>
			<path class="st34" d="M695.9,1318.9l5.8-4.5l0,0c1.4-1.1,3.4-0.8,4.5,0.5c1.1,1.4,0.8,3.4-0.5,4.5l0,0l-5.8,4.6
				c-1.4,1.1-3.4,0.8-4.5-0.5C694.3,1322,694.5,1320,695.9,1318.9L695.9,1318.9z"/>
			<path class="st34" d="M718.7,1300.4l5.6-4.8l0,0c1.3-1.2,3.3-1,4.5,0.3c1.2,1.3,1,3.3-0.3,4.5l0,0l-5.6,4.9
				c-1.3,1.1-3.3,1-4.5-0.3C717.2,1303.5,717.3,1301.5,718.7,1300.4L718.7,1300.4z"/>
			<path class="st34" d="M740.6,1280.8l5.4-5l0,0c1.3-1.2,3.3-1.1,4.5,0.1c1.2,1.3,1.1,3.3-0.1,4.5l0,0l-5.4,5.1
				c-1.3,1.2-3.3,1.1-4.5-0.1C739.3,1284,739.3,1282,740.6,1280.8L740.6,1280.8z"/>
			<path class="st34" d="M761.8,1260.3l5.2-5.2l0,0c1.2-1.3,3.3-1.3,4.5,0c1.3,1.2,1.3,3.3,0,4.5l0,0l-5.2,5.3
				c-1.2,1.3-3.3,1.3-4.5,0C760.5,1263.6,760.5,1261.6,761.8,1260.3L761.8,1260.3z"/>
			<path class="st34" d="M782.3,1239.2l5-5.4l0,0c1.2-1.3,3.2-1.4,4.5-0.2c1.3,1.2,1.4,3.2,0.2,4.5l0,0l-5.1,5.4
				c-1.2,1.3-3.2,1.4-4.5,0.1C781.1,1242.5,781.1,1240.5,782.3,1239.2L782.3,1239.2z"/>
			<path class="st34" d="M802.2,1217.5l4.9-5.5l0,0c1.2-1.3,3.2-1.4,4.5-0.3c1.3,1.2,1.4,3.2,0.3,4.5l0,0l-4.9,5.5
				c-1.2,1.3-3.2,1.4-4.5,0.3C801.1,1220.9,801,1218.8,802.2,1217.5L802.2,1217.5z"/>
			<path class="st34" d="M821.7,1195.4l4.8-5.6l0,0c1.2-1.3,3.2-1.5,4.5-0.3c1.3,1.2,1.5,3.2,0.3,4.5l0,0l-4.8,5.6
				c-1.2,1.3-3.2,1.5-4.5,0.3C820.6,1198.8,820.5,1196.7,821.7,1195.4L821.7,1195.4z"/>
			<path class="st34" d="M840.7,1172.9l4.7-5.7c1.1-1.4,3.2-1.6,4.5-0.4c1.4,1.1,1.6,3.2,0.4,4.5l0,0l-4.7,5.7
				c-1.1,1.4-3.2,1.6-4.5,0.4C839.8,1176.3,839.6,1174.2,840.7,1172.9z"/>
			<path class="st34" d="M859.5,1150.1l4.7-5.7c1.1-1.4,3.2-1.6,4.5-0.5c1.4,1.1,1.6,3.2,0.5,4.5l0,0l-4.7,5.7
				c-1.1,1.4-3.2,1.6-4.5,0.5C858.6,1153.5,858.4,1151.5,859.5,1150.1z"/>
			<path class="st34" d="M878.1,1127.2l4.6-5.7c1.1-1.4,3.2-1.6,4.6-0.5c1.4,1.1,1.6,3.2,0.5,4.6l0,0l-4.6,5.7
				c-1.1,1.4-3.2,1.6-4.6,0.5S877,1128.6,878.1,1127.2z"/>
			<path class="st34" d="M896.6,1104.2l4.6-5.8c1.1-1.4,3.2-1.6,4.6-0.5c1.4,1.1,1.6,3.2,0.5,4.6l0,0l-4.6,5.7
				c-1.1,1.4-3.2,1.6-4.6,0.5C895.7,1107.6,895.5,1105.6,896.6,1104.2z"/>
			<path class="st34" d="M915.2,1081.2l4.7-5.7c1.1-1.4,3.2-1.6,4.6-0.5c1.4,1.1,1.6,3.2,0.5,4.6l0,0l-4.6,5.7
				c-1.1,1.4-3.2,1.6-4.6,0.5C914.3,1084.7,914.1,1082.6,915.2,1081.2z"/>
			<path class="st34" d="M933.8,1058.3l4.7-5.7c1.1-1.4,3.2-1.6,4.6-0.4c1.4,1.1,1.6,3.2,0.4,4.6l0,0l-4.7,5.7
				c-1.1,1.4-3.2,1.6-4.6,0.5C932.9,1061.7,932.7,1059.7,933.8,1058.3z"/>
			<path class="st34" d="M952.7,1035.5l4.8-5.7c1.2-1.4,3.2-1.6,4.6-0.4c1.4,1.2,1.6,3.2,0.4,4.6l0,0l-4.7,5.6
				c-1.2,1.4-3.2,1.6-4.6,0.4C951.7,1039,951.6,1036.9,952.7,1035.5z"/>
			<path class="st34" d="M971.9,1013l4.9-5.6c1.2-1.4,3.2-1.5,4.6-0.3c1.4,1.2,1.5,3.2,0.3,4.6l0,0l0,0l-4.8,5.6l0,0
				c-1.2,1.4-3.2,1.5-4.6,0.3C970.9,1016.4,970.7,1014.3,971.9,1013z"/>
			<path class="st34" d="M991.5,990.8l5-5.5c1.2-1.3,3.3-1.4,4.6-0.2c1.3,1.2,1.4,3.3,0.2,4.6l0,0l0,0l-4.9,5.5l0,0
				c-1.2,1.3-3.3,1.4-4.6,0.2C990.4,994.2,990.3,992.1,991.5,990.8z"/>
			<path class="st34" d="M1011.6,969l5.1-5.4c1.3-1.3,3.3-1.4,4.6-0.1c1.3,1.3,1.4,3.3,0.1,4.6l0,0l0,0l-5.1,5.3l0,0
				c-1.3,1.3-3.3,1.4-4.6,0.1C1010.4,972.4,1010.3,970.3,1011.6,969z"/>
			<path class="st34" d="M1032.3,947.8l5.3-5.2c1.3-1.3,3.4-1.3,4.7,0c1.3,1.3,1.3,3.4,0,4.7l0,0l0,0l-5.2,5.2l0,0
				c-1.3,1.3-3.4,1.3-4.6,0C1030.9,951.2,1031,949.1,1032.3,947.8z"/>
			<path class="st34" d="M1053.6,927.2l5.5-5c1.3-1.2,3.4-1.1,4.7,0.2c1.2,1.3,1.1,3.4-0.2,4.7l0,0l0,0l-5.4,5l0,0
				c-1.3,1.2-3.4,1.1-4.7-0.2C1052.2,930.6,1052.3,928.5,1053.6,927.2z"/>
			<path class="st34" d="M1075.8,907.5l5.7-4.8c1.4-1.2,3.5-1,4.7,0.4c1.2,1.4,1,3.5-0.4,4.7l0,0l0,0l-5.6,4.7l0,0
				c-1.4,1.2-3.5,1-4.7-0.4C1074.2,910.8,1074.4,908.7,1075.8,907.5z"/>
			<path class="st34" d="M1098.7,888.7l5.9-4.5c1.4-1.1,3.5-0.8,4.6,0.6c1.1,1.4,0.8,3.5-0.6,4.6l0,0l0,0l-5.8,4.5l0,0
				c-1.4,1.1-3.5,0.8-4.6-0.6C1097,891.9,1097.3,889.8,1098.7,888.7z"/>
			<path class="st34" d="M1122.7,871.1l6.1-4.2c1.5-1,3.6-0.7,4.6,0.9c1,1.5,0.7,3.6-0.9,4.6l0,0l0,0l-6.1,4.2l0,0
				c-1.5,1-3.6,0.7-4.6-0.9C1120.8,874.2,1121.1,872.1,1122.7,871.1z"/>
			<path class="st34" d="M1147.5,854.7l6.3-3.9c1.6-1,3.6-0.5,4.6,1.1c1,1.6,0.5,3.6-1.1,4.6l0,0l0,0l-6.3,3.8l0,0
				c-1.6,1-3.6,0.5-4.6-1.1C1145.4,857.7,1145.9,855.7,1147.5,854.7z"/>
			<path class="st34" d="M1173.1,839.7l6.5-3.5c1.6-0.9,3.6-0.3,4.5,1.3c0.9,1.6,0.3,3.6-1.3,4.5l0,0l0,0l-6.5,3.5l0,0
				c-1.6,0.9-3.6,0.3-4.5-1.3C1170.9,842.6,1171.5,840.6,1173.1,839.7z"/>
			<path class="st34" d="M1199.5,826.1l6.7-3.2c1.7-0.8,3.7-0.1,4.4,1.6c0.8,1.7,0.1,3.7-1.6,4.4l0,0l0,0l-6.6,3.1l0,0
				c-1.7,0.8-3.7,0.1-4.4-1.6C1197.2,828.9,1197.9,826.9,1199.5,826.1z"/>
			<path class="st34" d="M1226.6,813.9l6.9-2.8c1.7-0.7,3.7,0.1,4.4,1.8c0.7,1.7-0.1,3.7-1.8,4.4l0,0l0,0l-6.8,2.8l0,0
				c-1.7,0.7-3.7-0.1-4.4-1.8C1224.1,816.6,1224.9,814.6,1226.6,813.9z"/>
			<path class="st34" d="M1254.3,803.1l7-2.5c1.7-0.6,3.7,0.3,4.3,2c0.6,1.7-0.3,3.7-2,4.3l0,0l0,0l-6.9,2.4l0,0
				c-1.7,0.6-3.7-0.3-4.3-2C1251.6,805.7,1252.6,803.8,1254.3,803.1z"/>
			<path class="st34" d="M1282.5,793.8l7.1-2.1c1.8-0.5,3.6,0.5,4.2,2.3c0.5,1.8-0.5,3.6-2.3,4.2l0,0l0,0l-7,2.1l0,0
				c-1.8,0.5-3.6-0.5-4.2-2.3C1279.7,796.2,1280.7,794.3,1282.5,793.8z"/>
			<path class="st34" d="M1311.1,785.9l7.2-1.7c1.8-0.4,3.6,0.7,4.1,2.5c0.4,1.8-0.7,3.6-2.5,4.1l0,0l0,0l-7.1,1.7l0,0
				c-1.8,0.4-3.6-0.7-4.1-2.5C1308.2,788.2,1309.3,786.4,1311.1,785.9z"/>
			<path class="st34" d="M1340.2,779.5l7.3-1.4c1.8-0.3,3.6,0.9,3.9,2.7c0.3,1.8-0.9,3.6-2.7,3.9l0,0l0,0l-7.2,1.3l0,0
				c-1.8,0.3-3.6-0.9-3.9-2.7C1337.1,781.6,1338.3,779.9,1340.2,779.5z"/>
			<path class="st34" d="M1369.4,774.6l7.4-1c1.8-0.2,3.5,1,3.8,2.9c0.2,1.8-1,3.5-2.9,3.8l0,0l0,0l-7.3,1l0,0
				c-1.8,0.2-3.5-1-3.8-2.9C1366.3,776.6,1367.6,774.9,1369.4,774.6z"/>
			<path class="st34" d="M1399,771.2l7.4-0.6c1.9-0.2,3.5,1.2,3.7,3.1c0.2,1.9-1.2,3.5-3.1,3.7l0,0l0,0l-7.3,0.6l0,0
				c-1.9,0.2-3.5-1.2-3.6-3.1C1395.7,773,1397.1,771.4,1399,771.2z"/>
			<path class="st34" d="M1428.6,769.3l7.4-0.2c1.9-0.1,3.4,1.4,3.5,3.3c0.1,1.9-1.4,3.4-3.3,3.5l0,0l0,0l-7.3,0.2l0,0
				c-1.9,0.1-3.4-1.4-3.5-3.3C1425.3,770.9,1426.7,769.3,1428.6,769.3z"/>
			<path class="st34" d="M1458.3,768.9l7.4,0.1c1.9,0,3.4,1.6,3.3,3.5c0,1.9-1.6,3.4-3.5,3.3h0l0,0l-7.3-0.1l0,0
				c-1.9,0-3.4-1.6-3.3-3.5C1454.9,770.3,1456.4,768.8,1458.3,768.9z"/>
			<path class="st34" d="M1488,769.9l7.4,0.5c1.9,0.1,3.3,1.7,3.2,3.6c-0.1,1.9-1.7,3.3-3.6,3.2l0,0l0,0l-7.3-0.5l0,0
				c-1.9-0.1-3.3-1.8-3.2-3.6C1484.5,771.2,1486.1,769.8,1488,769.9z"/>
			<path class="st34" d="M1517.6,772.5l7.4,0.9c1.9,0.2,3.2,1.9,3,3.8c-0.2,1.9-1.9,3.2-3.8,3l0,0l0,0l-7.3-0.9l0,0
				c-1.9-0.2-3.2-1.9-3-3.8C1514,773.6,1515.7,772.3,1517.6,772.5z"/>
			<path class="st34" d="M1547,776.6l7.3,1.3c1.9,0.3,3.1,2.1,2.8,3.9c-0.3,1.9-2.1,3.1-3.9,2.8l0,0l0,0l-7.2-1.2l0,0
				c-1.9-0.3-3.1-2.1-2.8-3.9C1543.4,777.5,1545.1,776.3,1547,776.6z"/>
			<path class="st34" d="M1576.2,782.2l7.2,1.6c1.8,0.4,3,2.2,2.6,4.1c-0.4,1.8-2.2,3-4.1,2.6l0,0l0,0l-7.2-1.6l0,0
				c-1.8-0.4-3-2.2-2.6-4.1C1572.5,782.9,1574.3,781.8,1576.2,782.2z"/>
			<path class="st34" d="M1605,789.3l7.2,2c1.8,0.5,2.9,2.4,2.4,4.2c-0.5,1.8-2.4,2.9-4.2,2.4l0,0l0,0l-7.1-2l0,0
				c-1.8-0.5-2.9-2.4-2.4-4.2C1601.3,789.8,1603.2,788.8,1605,789.3z"/>
			<path class="st34" d="M1633.5,797.9l7,2.4c1.8,0.6,2.8,2.6,2.2,4.4c-0.6,1.8-2.6,2.8-4.4,2.2l0,0l0,0l-7-2.4l0,0
				c-1.8-0.6-2.8-2.6-2.2-4.3C1629.7,798.2,1631.7,797.3,1633.5,797.9z"/>
			<path class="st34" d="M1661.4,807.9l6.9,2.7c1.8,0.7,2.6,2.7,1.9,4.5c-0.7,1.8-2.7,2.6-4.5,1.9l0,0l0,0l-6.8-2.7l0,0
				c-1.8-0.7-2.6-2.7-1.9-4.5C1657.7,808.1,1659.7,807.2,1661.4,807.9z"/>
			<path class="st34" d="M1688.8,819.5l6.7,3.1c1.7,0.8,2.5,2.8,1.7,4.6c-0.8,1.7-2.8,2.5-4.6,1.7l0,0l0,0l-6.7-3.1l0,0
				c-1.7-0.8-2.5-2.8-1.7-4.6C1685,819.4,1687.1,818.7,1688.8,819.5z"/>
			<path class="st34" d="M1715.5,832.4l6.6,3.5c1.7,0.9,2.3,3,1.4,4.7c-0.9,1.7-3,2.3-4.7,1.4l0,0l0,0l-6.5-3.4l0,0
				c-1.7-0.9-2.3-3-1.4-4.7C1711.8,832.2,1713.9,831.5,1715.5,832.4z"/>
			<path class="st34" d="M1741.5,846.8l6.4,3.8c1.6,1,2.2,3.1,1.2,4.7c-1,1.6-3.1,2.2-4.7,1.2l0,0l0,0l-6.3-3.8l0,0
				c-1.6-1-2.2-3.1-1.2-4.7C1737.8,846.4,1739.9,845.8,1741.5,846.8z"/>
			<path class="st34" d="M1766.7,862.6l6.2,4.2c1.6,1.1,2,3.2,0.9,4.8c-1.1,1.6-3.2,2-4.8,0.9l0,0l0,0l-6.1-4.1l0,0
				c-1.6-1.1-2-3.2-0.9-4.8C1763,862,1765.1,861.5,1766.7,862.6z"/>
			<path class="st34" d="M1791,879.6l6,4.4c1.5,1.1,1.9,3.3,0.7,4.9c-1.1,1.5-3.3,1.9-4.9,0.7l0,0l0,0l-5.9-4.4l0,0
				c-1.5-1.1-1.9-3.3-0.7-4.9C1787.3,878.8,1789.5,878.5,1791,879.6z"/>
			<path class="st34" d="M1814.7,897.4l5.9,4.5c1.5,1.2,1.8,3.4,0.6,4.9c-1.2,1.5-3.4,1.8-4.9,0.6l0,0l0,0l-5.8-4.5l0,0
				c-1.5-1.2-1.8-3.4-0.6-4.9C1811,896.5,1813.2,896.3,1814.7,897.4z"/>
			<path class="st34" d="M1838,915.6l5.8,4.6c1.5,1.2,1.8,3.4,0.6,4.9c-1.2,1.5-3.4,1.8-4.9,0.6l0,0l-5.8-4.6
				c-1.5-1.2-1.8-3.4-0.6-4.9C1834.3,914.7,1836.5,914.4,1838,915.6z"/>
			<path class="st34" d="M1861.3,933.8l5.8,4.5c1.5,1.2,1.8,3.4,0.6,4.9c-1.2,1.5-3.4,1.8-4.9,0.6l0,0l-5.8-4.5
				c-1.5-1.2-1.8-3.4-0.6-4.9C1857.6,932.9,1859.8,932.7,1861.3,933.8z"/>
			<path class="st34" d="M1884.7,951.8l5.9,4.4l0,0c1.5,1.2,1.9,3.3,0.7,4.9c-1.2,1.6-3.3,1.9-4.9,0.7l0,0l-5.9-4.4
				c-1.5-1.2-1.9-3.3-0.7-4.9S1883.1,950.6,1884.7,951.8L1884.7,951.8z"/>
			<path class="st34" d="M1908.5,969l6.1,4.2l0,0c1.6,1.1,2,3.3,0.9,4.9c-1.1,1.6-3.3,2-4.9,0.9l0,0l-6.1-4.2
				c-1.6-1.1-2-3.3-0.9-4.9C1904.7,968.3,1906.9,967.9,1908.5,969L1908.5,969z"/>
			<path class="st34" d="M1933,985.2l6.3,3.8l0,0c1.7,1,2.2,3.2,1.2,4.8c-1,1.7-3.2,2.2-4.8,1.2l0,0l-6.4-3.9
				c-1.7-1-2.2-3.2-1.2-4.8C1929.1,984.7,1931.3,984.1,1933,985.2L1933,985.2z"/>
			<path class="st34" d="M1958.4,999.8l6.5,3.3l0.1,0c1.7,0.9,2.4,3,1.5,4.7c-0.9,1.7-3,2.4-4.7,1.5l0,0l-6.6-3.4
				c-1.7-0.9-2.4-3-1.5-4.7C1954.5,999.5,1956.6,998.8,1958.4,999.8L1958.4,999.8z"/>
			<path class="st34" d="M1984.8,1012.2l6.8,2.7l0.1,0c1.8,0.7,2.7,2.8,2,4.6c-0.7,1.8-2.8,2.7-4.6,2l0,0l-7-2.7
				c-1.8-0.7-2.7-2.8-2-4.6C1980.9,1012.3,1982.9,1011.4,1984.8,1012.2L1984.8,1012.2z"/>
			<path class="st34" d="M2012.3,1021.7l7,1.8l0.1,0c1.9,0.5,3,2.4,2.5,4.3c-0.5,1.9-2.4,3-4.3,2.5l0,0l-7.3-1.9
				c-1.9-0.5-3-2.4-2.5-4.3c0.5-1.9,2.4-3,4.3-2.5L2012.3,1021.7z"/>
			<path class="st34" d="M2040.8,1027.6l7.2,0.9l0.1,0c1.9,0.2,3.3,2,3.1,3.9s-2,3.3-3.9,3.1l0,0l-7.5-0.9c-1.9-0.2-3.3-2-3.1-3.9
				c0.2-1.9,2-3.3,3.9-3.1L2040.8,1027.6z"/>
			<path class="st34" d="M2069.7,1029.5l7.2-0.3l0.1,0c2-0.1,3.6,1.5,3.7,3.4c0.1,2-1.5,3.6-3.4,3.7h0l-7.5,0.3
				c-2,0.1-3.6-1.5-3.7-3.4c-0.1-2,1.5-3.6,3.4-3.7L2069.7,1029.5z"/>
			<path class="st34" d="M2098.5,1026.8l7.1-1.4l0.1,0c1.9-0.4,3.8,0.9,4.2,2.8c0.4,1.9-0.9,3.8-2.8,4.2l0,0l-7.4,1.4
				c-1.9,0.4-3.8-0.9-4.2-2.8c-0.4-1.9,0.9-3.8,2.8-4.2L2098.5,1026.8z"/>
			<path class="st34" d="M2126.6,1019.7l6.9-2.4l0.1,0c1.9-0.6,3.9,0.3,4.5,2.2c0.6,1.9-0.3,3.9-2.2,4.5l0,0l-7.1,2.5
				c-1.9,0.6-3.9-0.3-4.5-2.2c-0.6-1.9,0.3-3.9,2.2-4.5L2126.6,1019.7z"/>
			<path class="st34" d="M2153.5,1008.8l6.5-3.3l0.1-0.1c1.8-0.9,3.9-0.2,4.8,1.6c0.9,1.8,0.2,3.9-1.6,4.8l0,0l-6.7,3.4
				c-1.8,0.9-3.9,0.2-4.8-1.6c-0.9-1.8-0.2-3.9,1.6-4.8L2153.5,1008.8z"/>
			<path class="st34" d="M2178.8,994.4l6-4.1l0.1-0.1c1.6-1.1,3.9-0.7,5,1c1.1,1.6,0.7,3.9-1,5l0,0l-6.2,4.2c-1.6,1.1-3.9,0.7-4.9-1
				C2176.6,997.8,2177.1,995.6,2178.8,994.4L2178.8,994.4z"/>
			<path class="st34" d="M2202.3,977.2l5.6-4.7l0.1-0.1c1.5-1.3,3.8-1.1,5,0.4c1.3,1.5,1.1,3.8-0.4,5l0,0l-5.7,4.8
				c-1.5,1.3-3.8,1.1-5-0.4C2200.5,980.8,2200.7,978.5,2202.3,977.2L2202.3,977.2z"/>
			<path class="st34" d="M2223.7,957.4l5-5.3l0.1-0.1c1.4-1.4,3.6-1.5,5.1-0.1c1.4,1.4,1.5,3.6,0.1,5.1l0,0l-5.2,5.4
				c-1.4,1.4-3.6,1.5-5.1,0.1C2222.3,961.2,2222.3,958.9,2223.7,957.4L2223.7,957.4z"/>
			<path class="st34" d="M2243,935.6l4.5-5.8l0.1-0.1c1.2-1.6,3.5-1.9,5-0.6c1.6,1.2,1.9,3.5,0.6,5l0,0l-4.6,5.9
				c-1.2,1.6-3.5,1.9-5,0.6C2242,939.5,2241.7,937.2,2243,935.6L2243,935.6z"/>
			<path class="st34" d="M2260,911.9l3.9-6.2l0-0.1c1.1-1.7,3.3-2.2,5-1.1c1.7,1.1,2.2,3.3,1.1,5l0,0l-4,6.3c-1.1,1.7-3.3,2.2-5,1.1
				C2259.4,915.8,2258.8,913.6,2260,911.9L2260,911.9z"/>
			<path class="st34" d="M2274.5,886.6l3.2-6.5l0-0.1c0.9-1.8,3-2.5,4.8-1.6c1.8,0.9,2.5,3,1.6,4.8l0,0l-3.3,6.7
				c-0.9,1.8-3,2.5-4.8,1.6C2274.3,890.6,2273.6,888.4,2274.5,886.6L2274.5,886.6z"/>
			<path class="st34" d="M2286.5,860l2.6-6.8l0-0.1c0.7-1.9,2.8-2.8,4.7-2.1c1.9,0.7,2.8,2.8,2.1,4.7l0,0l-2.6,7
				c-0.7,1.9-2.8,2.8-4.7,2.1C2286.7,864,2285.8,862,2286.5,860L2286.5,860z"/>
			<path class="st34" d="M2295.8,832.4l1.9-7.1l0-0.1c0.5-1.9,2.5-3.1,4.4-2.6c1.9,0.5,3.1,2.5,2.6,4.4l0,0l-1.9,7.2
				c-0.5,1.9-2.5,3.1-4.4,2.6C2296.4,836.3,2295.3,834.4,2295.8,832.4L2295.8,832.4z"/>
			<path class="st34" d="M2302.4,803.9l1.3-7.2l0-0.1c0.3-2,2.2-3.3,4.2-2.9c2,0.3,3.3,2.2,2.9,4.2l0,0l-1.3,7.4
				c-0.3,2-2.2,3.3-4.2,2.9C2303.3,807.8,2302,805.9,2302.4,803.9L2302.4,803.9z"/>
			<path class="st34" d="M2306.5,775l0.6-7.3l0-0.1c0.2-2,1.9-3.5,3.9-3.3c2,0.2,3.5,1.9,3.3,3.9v0l-0.7,7.4c-0.2,2-1.9,3.5-3.9,3.3
				C2307.8,778.8,2306.3,777,2306.5,775L2306.5,775z"/>
			<path class="st34" d="M2308.2,745.8l0.1-7.3l0-0.1c0-2,1.7-3.6,3.7-3.6c2,0,3.6,1.7,3.6,3.7v0l-0.1,7.5c0,2-1.7,3.6-3.7,3.6
				C2309.8,749.5,2308.2,747.9,2308.2,745.8L2308.2,745.8z"/>
			<path class="st34" d="M2307.6,716.5l-0.5-7.3l0-0.1c-0.1-2,1.4-3.7,3.4-3.9c2-0.1,3.7,1.4,3.9,3.4v0l0.5,7.4
				c0.1,2-1.4,3.7-3.4,3.9C2309.5,720.1,2307.7,718.6,2307.6,716.5L2307.6,716.5z"/>
			<path class="st34" d="M2304.8,687.4l-1-7.2l0-0.1c-0.3-2,1.1-3.8,3.1-4.1c2-0.3,3.8,1.1,4.1,3.1v0l1,7.4c0.3,2-1.1,3.8-3.1,4.1
				C2307,690.8,2305.1,689.5,2304.8,687.4L2304.8,687.4z"/>
			<path class="st34" d="M2300,658.5l-1.5-7.2l0-0.1c-0.4-2,0.8-3.9,2.8-4.3c2-0.4,3.9,0.8,4.3,2.8v0l1.5,7.3c0.4,2-0.8,3.9-2.8,4.3
				C2302.4,661.8,2300.4,660.6,2300,658.5L2300,658.5z"/>
			<path class="st34" d="M2293.2,630l-2-7l0-0.1c-0.6-1.9,0.6-4,2.5-4.5c1.9-0.6,4,0.6,4.5,2.5l0,0l2,7.2c0.5,1.9-0.6,4-2.5,4.5
				C2295.8,633.2,2293.8,632,2293.2,630L2293.2,630z"/>
			<path class="st34" d="M2284.5,602.1l-2.4-6.9l0-0.1c-0.7-1.9,0.3-4,2.2-4.7c1.9-0.7,4,0.3,4.7,2.2l0,0l2.5,7
				c0.7,1.9-0.3,4-2.2,4.7C2287.3,605,2285.2,604,2284.5,602.1L2284.5,602.1z"/>
			<path class="st34" d="M2274.1,574.7l-2.9-6.7l0-0.1c-0.8-1.9,0.1-4,1.9-4.8c1.9-0.8,4,0.1,4.8,1.9l0,0l2.9,6.8
				c0.8,1.9-0.1,4-1.9,4.8C2277.1,577.5,2274.9,576.6,2274.1,574.7L2274.1,574.7z"/>
			<path class="st34" d="M2261.9,548l-3.3-6.5l0-0.1c-0.9-1.8-0.2-4,1.6-4.9c1.8-0.9,4-0.2,4.9,1.6l0,0l3.4,6.6
				c0.9,1.8,0.2,4-1.6,4.9C2265.1,550.6,2262.9,549.9,2261.9,548L2261.9,548z"/>
			<path class="st34" d="M2248.1,522.2l-3.7-6.3l0-0.1c-1-1.8-0.4-4,1.3-5c1.8-1,4-0.4,5,1.3l0,0l3.8,6.4c1,1.8,0.4,4-1.3,5
				C2251.4,524.6,2249.2,524,2248.1,522.2L2248.1,522.2z"/>
			<path class="st34" d="M2232.6,497.3l-4.1-6.1l0-0.1c-1.1-1.7-0.7-4,1-5.1c1.7-1.1,4-0.7,5.1,1l4.2,6.2c1.1,1.7,0.7,4-1,5.1
				S2233.8,499,2232.6,497.3L2232.6,497.3L2232.6,497.3z"/>
			<path class="st34" d="M2215.5,473.6l-4.6-5.7l0,0c-1.3-1.6-1-3.9,0.6-5.1c1.6-1.3,3.8-1,5.1,0.6l4.7,5.8c1.3,1.6,1,3.9-0.6,5.1
				C2219.1,475.5,2216.8,475.2,2215.5,473.6L2215.5,473.6L2215.5,473.6z"/>
			<path class="st34" d="M2196.7,451.1l-4.9-5.5l0,0c-1.3-1.5-1.2-3.7,0.3-5.1c1.5-1.3,3.7-1.2,5,0.3l5,5.5c1.3,1.5,1.2,3.7-0.3,5.1
				C2200.4,452.7,2198.1,452.6,2196.7,451.1L2196.7,451.1L2196.7,451.1z"/>
			<path class="st34" d="M2176.8,429.5l-5.1-5.3l0,0c-1.4-1.4-1.3-3.6,0.1-5c1.4-1.4,3.6-1.3,5,0.1l5.2,5.3c1.4,1.4,1.3,3.6-0.1,5
				C2180.5,430.9,2178.2,430.9,2176.8,429.5L2176.8,429.5L2176.8,429.5z"/>
			<path class="st34" d="M2156.1,408.6l-5.3-5.1l0,0c-1.4-1.3-1.4-3.5-0.1-4.9c1.3-1.4,3.5-1.4,4.9-0.1l5.3,5.1
				c1.4,1.3,1.4,3.5,0.1,4.9C2159.8,409.9,2157.5,409.9,2156.1,408.6L2156.1,408.6L2156.1,408.6z"/>
			<path class="st34" d="M2134.8,388.3l-5.4-5l0,0c-1.4-1.3-1.5-3.4-0.2-4.8c1.3-1.4,3.4-1.5,4.8-0.2l5.5,5c1.4,1.3,1.5,3.4,0.2,4.9
				C2138.4,389.5,2136.2,389.6,2134.8,388.3L2134.8,388.3L2134.8,388.3z"/>
			<path class="st34" d="M2112.9,368.6l-5.5-4.8l0,0c-1.4-1.2-1.5-3.3-0.3-4.8c1.2-1.4,3.3-1.6,4.7-0.3l5.6,4.8
				c1.4,1.2,1.6,3.4,0.3,4.8C2116.4,369.7,2114.3,369.9,2112.9,368.6L2112.9,368.6L2112.9,368.6z"/>
			<path class="st34" d="M2090.5,349.4l-5.6-4.7l0,0c-1.4-1.2-1.6-3.2-0.4-4.6c1.2-1.4,3.2-1.6,4.6-0.4l5.7,4.7
				c1.4,1.2,1.6,3.2,0.5,4.6C2094,350.4,2092,350.6,2090.5,349.4L2090.5,349.4L2090.5,349.4z"/>
			<path class="st34" d="M2067.8,330.7l-5.7-4.6l0,0c-1.3-1.1-1.5-3-0.5-4.4c1.1-1.3,3-1.5,4.3-0.5l5.8,4.6c1.4,1.1,1.6,3.1,0.5,4.4
				C2071.2,331.5,2069.2,331.8,2067.8,330.7L2067.8,330.7L2067.8,330.7z"/>
			<path class="st34" d="M2044.7,312.4l-5.8-4.5l0,0c-1.3-1-1.5-2.8-0.5-4.1c1-1.3,2.8-1.5,4.1-0.6l5.9,4.5c1.3,1,1.6,2.9,0.6,4.2
				C2047.9,313.1,2046.1,313.4,2044.7,312.4L2044.7,312.4L2044.7,312.4z"/>
			<path class="st34" d="M2021.2,294.5l-5.9-4.4l0,0c-1.2-0.9-1.5-2.7-0.6-3.9c0.9-1.2,2.6-1.5,3.9-0.6l6,4.3c1.3,0.9,1.6,2.7,0.6,4
				C2024.3,295.2,2022.5,295.5,2021.2,294.5L2021.2,294.5L2021.2,294.5z"/>
			<path class="st34" d="M1997.4,277.2l-6-4.2l0,0c-1.2-0.8-1.5-2.5-0.6-3.7c0.8-1.2,2.5-1.5,3.7-0.7l6.1,4.2
				c1.2,0.8,1.5,2.5,0.7,3.7C2000.3,277.8,1998.6,278.1,1997.4,277.2L1997.4,277.2L1997.4,277.2z"/>
			<path class="st34" d="M1973.2,260.4l-6.1-4.1l0,0c-1.1-0.7-1.4-2.2-0.7-3.4c0.7-1.1,2.2-1.4,3.3-0.7l6.2,4
				c1.1,0.7,1.5,2.3,0.7,3.4C1975.9,260.8,1974.4,261.1,1973.2,260.4C1973.2,260.4,1973.2,260.4,1973.2,260.4L1973.2,260.4z"/>
			<path class="st34" d="M1948.6,244.1l-6.2-3.9l0,0c-1-0.6-1.3-2-0.7-3c0.6-1,2-1.3,3-0.7l6.3,3.9c1.1,0.6,1.4,2,0.7,3.1
				C1951.1,244.5,1949.7,244.8,1948.6,244.1C1948.6,244.2,1948.6,244.2,1948.6,244.1L1948.6,244.1z"/>
			<path class="st34" d="M1923.5,228.7l-6.4-3.7l0,0c-0.9-0.5-1.2-1.7-0.7-2.6c0.5-0.9,1.7-1.2,2.6-0.7l6.5,3.6
				c1,0.5,1.3,1.7,0.8,2.7C1925.7,228.9,1924.5,229.2,1923.5,228.7C1923.5,228.7,1923.5,228.7,1923.5,228.7L1923.5,228.7z"/>
			<path class="st34" d="M1897.9,214.2l-6.5-3.4l0,0c-0.8-0.4-1.1-1.4-0.7-2.2c0.4-0.8,1.3-1.1,2.1-0.7l6.6,3.3
				c0.8,0.4,1.2,1.4,0.8,2.2C1899.7,214.3,1898.7,214.6,1897.9,214.2C1897.9,214.2,1897.9,214.2,1897.9,214.2L1897.9,214.2z"/>
		</g>
		<g>
			
				<linearGradient id="SVGID_00000022551369574334339590000003040079882537453228_" gradientUnits="userSpaceOnUse" x1="12619.6484" y1="-4131.834" x2="12421.9492" y2="-4251.6519" gradientTransform="matrix(0.9972 7.430000e-02 -0.2459 0.8948 -11618.2266 3011.5649)">
				<stop  offset="0" style="stop-color:#A737D5"/>
				<stop  offset="1" style="stop-color:#EF497A"/>
			</linearGradient>
			<polygon style="fill:url(#SVGID_00000022551369574334339590000003040079882537453228_);" points="1872.1,146.6 1861.7,190 
				1836.7,164.2 			"/>
			
				<linearGradient id="SVGID_00000121245158772501747070000003005766762670792887_" gradientUnits="userSpaceOnUse" x1="12509.9229" y1="-4176.1343" x2="12283.6865" y2="-4415.3511" gradientTransform="matrix(0.9972 7.430000e-02 -0.2459 0.8948 -11618.2266 3011.5649)">
				<stop  offset="0" style="stop-color:#A737D5"/>
				<stop  offset="1" style="stop-color:#EF497A"/>
			</linearGradient>
			<path style="fill:url(#SVGID_00000121245158772501747070000003005766762670792887_);" d="M1682.8,74.5l92.5,131.2
				c1.8,2.5,4.5,4.2,7.5,4.7c3,0.5,6.1-0.3,8.6-2.2l128.3-97.8c1.5-1.1,2.1-3,1.6-4.8c-0.5-1.8-2-3.1-3.8-3.3L1682.8,74.5z"/>
			
				<linearGradient id="SVGID_00000078029635807410158980000004146756919357738909_" gradientUnits="userSpaceOnUse" x1="12605.2139" y1="-4133.8276" x2="12420.5342" y2="-4245.7549" gradientTransform="matrix(0.9972 7.430000e-02 -0.2459 0.8948 -11618.2266 3011.5649)">
				<stop  offset="0" style="stop-color:#A737D5"/>
				<stop  offset="1" style="stop-color:#EF497A"/>
			</linearGradient>
			<polygon style="fill:url(#SVGID_00000078029635807410158980000004146756919357738909_);" points="1872.1,146.6 1682.8,74.5 
				1851.5,162.4 1849.1,174.6 			"/>
			
				<linearGradient id="SVGID_00000037687982597767847820000011807611656089050251_" gradientUnits="userSpaceOnUse" x1="-14412.8408" y1="-3693.1538" x2="-14328.4512" y2="-3717.5962" gradientTransform="matrix(-0.9972 -7.430000e-02 -7.430000e-02 0.9972 -12754.6318 2801.4363)">
				<stop  offset="0" style="stop-color:#A737D5"/>
				<stop  offset="1" style="stop-color:#EF497A"/>
			</linearGradient>
			<polygon style="fill:url(#SVGID_00000037687982597767847820000011807611656089050251_);" points="1839.2,171.7 1861.7,190 
				1851.5,162.4 			"/>
		</g>
	</g>
	<g>
		
			<linearGradient id="SVGID_00000088132535616402193470000002619592101699360897_" gradientUnits="userSpaceOnUse" x1="11990.5938" y1="987.301" x2="11845.2178" y2="1070.2797" gradientTransform="matrix(-1 0 0 1 13697.9824 0)">
			<stop  offset="0" style="stop-color:#F9B776"/>
			<stop  offset="1" style="stop-color:#F47960"/>
		</linearGradient>
		<path style="fill:url(#SVGID_00000088132535616402193470000002619592101699360897_);" d="M1729.5,1122.6
			c0.2-0.1,92.4-161.5,104.8-176.7c2.1-2.6,5.3-3.9,8.6-3.5l25.7,3.1l30.2,65.4l-50.4-29.3c5,34.5-59.7,85.7-81.9,104.4
			c-2.3,1.9-2.4,5.3-0.4,7.4l8.9,9.3c-14.5,14.7-31.3,24.2-50.3,28.6L1729.5,1122.6z"/>
		
			<linearGradient id="SVGID_00000015353791162576749160000011143853444238973630_" gradientUnits="userSpaceOnUse" x1="-3519.1572" y1="-2531.5159" x2="-3530.3174" y2="-2360.3958" gradientTransform="matrix(0.8974 -0.4412 0.4412 0.8974 6001.3901 1789.3992)">
			<stop  offset="0" style="stop-color:#CB236D"/>
			<stop  offset="1" style="stop-color:#4C246D"/>
		</linearGradient>
		<path style="fill:url(#SVGID_00000015353791162576749160000011143853444238973630_);" d="M1770,1097.6c0,0,5.7,1.8,7.6,6.9
			c0.9,2.4-0.1,5.1-2.2,6.6c-9.3,6.7-40,28.2-54.2,32.4c-1.2,0.3-2.3-0.7-2-1.9c0.7-3.3,3.1-9.9,10.7-19.5l-0.7,1.4
			c-0.9,1.7,1,3.6,2.7,2.6C1741.4,1120.8,1760.7,1109.1,1770,1097.6z"/>
		
			<linearGradient id="SVGID_00000169549414261321328090000014050048806467235250_" gradientUnits="userSpaceOnUse" x1="11976.5312" y1="1007.9951" x2="12473.9385" y2="696.6103" gradientTransform="matrix(-1 0 0 1 13697.9824 0)">
			<stop  offset="0" style="stop-color:#F9B776"/>
			<stop  offset="1" style="stop-color:#F47960"/>
		</linearGradient>
		<path style="fill:url(#SVGID_00000169549414261321328090000014050048806467235250_);" d="M1765.4,1162.2
			c0.2-0.1,14-33.4,14.1-33.5c12.7-77.2,43.6-143.4,52.8-160.8c1.5-2.9,4.4-4.9,7.7-5.1l25.8-2.2l42.8,57.9l-55.3-18.5
			c11.9,32.8-41.1,96-59.1,118.8c-1.8,2.3-1.3,5.7,1.1,7.4l10.6,7.3c-11.3,17.4-25.8,30.1-43.4,38.2L1765.4,1162.2z"/>
		
			<linearGradient id="SVGID_00000048486013025207560800000007317358966168987566_" gradientUnits="userSpaceOnUse" x1="-2540.3679" y1="-3865.9392" x2="-2551.5271" y2="-3694.8318" gradientTransform="matrix(0.7895 -0.6137 0.6137 0.7895 6129.937 2604.7524)">
			<stop  offset="0" style="stop-color:#CB236D"/>
			<stop  offset="1" style="stop-color:#4C246D"/>
		</linearGradient>
		<path style="fill:url(#SVGID_00000048486013025207560800000007317358966168987566_);" d="M1800,1129.6c0,0,5.9,0.6,8.8,5.2
			c1.4,2.2,1,5-0.8,6.9c-7.8,8.4-33.5,35.7-46.5,42.7c-1.1,0.6-2.4-0.2-2.3-1.4c0-3.4,1-10.3,6.5-21.2l-0.4,1.5
			c-0.5,1.9,1.7,3.3,3.2,2C1776.7,1158,1793.2,1142.7,1800,1129.6z"/>
		<g>
			
				<linearGradient id="SVGID_00000009578496951690313560000004478340597821451168_" gradientUnits="userSpaceOnUse" x1="1684.5374" y1="5151.502" x2="1564.8289" y2="5372.5024" gradientTransform="matrix(-1 0 0 1 5866.2827 0)">
				<stop  offset="0" style="stop-color:#A737D5"/>
				<stop  offset="1" style="stop-color:#EF497A"/>
			</linearGradient>
			<path style="fill:url(#SVGID_00000009578496951690313560000004478340597821451168_);" d="M1986.8,948.4c0,0,23.4,34.7,25.3,50.6
				c1.9,15.9-6.5,21.3-30.9,23.4c-72.8,6-108.6-15.8-108.6-15.8c-5-31.7-8.5-39.8-50.1-57.1c0,0,52.6,4.2,63.2,0.1
				C1896.2,945.4,1986.8,948.4,1986.8,948.4z"/>
		</g>
		<g>
			
				<linearGradient id="SVGID_00000154398705191454556650000000856744150639487922_" gradientUnits="userSpaceOnUse" x1="-6734.7148" y1="475.0582" x2="-6698.9668" y2="564.7323" gradientTransform="matrix(0.9446 -0.3283 0.3283 0.9446 8074.3423 -1954.394)">
				<stop  offset="0" style="stop-color:#2B3582"/>
				<stop  offset="1" style="stop-color:#150E42"/>
			</linearGradient>
			<path style="fill:url(#SVGID_00000154398705191454556650000000856744150639487922_);" d="M1893.6,753.7c0,0,16.3-19.3,33.6,4.4
				c3.1,4.3,15.2,0.7,19.6,9.7c2.3,4.6,7.2,7.3,12.3,6.3c12.6-2.3,33.3-2.5,43.4,17.3c7.8,15.1,1.8,23.9-6,29
				c-5.7,3.7-7.7,11.2-4.3,17.1c3.3,5.6,3.9,13.2-4.6,22.4c-19.2,20.5-57.1-13-57.1-13l-30.1-71.2L1893.6,753.7z"/>
			
				<linearGradient id="SVGID_00000175284555729046919130000005740174128705034369_" gradientUnits="userSpaceOnUse" x1="1416.9615" y1="-13281.1338" x2="1483.4189" y2="-13190.0625" gradientTransform="matrix(-1 0 0 1 13697.9824 0)">
				<stop  offset="0" style="stop-color:#A737D5"/>
				<stop  offset="1" style="stop-color:#EF497A"/>
			</linearGradient>
			<path style="fill:url(#SVGID_00000175284555729046919130000005740174128705034369_);" d="M1923.6,943.8c0,0-27.2-25.9-40.6-43.1
				c-7.2-9.3-9.5-21.5-6.2-32.8c6.1-20.6,17-41.9,18-45.3c1.5-5.1,32-4.9,32-4.9s60,39,83.6,105l-26.5,8.2c0,0-15.7-26.3-31.2-43
				c0,0,26.8,35.4,27.7,49.9L1923.6,943.8z"/>
			
				<linearGradient id="SVGID_00000091695895708572340770000006174687829661608844_" gradientUnits="userSpaceOnUse" x1="-4549.5093" y1="939.4711" x2="-4404.6924" y2="939.4711" gradientTransform="matrix(1 0 0 1 6511.52 0)">
				<stop  offset="0" style="stop-color:#F9B776"/>
				<stop  offset="1" style="stop-color:#F47960"/>
			</linearGradient>
			<path style="fill:url(#SVGID_00000091695895708572340770000006174687829661608844_);" d="M1871.7,954l20.4-22.2l23.6,6.4
				c0,0,27.5,4.3,43.3,0c15.8-4.3,15.8-4.3,15.8-4.3l35.6-11.1l5.6,15.8c1.4,4,0,8.5-3.5,10.9c-3.1,2.2-6.7,4.6-9,5.6
				c-4.7,2.1-108,0.6-108,0.6L1871.7,954z"/>
			
				<linearGradient id="SVGID_00000183219247241414380520000016931556053438308742_" gradientUnits="userSpaceOnUse" x1="-6388.0054" y1="354.1822" x2="-6380.9263" y2="302.3924" gradientTransform="matrix(0.9974 -7.170000e-02 7.170000e-02 0.9974 8249.0703 58.9746)">
				<stop  offset="0" style="stop-color:#F9B776"/>
				<stop  offset="1" style="stop-color:#F47960"/>
			</linearGradient>
			<path style="fill:url(#SVGID_00000183219247241414380520000016931556053438308742_);" d="M1905.9,781.1l20.5,38.1
				c-1.4,8.3-22.3,8.6-25.6,3.6c-0.3-0.5-0.5-1.1-0.6-1.7l-12.3-25.5c-0.5-2.5,6.3-10.9,8.5-12l8.1-4.3
				C1907.7,777.6,1894.6,777.5,1905.9,781.1z"/>
			<g>
				
					<linearGradient id="SVGID_00000051351589529887677580000000063131057221995708_" gradientUnits="userSpaceOnUse" x1="-7545.1572" y1="-374.1788" x2="-7478.502" y2="-492.8028" gradientTransform="matrix(0.5458 -0.8379 0.8379 0.5458 6339.6694 -5291.7397)">
					<stop  offset="0" style="stop-color:#F9B776"/>
					<stop  offset="1" style="stop-color:#F47960"/>
				</linearGradient>
				<path style="fill:url(#SVGID_00000051351589529887677580000000063131057221995708_);" d="M1864.4,772.2c0,0-2.3,12.9,7.8,29.3
					c10.1,16.4,20.2,15.6,25.3,9.8c5.1-5.8,11.3-15.6,8.5-31.9C1903.2,763,1867.9,755.7,1864.4,772.2z"/>
				
					<linearGradient id="SVGID_00000170260265406876767650000007380718175755757489_" gradientUnits="userSpaceOnUse" x1="-7530.8237" y1="-477.4816" x2="-7497.4966" y2="-393.8809" gradientTransform="matrix(0.5458 -0.8379 0.8379 0.5458 6339.6694 -5291.7397)">
					<stop  offset="0" style="stop-color:#2B3582"/>
					<stop  offset="1" style="stop-color:#150E42"/>
				</linearGradient>
				<path style="fill:url(#SVGID_00000170260265406876767650000007380718175755757489_);" d="M1893.7,781.1c0,0-16.4-21.5-29-2.8
					l0.2,6.5c0,0-16.4-0.8-14.6-15.8c1.8-15.1,15.1-25.4,33.7-20.2c18.5,5.2,29.3,11,31.4,23.9c2.1,12.9-8.4,10.8-8.4,10.8
					s-4-8.9-8.9-9.5c-4.8-0.6-3.1,6.4-3.1,6.4L1893.7,781.1z"/>
				
					<linearGradient id="SVGID_00000025443248487318357280000009497668490996681914_" gradientUnits="userSpaceOnUse" x1="-7530.9683" y1="-366.2079" x2="-7464.314" y2="-484.8297" gradientTransform="matrix(0.5458 -0.8379 0.8379 0.5458 6339.6694 -5291.7397)">
					<stop  offset="0" style="stop-color:#F9B776"/>
					<stop  offset="1" style="stop-color:#F47960"/>
				</linearGradient>
				<path style="fill:url(#SVGID_00000025443248487318357280000009497668490996681914_);" d="M1897.5,780.5c0,0-8.5-11-0.8-13.3
					c7.7-2.3,7.4,10.8,6.9,15.7L1897.5,780.5z"/>
			</g>
		</g>
		<g>
			
				<linearGradient id="SVGID_00000008110802196879601600000003406802500892638896_" gradientUnits="userSpaceOnUse" x1="11073.7432" y1="17.4447" x2="11008.9268" y2="20.7266" gradientTransform="matrix(0.9988 -4.940000e-02 4.940000e-02 0.9988 6519.7949 -86.1458)">
				<stop  offset="0" style="stop-color:#2B3582"/>
				<stop  offset="1" style="stop-color:#150E42"/>
			</linearGradient>
			<path style="fill:url(#SVGID_00000008110802196879601600000003406802500892638896_);" d="M1939.4,962.8c-0.1,0-0.1,0-0.2,0
				l-94-0.1c-2.3,0-4.2-1.9-4.2-4.2c0-2.3,1.9-4.2,4.2-4.2l94,0.1c2.3,0,4.2,1.9,4.2,4.2C1943.4,960.8,1941.6,962.7,1939.4,962.8z"
				/>
			
				<linearGradient id="SVGID_00000101809226181101795550000013352168522305842612_" gradientUnits="userSpaceOnUse" x1="6798.3369" y1="925.6041" x2="7479.7012" y2="868.2778" gradientTransform="matrix(1 0 0 1 -5039.5898 0)">
				<stop  offset="0" style="stop-color:#2B3582"/>
				<stop  offset="1" style="stop-color:#150E42"/>
			</linearGradient>
			<path style="fill:url(#SVGID_00000101809226181101795550000013352168522305842612_);" d="M1760.6,877.4h78.3
				c5.8,0,11,3.3,13.5,8.6l36.2,76.8h-97.3c-3.7,0-7.1-2.3-8.4-5.7l-28.1-71C1753.2,881.9,1756.2,877.4,1760.6,877.4z"/>
		</g>
	</g>
</g>
</svg>
