<svg xmlns="http://www.w3.org/2000/svg" version="1.1" viewBox="-5.0 -10.0 110.0 135.0">
 <path d="m72.898 87.461h-47.93c-4.0625 0-6.207 4.9609-3.2695 7.8984 0.83984 0.83984 1.9961 1.3594 3.2695 1.3594h47.93c4.0625 0 6.207-4.9609 3.2695-7.8984-0.83984-0.83984-2-1.3594-3.2695-1.3594zm-17.133-72.711c-3.4453-3.4453-9.0273-3.4453-12.473 0-3.4453 3.4453-3.4453 9.0273 0 12.473 3.4453 3.4453 9.0273 3.4453 12.473 0 3.4453-3.4453 3.4453-9.0312 0-12.473zm-6.2383-4.6133c5.9922 0 10.848 4.8555 10.848 10.848s-4.8555 10.848-10.848 10.848c-5.9922 0-10.848-4.8555-10.848-10.848s4.8594-10.848 10.848-10.848zm24.512 56.422h-50.211c-3.0586 0-4.6797 3.7383-2.4648 5.9531 0.63281 0.63281 1.5039 1.0273 2.4648 1.0273h50.211c3.0586 0 4.6797-3.7383 2.4648-5.9531-0.63672-0.63672-1.5078-1.0273-2.4648-1.0273zm2.7656-28.578c-3.8125-3.8125-9.9961-3.8125-13.812 0-3.8125 3.8125-3.8125 9.9961 0 13.812 3.8164 3.8125 10 3.8125 13.812 0 3.8125-3.8164 3.8125-10 0-13.812zm-16.086 14.312c-9.9883 5.1055-22.176 3.168-30.113-4.7656-0.56641-0.56641-1.1094-1.1602-1.6211-1.7773v-2.0859c0-5.5195 6.9062-9.8906 12.211-9.8906v-0.003907h1.6445c0.17578 0.0625 2.5547 2.4023 6.6914 2.4023 4.1328 0 6.5078-2.3359 6.6875-2.3984h0.45703c2.0938 0 4.2891 0.64844 6.1758 1.6562-5.3594 3.9961-6.3438 11.652-2.1328 16.863zm9.1797-19.203c-1.8164 0-3.5391 0.41016-5.0742 1.1445-1.1719-0.73438-2.4375-1.3281-3.7266-1.75-2.0234-0.66406-3.293-0.74609-5.25-0.74609v0.003907c-0.23828 0-0.47656 0.082031-0.66797 0.25391-3.2227 2.8555-8.0703 2.8594-11.297 0-0.17969-0.16016-0.41406-0.25391-0.66797-0.25391h-2.0195v-0.003907c-6.0977 0-13.699 4.8086-14.211 11.246-2.5117-3.9922-3.9688-8.7227-3.9688-13.789 0-14.316 11.605-25.918 25.918-25.918 16.285 0 28.453 14.816 25.48 30.707-1.3906-0.57422-2.918-0.89453-4.5156-0.89453zm-46.07 30.426c-1.3359 0-1.3359-2.0312 0-2.0312h15.855c1.3359 0 1.3359 2.0312 0 2.0312zm0 20.902c-1.3359 0-1.3359-2.0273 0-2.0273h15.855c1.3359 0 1.3359 2.0273 0 2.0273zm3.875 5.6523c1.1133 0 2.0195 0.90234 2.0195 2.0195 0 1.1172-0.90234 2.0195-2.0195 2.0195s-2.0195-0.90234-2.0195-2.0195c0-1.1133 0.90234-2.0195 2.0195-2.0195zm10.613 0c1.1133 0 2.0195 0.90234 2.0195 2.0195 0 1.1172-0.90234 2.0195-2.0195 2.0195-1.1172 0-2.0195-0.90234-2.0195-2.0195 0-1.1133 0.90625-2.0195 2.0195-2.0195zm10.617 0c1.1172 0 2.0195 0.90234 2.0195 2.0195 0 1.1172-0.90234 2.0195-2.0195 2.0195-1.1172 0-2.0195-0.90234-2.0195-2.0195 0-1.1133 0.90234-2.0195 2.0195-2.0195zm10.613 0c1.1133 0 2.0195 0.90234 2.0195 2.0195 0 1.1172-0.90234 2.0195-2.0195 2.0195s-2.0195-0.90234-2.0195-2.0195c0-1.1133 0.90625-2.0195 2.0195-2.0195zm10.617 0c1.1172 0 2.0195 0.90234 2.0195 2.0195 0 1.1172-0.90234 2.0195-2.0195 2.0195-1.1172 0-2.0195-0.90234-2.0195-2.0195 0-1.1133 0.90234-2.0195 2.0195-2.0195zm1.375-46.828h4.918v3.2852h-4.918v4.918h-3.2852v-4.918h-4.918v-3.2852h4.918v-4.918h3.2852z" fill-rule="evenodd"/>
<text x="0.0" y="117.5" font-size="5.0" font-weight="bold" font-family="Arbeit Regular, Helvetica, Arial-Unicode, Arial, Sans-serif" fill="#000000">Created by Suyatini</text><text x="0.0" y="122.5" font-size="5.0" font-weight="bold" font-family="Arbeit Regular, Helvetica, Arial-Unicode, Arial, Sans-serif" fill="#000000">from Noun Project</text></svg>