<svg xmlns="http://www.w3.org/2000/svg" version="1.1" viewBox="-5.0 -10.0 110.0 135.0">
 <path d="m21.047 70.305h28.578v-3.7695c-0.003906-1.1211-0.91016-2.0273-2.0312-2.0312h-24.52c-1.1172 0.003906-2.0234 0.91016-2.0273 2.0312v3.7734zm5.8281 11.555v-8.6484h-5.8281v6.6172c0.003906 1.1211 0.91016 2.0273 2.0273 2.0312zm2.8984-8.6523v8.6523h17.82c1.1211-0.003906 2.0234-0.91016 2.0312-2.0312v-6.6172zm10.27-26.141h2.625c0.55859-0.003906 1.0703 0.31641 1.3125 0.82031 0.24219 0.50391 0.17188 1.1055-0.17969 1.5391l-7.3203 9.0508v-0.003906c-0.26953 0.35156-0.6875 0.55859-1.1328 0.5625-0.44141 0.003906-0.85938-0.19531-1.1367-0.54297l-7.2695-8.9844c-0.39453-0.42187-0.5-1.0391-0.26953-1.5664 0.22656-0.53125 0.75-0.875 1.3281-0.875h2.625v-9.457c0-0.80078 0.64844-1.4531 1.4531-1.4531h6.5156-0.003906c0.80078 0.003906 1.4531 0.65234 1.4531 1.4531zm-7.9648 2.8984h-1.043l4.3008 5.3125 4.3008-5.3125h-1.0391c-0.80078 0-1.4531-0.64844-1.4531-1.4492v-9.4531h-3.6133v9.457c0 0.80078-0.65234 1.4492-1.4531 1.4492zm43.211-18.918v0.31641c0.023438 0.39844-0.12109 0.78906-0.39453 1.0781-0.27344 0.28906-0.65625 0.44922-1.0547 0.44922-0.39844 0-0.77734-0.16016-1.0547-0.44922-0.27344-0.28906-0.41797-0.67969-0.39453-1.0781v-0.31641c-0.55469-0.14844-1.0781-0.39844-1.5469-0.73047-0.91406-0.60938-1.4727-1.6289-1.5-2.7266-0.019531-0.39844 0.125-0.78906 0.39844-1.0781 0.27344-0.28906 0.65625-0.45312 1.0547-0.45312 0.39453 0 0.77734 0.16406 1.0508 0.45312 0.27344 0.28906 0.41797 0.67969 0.39844 1.0781 0 0.11719 0.10938 0.25391 0.28906 0.38281v-0.003906c0.80078 0.49219 1.8125 0.49219 2.6133 0 0.17969-0.12891 0.28906-0.26562 0.28906-0.38281v-1.3047c-0.003906-0.0625-0.027344-0.12109-0.066406-0.17188-0.12891-0.14844-0.28906-0.26172-0.47266-0.33594l-3.3281-1.5391c-0.61719-0.27344-1.1602-0.69141-1.5742-1.2227-0.42578-0.55078-0.65625-1.2227-0.65234-1.918v-1.3008c0.023438-1.1016 0.58203-2.1211 1.5-2.7305 0.46484-0.33203 0.98828-0.57812 1.543-0.73047v-0.31641c-0.019531-0.39844 0.12109-0.78516 0.39844-1.0742 0.27344-0.28906 0.65234-0.45312 1.0508-0.45312 0.39844 0 0.78125 0.16406 1.0547 0.45312 0.27344 0.28906 0.41797 0.67578 0.39453 1.0742v0.31641c0.55469 0.15234 1.0781 0.39844 1.5469 0.73047 0.91797 0.60938 1.4766 1.6289 1.5 2.7305-0.039062 0.76953-0.67578 1.375-1.4492 1.375-0.77344 0-1.4102-0.60547-1.4492-1.375 0-0.11719-0.10938-0.25391-0.28906-0.38281-0.80078-0.49219-1.8125-0.49219-2.6133 0-0.17969 0.12891-0.28906 0.26562-0.28906 0.38281v1.3008c0 0.0625 0.023437 0.12109 0.0625 0.17188 0.12891 0.14844 0.29297 0.26562 0.47656 0.33594l3.3281 1.5391c0.61719 0.27344 1.1562 0.69141 1.5742 1.2227 0.42578 0.55078 0.65234 1.2266 0.65234 1.918v1.3086c-0.023438 1.0977-0.58594 2.1172-1.5 2.7266-0.46875 0.33203-0.99219 0.58203-1.5469 0.73047zm6.9609-15.77c-4.0117-4.0117-10.301-4.6328-15.02-1.4805s-6.5508 9.1992-4.3789 14.441c2.1719 5.2422 7.7422 8.2227 13.309 7.1133 5.5625-1.1055 9.5742-5.9883 9.5742-11.664 0.003906-3.1562-1.25-6.1836-3.4844-8.4102zm-8.4102-6.3867c-4.6016 0-8.9414 2.1367-11.746 5.7891-2.8008 3.6484-3.7461 8.3945-2.5547 12.84 1.1914 4.4453 4.3789 8.082 8.6328 9.8438 4.25 1.7617 9.0781 1.4453 13.062-0.85547 3.9844-2.3008 6.6758-6.3242 7.2734-10.887 0.60156-4.5625-0.95312-9.1445-4.207-12.398-2.7734-2.7773-6.5391-4.3359-10.461-4.332zm13.215 1.5859-0.003907-0.003906c-4.1055-4.1055-9.8906-6.0703-15.648-5.3086-5.7617 0.75781-10.84 4.1523-13.742 9.1836-2.9062 5.0273-3.3047 11.125-1.082 16.492 2.2227 5.3672 6.8164 9.3945 12.426 10.895 5.6133 1.5039 11.602 0.3125 16.211-3.2227 4.6094-3.5352 7.3125-9.0156 7.3125-14.824 0.003906-4.957-1.9648-9.7148-5.4766-13.215zm-34.602 16.199c0.5625 4.0703 2.2852 7.8984 4.957 11.023v49.121c-0.011718 0.92578-0.75781 1.6719-1.6836 1.6797h-40.781c-0.92969-0.003906-1.6797-0.75781-1.6875-1.6836v-58.461c0.007813-0.92969 0.75781-1.6797 1.6875-1.6836h12.102v0.48047l-0.003906-0.003906c0.003906 2.3594 1.918 4.2734 4.2734 4.2773h8.0352c2.3594-0.007812 4.2695-1.918 4.2734-4.2773v-0.48047zm-10.277-2.8984-0.003906-0.003906c-0.80078 0-1.4492 0.64844-1.4492 1.4531v1.9219c-0.003906 0.75781-0.61719 1.3672-1.3711 1.3711h-8.0352c-0.75391-0.003906-1.3633-0.61328-1.3711-1.3711v-1.9297c0-0.80078-0.64453-1.4492-1.4453-1.4531h-13.555c-2.5312 0.007813-4.582 2.0586-4.5898 4.5898v58.461c0.007812 2.5273 2.0586 4.5781 4.5898 4.582h40.781c2.5312-0.003907 4.582-2.0547 4.5859-4.5859v-46.301c0.91016 0.73047 1.875 1.3867 2.8867 1.9648v50.066c-0.003907 1.3555-1.1055 2.4531-2.4609 2.457h-50.809c-1.3516-0.007812-2.4492-1.1016-2.457-2.457v-69.914c0.007813-1.3555 1.1055-2.4531 2.457-2.457h42.602c-0.19141 1.1641-0.28516 2.3398-0.28516 3.5156v0.078125zm-19.102 37.824h24.52c2.7227 0.003907 4.9297 2.2109 4.9336 4.9297v13.301c-0.003906 2.7227-2.2109 4.9297-4.9336 4.9336h-24.52c-2.7227-0.003906-4.9258-2.2109-4.9336-4.9336v-13.301c0.007813-2.7188 2.2109-4.9258 4.9336-4.9297z" fill-rule="evenodd"/>
<text x="0.0" y="117.5" font-size="5.0" font-weight="bold" font-family="Arbeit Regular, Helvetica, Arial-Unicode, Arial, Sans-serif" fill="#000000">Created by Restu fadillah</text><text x="0.0" y="122.5" font-size="5.0" font-weight="bold" font-family="Arbeit Regular, Helvetica, Arial-Unicode, Arial, Sans-serif" fill="#000000">from Noun Project</text></svg>