<svg xmlns="http://www.w3.org/2000/svg" viewBox="0 0 100 125" x="0px" y="0px"><title>Sign Up</title><g data-name="Layer 4"><path d="M87,70H13a8,8,0,0,0-8,8v9a8,8,0,0,0,8,8H87a8,8,0,0,0,8-8V78A8,8,0,0,0,87,70ZM58.91,78.41l-10,10a2,2,0,0,1-2.82,0l-5-5a2,2,0,0,1,2.82-2.82l3.59,3.58,8.59-8.58a2,2,0,0,1,2.82,2.82Z"/><rect x="30" y="5" width="65" height="20" rx="4"/><path d="M91,35H34a4,4,0,0,0-4,4V51a4,4,0,0,0,4,4H91a4,4,0,0,0,4-4V39A4,4,0,0,0,91,35ZM43.36,45.88a1.75,1.75,0,0,1-2.48,2.48L40,47.48l-.88.88a1.75,1.75,0,1,1-2.48-2.48l.88-.88-.88-.88a1.75,1.75,0,1,1,2.48-2.48l.88.88.88-.88a1.75,1.75,0,1,1,2.48,2.48l-.88.88Zm15,0a1.75,1.75,0,0,1-2.48,2.48L55,47.48l-.88.88a1.75,1.75,0,1,1-2.48-2.48l.88-.88-.88-.88a1.75,1.75,0,1,1,2.48-2.48l.88.88.88-.88a1.75,1.75,0,1,1,2.48,2.48l-.88.88Zm15,0a1.75,1.75,0,0,1-2.48,2.48L70,47.48l-.88.88a1.75,1.75,0,1,1-2.48-2.48l.88-.88-.88-.88a1.75,1.75,0,1,1,2.48-2.48l.88.88.88-.88a1.75,1.75,0,1,1,2.48,2.48l-.88.88Zm15,0a1.75,1.75,0,0,1-2.48,2.48L85,47.48l-.88.88a1.75,1.75,0,1,1-2.48-2.48l.88-.88-.88-.88a1.75,1.75,0,1,1,2.48-2.48l.88.88.88-.88a1.75,1.75,0,1,1,2.48,2.48l-.88.88Z"/><path d="M20,27a2,2,0,0,1-2-2V22.5a5.5,5.5,0,0,0-11,0V25a2,2,0,0,1-4,0V22.5a9.5,9.5,0,0,1,19,0V25A2,2,0,0,1,20,27Z"/><circle cx="12.5" cy="10" r="5"/><rect x="5" y="45" width="15" height="10" rx="2"/><path d="M17.5,47a2,2,0,0,1-2-2V40a3,3,0,0,0-6,0v5a2,2,0,0,1-4,0V40a7,7,0,0,1,14,0v5A2,2,0,0,1,17.5,47Z"/></g><text x="0" y="115" fill="#000000" font-size="5px" font-weight="bold" font-family="'Helvetica Neue', Helvetica, Arial-Unicode, Arial, Sans-serif">Created by Moch Rizki Eko Waluyo</text><text x="0" y="120" fill="#000000" font-size="5px" font-weight="bold" font-family="'Helvetica Neue', Helvetica, Arial-Unicode, Arial, Sans-serif">from the Noun Project</text></svg>