<?xml version="1.0" encoding="utf-8"?>
<!-- Generator: Adobe Illustrator 26.1.0, SVG Export Plug-In . SVG Version: 6.00 Build 0)  -->
<svg version="1.1" id="Layer_1" xmlns="http://www.w3.org/2000/svg" xmlns:xlink="http://www.w3.org/1999/xlink" x="0px" y="0px"
	 viewBox="0 0 110 105" style="enable-background:new 0 0 110 105;" xml:space="preserve">
<style type="text/css">
	.st0{fill-rule:evenodd;clip-rule:evenodd;fill:url(#SVGID_1_);}
</style>
<linearGradient id="SVGID_1_" gradientUnits="userSpaceOnUse" x1="25.3362" y1="52.5" x2="84.6638" y2="52.5">
	<stop  offset="0" style="stop-color:#412E64"/>
	<stop  offset="0.29" style="stop-color:#5B489D"/>
	<stop  offset="0.73" style="stop-color:#CF6FAC"/>
</linearGradient>
<path class="st0" d="M77.9,90H30c-4.1,0-6.2,5-3.3,7.9c0.8,0.8,2,1.4,3.3,1.4h47.9c4.1,0,6.2-5,3.3-7.9C80.3,90.5,79.2,90,77.9,90z
	 M60.8,17.3c-3.4-3.4-9-3.4-12.5,0c-3.4,3.4-3.4,9,0,12.5c3.4,3.4,9,3.4,12.5,0C64.2,26.3,64.2,20.7,60.8,17.3z M54.5,12.6
	c6,0,10.8,4.9,10.8,10.8s-4.9,10.8-10.8,10.8c-6,0-10.8-4.9-10.8-10.8S48.5,12.6,54.5,12.6z M79,69.1H28.8c-3.1,0-4.7,3.7-2.5,6
	c0.6,0.6,1.5,1,2.5,1H79c3.1,0,4.7-3.7,2.5-6C80.9,69.5,80,69.1,79,69.1z M81.8,40.5c-3.8-3.8-10-3.8-13.8,0c-3.8,3.8-3.8,10,0,13.8
	c3.8,3.8,10,3.8,13.8,0C85.6,50.5,85.6,44.3,81.8,40.5z M65.7,54.8c-10,5.1-22.2,3.2-30.1-4.8c-0.6-0.6-1.1-1.2-1.6-1.8v-2.1
	c0-5.5,6.9-9.9,12.2-9.9v0h1.6c0.2,0.1,2.6,2.4,6.7,2.4c4.1,0,6.5-2.3,6.7-2.4h0.5c2.1,0,4.3,0.6,6.2,1.7
	C62.5,41.9,61.5,49.6,65.7,54.8L65.7,54.8z M74.9,35.6c-1.8,0-3.5,0.4-5.1,1.1c-1.2-0.7-2.4-1.3-3.7-1.8c-2-0.7-3.3-0.7-5.2-0.7v0
	c-0.2,0-0.5,0.1-0.7,0.3c-3.2,2.9-8.1,2.9-11.3,0c-0.2-0.2-0.4-0.3-0.7-0.3h-2v0c-6.1,0-13.7,4.8-14.2,11.2c-2.5-4-4-8.7-4-13.8
	C28,17.4,39.6,5.8,53.9,5.8c16.3,0,28.5,14.8,25.5,30.7C78,35.9,76.5,35.6,74.9,35.6L74.9,35.6z M28.8,66c-1.3,0-1.3-2,0-2h15.9
	c1.3,0,1.3,2,0,2H28.8z M28.8,86.9c-1.3,0-1.3-2,0-2h15.9c1.3,0,1.3,2,0,2H28.8z M32.7,92.6c1.1,0,2,0.9,2,2c0,1.1-0.9,2-2,2
	s-2-0.9-2-2C30.7,93.5,31.6,92.6,32.7,92.6z M43.3,92.6c1.1,0,2,0.9,2,2c0,1.1-0.9,2-2,2c-1.1,0-2-0.9-2-2
	C41.3,93.5,42.2,92.6,43.3,92.6z M53.9,92.6c1.1,0,2,0.9,2,2c0,1.1-0.9,2-2,2c-1.1,0-2-0.9-2-2C51.9,93.5,52.8,92.6,53.9,92.6z
	 M64.5,92.6c1.1,0,2,0.9,2,2c0,1.1-0.9,2-2,2c-1.1,0-2-0.9-2-2C62.5,93.5,63.4,92.6,64.5,92.6z M75.2,92.6c1.1,0,2,0.9,2,2
	c0,1.1-0.9,2-2,2c-1.1,0-2-0.9-2-2C73.1,93.5,74,92.6,75.2,92.6z M76.5,45.7h4.9V49h-4.9v4.9h-3.3V49h-4.9v-3.3h4.9v-4.9h3.3V45.7z"
	/>
</svg>
