<svg xmlns="http://www.w3.org/2000/svg" version="1.1" viewBox="-5.0 -10.0 110.0 135.0">
 <path d="m66.062 66.668h-32.125c-6.7578 0-12.238 5.4805-12.238 12.238s5.4805 12.238 12.238 12.238h32.125c6.7578 0 12.238-5.4805 12.238-12.238s-5.4805-12.238-12.238-12.238zm-8.5195 8.5117-10.543 8.5508c-0.18359 0.15234-0.41797 0.23828-0.65625 0.23828-0.27344 0-0.53516-0.10938-0.73047-0.30078l-3.2305-3.125h0.003907c-0.41406-0.40234-0.41797-1.0625-0.015625-1.4766 0.40234-0.41016 1.0625-0.41797 1.4727-0.015625l2.5625 2.5 9.8438-8.0195c0.21094-0.19141 0.49219-0.28516 0.77734-0.26562 0.28516 0.023437 0.54688 0.16016 0.72656 0.38281 0.17969 0.22266 0.26172 0.50781 0.22656 0.78906-0.039063 0.28516-0.1875 0.53906-0.41797 0.70703zm-36.887-41.848h58.688c6.7578 0 12.238-5.4805 12.238-12.238s-5.4805-12.238-12.238-12.238h-58.688c-6.7578 0-12.238 5.4805-12.238 12.238s5.4805 12.238 12.238 12.238zm22.457-15.418h9.4375v0.003907c0.57812 0 1.043 0.46484 1.043 1.0391 0 0.57812-0.46484 1.043-1.043 1.043h-9.4375c-0.57422 0-1.0391-0.46484-1.0391-1.043 0-0.57422 0.46484-1.0391 1.0391-1.0391zm0 4.2695 32.805 0.003906c0.57422 0 1.0391 0.46484 1.0391 1.043 0 0.57422-0.46484 1.0391-1.0391 1.0391h-32.805c-0.57422 0-1.0391-0.46484-1.0391-1.0391 0-0.57812 0.46484-1.043 1.0391-1.043zm-18.238-1.4336c-0.88281-1.0977-1.0547-2.6016-0.44922-3.8711 0.60938-1.2695 1.8906-2.0781 3.2969-2.0781 1.4102 0 2.6914 0.80859 3.2969 2.0781 0.60938 1.2695 0.43359 2.7734-0.44531 3.8711 2.1094 1.0703 3.4414 3.2383 3.4453 5.6055 0 0.27344-0.10938 0.53906-0.30469 0.73438-0.19531 0.19531-0.46094 0.30469-0.73438 0.30469h-10.5c-0.57812 0-1.043-0.46484-1.043-1.0391-0.007812-2.3711 1.3242-4.5391 3.4375-5.6055zm6.9258 4.5625h-8.1562c0.40625-1.9297 2.1094-3.3125 4.0781-3.3125 1.9727 0 3.6758 1.3828 4.0781 3.3125zm-4.0742-5.207h0.003907c-0.63281 0-1.2031-0.38281-1.4453-0.96484-0.24219-0.58594-0.10938-1.2578 0.33984-1.7031 0.44531-0.44922 1.1172-0.58203 1.7031-0.33984 0.58203 0.24219 0.96484 0.8125 0.96484 1.4453-0.027344 0.84375-0.71875 1.5156-1.5625 1.5195zm-0.51953 27.812-4.8555-3.4375h10.742l-4.8555 3.4375c-0.30859 0.21484-0.71875 0.21484-1.0312 0zm8.2109-2.4922c0.003906 0.035157 0.003906 0.070313 0 0.10547v6.8008c0 0.27734-0.10938 0.54297-0.30469 0.73828-0.19531 0.19531-0.46094 0.30469-0.73828 0.30469h-13.27c-0.57812 0-1.043-0.46484-1.043-1.043v-6.8008c-0.003906-0.035156-0.003906-0.070312 0-0.10547l5.9258 4.168c1.0312 0.72266 2.3984 0.72266 3.4297 0zm43.98-8.7383h-58.742c-6.7578 0-12.238 5.4805-12.238 12.238 0 6.7617 5.4805 12.242 12.238 12.242h58.688c6.7578 0 12.238-5.4805 12.238-12.242 0-6.7578-5.4805-12.238-12.238-12.238zm-36.23 9.0625h9.4375c0.57422 0 1.0391 0.46484 1.0391 1.043 0 0.57422-0.46484 1.0391-1.0391 1.0391h-9.4922c-0.57422 0-1.0391-0.46484-1.0391-1.0391 0-0.57812 0.46484-1.043 1.0391-1.043zm-5.668 6.582c0 1.7266-1.3984 3.125-3.125 3.125h-13.27c-1.7266 0-3.125-1.3984-3.125-3.125v-6.8008c0-1.7266 1.3984-3.125 3.125-3.125h13.27c1.7266 0 3.125 1.3984 3.125 3.125zm38.418-0.25h-32.805c-0.57422 0-1.0391-0.46484-1.0391-1.0391 0-0.57812 0.46484-1.043 1.0391-1.043h32.805c0.57422 0 1.0391 0.46484 1.0391 1.043 0 0.57422-0.46484 1.0391-1.0391 1.0391z"/>
<text x="0.0" y="117.5" font-size="5.0" font-weight="bold" font-family="Arbeit Regular, Helvetica, Arial-Unicode, Arial, Sans-serif" fill="#000000">Created by Onadio Pori</text><text x="0.0" y="122.5" font-size="5.0" font-weight="bold" font-family="Arbeit Regular, Helvetica, Arial-Unicode, Arial, Sans-serif" fill="#000000">from Noun Project</text></svg>