<?xml version="1.0" encoding="utf-8"?>
<!-- Generator: Adobe Illustrator 26.1.0, SVG Export Plug-In . SVG Version: 6.00 Build 0)  -->
<svg version="1.1" id="Layer_1" xmlns="http://www.w3.org/2000/svg" xmlns:xlink="http://www.w3.org/1999/xlink" x="0px" y="0px"
	 viewBox="0 0 100 93.2" style="enable-background:new 0 0 100 93.2;" xml:space="preserve">
<style type="text/css">
	.st0{fill-rule:evenodd;clip-rule:evenodd;}
</style>
<g>
	<path class="st0" d="M83.1,50.5h-23c-0.6,0-1.1,0.5-1.1,1.1v30.7c0,0.6,0.5,1.1,1.1,1.1h23c0.6,0,1.1-0.5,1.1-1.1V51.6
		C84.2,51,83.7,50.5,83.1,50.5z M79.5,56.1v5.5H63.7v-5.5H79.5z M62.6,53.8h18.1c0.7,0,1.2,0.5,1.2,1.2v7.8c0,0.7-0.5,1.2-1.2,1.2
		H62.6c-0.7,0-1.2-0.5-1.2-1.2V55C61.4,54.3,61.9,53.8,62.6,53.8z M64.2,69.4H63V67h4.2v2.4H64.2z M77.2,69.4h-1.2V67h4.2v2.4H77.2z
		 M70.7,69.4h-1.2V67h4.2v2.4H70.7z M64.2,75H63v-2.4h4.2V75H64.2z M77.2,75h-1.2v-2.4h4.2V75H77.2z M70.7,75h-1.2v-2.4h4.2V75H70.7
		z M64.2,80.6H63v-2.4h4.2v2.4L64.2,80.6z M77.2,80.6h-1.2v-2.4h4.2v2.4L77.2,80.6z M70.7,80.6h-1.2v-2.4h4.2v2.4L70.7,80.6z
		 M49.1,66.5c-3.9-3.9-10.1-3.9-14,0C34.7,67,34.3,67.5,34,68l0,0v0l0,0c-3,4.5-1.9,10.7,2.7,13.7c4.5,3,10.7,1.9,13.7-2.7
		C53,75.1,52.5,69.9,49.1,66.5z M30.2,71.1c0.2-0.9,0.5-1.8,0.8-2.6H15.9c0,0-0.1,0-0.1,0c0,0,0,0,0,0.1V71c0,0.1,0,0.1,0.1,0.1
		L30.2,71.1L30.2,71.1z M30.2,76.1c-0.2-0.8-0.3-1.7-0.3-2.6v0h-12c0,0,0,0-0.1,0c0,0,0,0,0,0.1V76c0,0,0,0,0,0.1c0,0,0,0,0.1,0
		L30.2,76.1z M32.5,81.1H15.9c-0.1,0-0.1,0-0.1-0.1v-2.4c0-0.1,0-0.1,0.1-0.1H31C31.4,79.4,31.9,80.3,32.5,81.1L32.5,81.1z
		 M43.3,80.6c0,0.7-0.5,1.2-1.2,1.2c-0.7,0-1.2-0.5-1.2-1.2c0,0,0,0,0-0.1v-0.4c-1.7-0.5-2.8-2.1-2.8-3.8c0-0.7,0.6-1.2,1.2-1.2
		c0.6,0,1.1,0.5,1.2,1.2c0,0.8,0.6,1.5,1.5,1.6c0.1,0,0.2,0,0.3,0c0.8-0.1,1.5-0.8,1.5-1.6c0-0.4-0.2-0.7-0.4-1
		c-0.4-0.3-0.8-0.6-1.3-0.6c0,0-0.1,0-0.1,0c-1-0.1-2-0.6-2.7-1.3c-0.7-0.7-1.1-1.7-1.1-2.7c0-1.8,1.1-3.3,2.8-3.8v-0.4
		c0-0.7,0.5-1.2,1.2-1.2c0.7,0,1.2,0.5,1.2,1.2c0,0,0,0,0,0.1v0.4c1.7,0.5,2.8,2.1,2.8,3.8c0,0.7-0.6,1.2-1.2,1.2
		c-0.6,0-1.1-0.5-1.2-1.2c0-0.8-0.6-1.5-1.5-1.6c-0.1,0-0.2,0-0.3,0c-0.8,0.1-1.5,0.8-1.5,1.6c0,0.4,0.1,0.7,0.4,1
		c0.4,0.4,0.9,0.6,1.4,0.7l0,0c1,0.1,1.9,0.6,2.6,1.3c0.7,0.7,1.1,1.7,1.1,2.7c0,1.8-1.1,3.3-2.8,3.8V80.6z M22.1,60.7
		c0,0,0.1,0,0.1-0.1l16.1-6.7c0,0,0,0,0,0c0,0,0-0.1,0-0.1l-0.9-2.2c0,0,0,0-0.1-0.1l0,0c0,0-0.1,0-0.1,0l-14.2,5.9
		c0,0-0.1,0-0.1,0.1l-3.9,1.6c0,0,0,0-0.1,0c0,0,0,0.1,0,0.1l0.9,2.2c0,0,0,0,0,0.1c0,0,0.1,0,0.1,0L22.1,60.7L22.1,60.7z M34,9.8
		h40.3c0.6,0,1.1,0.5,1.1,1.1v37.2H60.1c-1.9,0-3.5,1.6-3.5,3.5V78h-3.1c2.5-6.3-0.6-13.4-6.8-15.9c-5.1-2-11-0.4-14.3,4h-8.6v-3.6
		l15.4-6.5c1.2-0.5,1.8-1.8,1.4-3v0l-1-2.4c-0.3-0.6-0.7-1.1-1.3-1.3l0,0c-0.6-0.3-1.3-0.3-1.9,0l-12.6,5.3V19.9l6.7,0
		c1.9,0,3.4-1.5,3.4-3.4C34,16.5,34,9.8,34,9.8z M25.5,17.6h5c0.6,0,1.1-0.5,1.1-1.1v-5L25.5,17.6z M35.2,36.2h13.4
		c0.7,0,1.2-0.5,1.2-1.2c0-0.7-0.5-1.2-1.2-1.2c0,0,0,0,0,0H35.2c-0.7,0-1.2,0.5-1.2,1.2C34,35.7,34.6,36.2,35.2,36.2
		C35.2,36.2,35.2,36.2,35.2,36.2L35.2,36.2z M35.2,41.4H54c0.7,0,1.2-0.5,1.2-1.2S54.7,39,54,39c0,0,0,0-0.1,0H35.2
		c-0.7,0-1.2,0.5-1.2,1.2S34.5,41.4,35.2,41.4C35.2,41.4,35.2,41.4,35.2,41.4L35.2,41.4z M35.2,46.6H54c0.7,0,1.2-0.5,1.2-1.2
		s-0.5-1.2-1.2-1.2c0,0,0,0-0.1,0H35.2c-0.7,0-1.2,0.5-1.2,1.2S34.5,46.6,35.2,46.6C35.2,46.6,35.2,46.6,35.2,46.6L35.2,46.6z
		 M29.7,36.2h0.5c0.7,0,1.2-0.5,1.2-1.2c0-0.7-0.5-1.2-1.2-1.2c0,0,0,0,0,0h-0.5c-0.7,0-1.2,0.5-1.2,1.2
		C28.5,35.7,29.1,36.2,29.7,36.2C29.7,36.2,29.7,36.2,29.7,36.2z M29.7,41.4h0.5c0.7,0,1.2-0.5,1.2-1.2c0-0.7-0.5-1.2-1.2-1.2
		c0,0,0,0-0.1,0h-0.5c-0.7,0-1.2,0.5-1.2,1.2C28.5,40.8,29,41.4,29.7,41.4C29.7,41.4,29.7,41.4,29.7,41.4z M29.7,46.6h0.5
		c0.7,0,1.2-0.5,1.2-1.2c0-0.7-0.5-1.2-1.2-1.2c0,0,0,0-0.1,0h-0.5c-0.7,0-1.2,0.5-1.2,1.2C28.5,46,29,46.6,29.7,46.6
		C29.7,46.6,29.7,46.6,29.7,46.6z M59.5,14.1c-5.8,0-10.5,4.7-10.5,10.5S53.7,35,59.5,35C65.3,35,70,30.4,70,24.6
		c0-2.8-1.1-5.4-3.1-7.4C65,15.2,62.3,14.1,59.5,14.1z M67.5,25.8h-8c-0.7,0-1.2-0.5-1.2-1.2c0,0,0,0,0,0v-8
		c-4.4,0.7-7.5,4.8-6.8,9.2c0.7,4.4,4.8,7.5,9.2,6.8C64.2,32.1,67,29.3,67.5,25.8z M60.7,16.6v6.8h6.8C67,19.9,64.2,17.1,60.7,16.6z
		"/>
</g>
</svg>
