<?xml version="1.0" encoding="utf-8"?>
<!-- Generator: Adobe Illustrator 26.1.0, SVG Export Plug-In . SVG Version: 6.00 Build 0)  -->
<svg version="1.1" id="Layer_1" xmlns="http://www.w3.org/2000/svg" xmlns:xlink="http://www.w3.org/1999/xlink" x="0px" y="0px"
	 viewBox="0 0 110 103.6" style="enable-background:new 0 0 110 103.6;" xml:space="preserve">
<path d="M76.3,72.4c-0.2-0.8-0.9-1.3-1.6-1.3H60.5c-1.1,0-2.1-0.5-2.7-1.4l-2.6-3.6c-0.2-0.3-0.5-0.4-0.8-0.4H30.1
	c-0.5,0-1,0.2-1.3,0.6c-0.3,0.4-0.4,0.9-0.3,1.4l5.8,24.4c0.2,0.8,0.9,1.3,1.6,1.3h43.2c0.5,0,1-0.2,1.3-0.6
	c0.3-0.4,0.4-0.9,0.3-1.4L76.3,72.4z M78.5,58.2h-9.1c-0.3,1.5-1.6,2.6-3.2,2.6h-28c-1.8,0-3.3-1.5-3.3-3.3v-4.1h-2.1
	c-1.5,0-2.7,1.2-2.7,2.7v7.3h24.1c1.1,0,2.1,0.5,2.7,1.4l2.6,3.6c0.2,0.3,0.5,0.4,0.8,0.4h14.1c1.9,0,3.5,1.3,3.9,3.1l2.3,9.6V60.4
	C80.8,59.2,79.8,58.2,78.5,58.2L78.5,58.2z M38.2,58.4h28c0.5,0,0.9-0.4,0.9-0.9l0-3.8H52.6c-1.6,0-2.9-1.1-3.2-2.6h-5.5
	c-0.6,0-1.2-0.5-1.2-1.2c0-0.6,0.5-1.2,1.2-1.2h5.4v-4.5h-5.4c-0.6,0-1.2-0.5-1.2-1.2s0.5-1.2,1.2-1.2h5.4v-4.5h-5.4
	c-0.6,0-1.2-0.5-1.2-1.2s0.5-1.2,1.2-1.2h5.4v-4.5h-5.4c-0.6,0-1.2-0.5-1.2-1.2s0.5-1.2,1.2-1.2h5.4V17.2H38.2
	c-0.5,0-0.9,0.4-0.9,0.9v39.4C37.2,58,37.7,58.4,38.2,58.4L38.2,58.4z M74.3,11.6v5.6H80L74.3,11.6z M73.1,19.6
	c-0.6,0-1.2-0.5-1.2-1.2v-8.3H52.6c-0.5,0-0.9,0.4-0.9,0.9v39.4c0,0.5,0.4,0.9,0.9,0.9h28c0.5,0,0.9-0.4,0.9-0.9l0-30.9L73.1,19.6z
	 M74.9,44H58.4c-0.6,0-1.2-0.5-1.2-1.2s0.5-1.2,1.2-1.2h16.5c0.6,0,1.2,0.5,1.2,1.2C76,43.5,75.5,44,74.9,44z M74.9,37.2H58.4
	c-0.6,0-1.2-0.5-1.2-1.2s0.5-1.2,1.2-1.2h16.5c0.6,0,1.2,0.5,1.2,1.2C76,36.7,75.5,37.2,74.9,37.2z M74.9,30.4H58.4
	c-0.6,0-1.2-0.5-1.2-1.2s0.5-1.2,1.2-1.2h16.5c0.6,0,1.2,0.5,1.2,1.2C76,29.9,75.5,30.4,74.9,30.4z M74.9,23.5H58.4
	c-0.6,0-1.2-0.5-1.2-1.2s0.5-1.2,1.2-1.2h16.5c0.6,0,1.2,0.5,1.2,1.2C76,23,75.5,23.5,74.9,23.5z"/>
</svg>
