<svg xmlns="http://www.w3.org/2000/svg" xmlns:xlink="http://www.w3.org/1999/xlink" version="1.1" x="0px" y="0px" viewBox="0 0 100 125" enable-background="new 0 0 100 100" xml:space="preserve"><path d="M25.1,53.7c0,7.6,6.2,13.7,13.7,13.7s13.7-6.2,13.7-13.7c0-7.6-6.2-13.7-13.7-13.7S25.1,46.1,25.1,53.7z M40,45.4  c0,0.8,0,0.8,0.8,1c0.6,0.1,1.2,0.3,1.8,0.5c0.3,0.1,0.4,0.4,0.3,0.7c-0.1,0.5-0.3,1-0.4,1.5c-0.2,0.5-0.3,0.5-0.8,0.3  c-0.9-0.4-1.9-0.6-2.9-0.6c-0.3,0-0.5,0.1-0.8,0.2c-0.9,0.4-1,1.4-0.3,2c0.4,0.3,0.8,0.5,1.3,0.7c0.8,0.3,1.6,0.6,2.3,1  c2.4,1.3,3,4.3,1.3,6.3c-0.6,0.7-1.4,1.2-2.3,1.5c-0.4,0.1-0.6,0.3-0.6,0.7c0,0.4,0,0.8,0,1.2c0,0.4-0.2,0.6-0.5,0.6  c-0.4,0-0.9,0-1.3,0c-0.4,0-0.6-0.2-0.6-0.6c0-0.3,0-0.6,0-0.9c0-0.7,0-0.7-0.7-0.8c-0.8-0.1-1.6-0.3-2.3-0.7  c-0.6-0.3-0.6-0.4-0.5-1c0.1-0.5,0.2-0.9,0.4-1.4c0.2-0.5,0.3-0.6,0.8-0.3c0.8,0.4,1.7,0.7,2.6,0.8c0.6,0.1,1.2,0,1.7-0.2  c1-0.4,1.2-1.6,0.3-2.3c-0.3-0.2-0.6-0.4-1-0.6c-0.9-0.4-1.8-0.7-2.6-1.2c-1.4-0.8-2.2-1.9-2.1-3.6c0.1-1.9,1.2-3,2.9-3.7  c0.7-0.3,0.7-0.2,0.7-1c0-0.2,0-0.5,0-0.7c0-0.6,0.1-0.7,0.7-0.7c0.2,0,0.3,0,0.5,0C40,44.2,40,44.2,40,45.4z M18.8,50.5  c2.1,0,3.8,1.7,3.8,3.8c0,2.1-1.7,3.8-3.8,3.8c-2.1,0-3.8-1.7-3.8-3.8C15,52.2,16.7,50.5,18.8,50.5z M91.6,54.2v-5.3v-2V17.7  c0-1.6-1.3-2.9-2.9-2.9H31.8h-1.9h-5.3c0.4-3,3-5.4,6.2-5.4h59.9c3.4,0,6.2,2.8,6.2,6.2V48C96.9,51.2,94.6,53.8,91.6,54.2z   M79.5,76.5c0.5,0.6,0.4,1.5-0.1,2c-0.6,0.6-1.5,0.6-2.1,0.1l0,0L72,74.2c-0.1-0.1-0.2-0.1-0.3-0.2c-0.4-0.4-0.6-1-0.6-1.5  c0,0,0,0,0-0.1c0,0,0,0,0,0h0l0,0c0-0.1,0-0.1,0-0.2l0.6-9.3c0,0,0-0.1,0-0.1l0,0l0,0c0.1-0.8,0.7-1.3,1.5-1.3  c0.8,0,1.5,0.6,1.5,1.4l0,0l0.6,8.5c0,0.3,0.1,0.5,0.3,0.7L79.5,76.5C79.4,76.4,79.4,76.4,79.5,76.5L79.5,76.5L79.5,76.5z   M50.4,76.1h-41c-3.5,0-6.3-2.8-6.3-6.3V37.5c0-3.5,2.8-6.3,6.3-6.3h59.9c3.5,0,6.3,2.8,6.3,6.3v11.2c-0.7-0.1-1.3-0.1-2-0.1  c-1.1,0-2.3,0.1-3.4,0.2V44c-0.4,0.1-0.7,0.1-1.1,0.1c-3.5,0-6.4-2.8-6.4-6.4c0-0.4,0-0.8,0.1-1.2H16.1c0.1,0.5,0.2,1,0.2,1.5  c0,3.5-2.8,6.4-6.4,6.4c-0.5,0-1.1-0.1-1.6-0.2v19.5c0.5-0.1,1-0.2,1.6-0.2c3.5,0,6.4,2.8,6.4,6.4c0,0.3,0,0.5,0,0.8h33.8  c0,0.5,0,0.9,0,1.4C50,73.5,50.1,74.8,50.4,76.1z M58.8,50.5c1.1,0,2.2,0.5,2.9,1.3c-2.2,1.3-4.2,2.9-5.8,4.8  C55.3,56,55,55.2,55,54.4C55,52.2,56.7,50.5,58.8,50.5z M80.8,49.8V28.6c0-1.6-1.3-2.9-2.9-2.9H21h-1.9h-5.3c0.4-3,3-5.4,6.2-5.4  h59.9c3.4,0,6.2,2.8,6.2,6.2v25.8C84.5,51.3,82.7,50.5,80.8,49.8z M91.9,72.1c0-10.2-8.3-18.5-18.5-18.5C63.3,53.7,55,61.9,55,72.1  c0,10.2,8.3,18.5,18.5,18.5C83.6,90.6,91.9,82.3,91.9,72.1z M73.5,85.5c-7.4,0-13.4-6-13.4-13.4c0-7.4,6-13.4,13.4-13.4  c7.4,0,13.4,6,13.4,13.4C86.9,79.5,80.9,85.5,73.5,85.5z"/><text x="0" y="115" fill="#000000" font-size="5px" font-weight="bold" font-family="'Helvetica Neue', Helvetica, Arial-Unicode, Arial, Sans-serif">Created by Gregor Cresnar</text><text x="0" y="120" fill="#000000" font-size="5px" font-weight="bold" font-family="'Helvetica Neue', Helvetica, Arial-Unicode, Arial, Sans-serif">from the Noun Project</text></svg>