<svg xmlns="http://www.w3.org/2000/svg" data-name="Layer 1" viewBox="-5.0 -10.0 110.0 135.0" x="0px" y="0px"><defs><style>.cls-1{fill-rule:evenodd;}</style></defs><title>a</title><path class="cls-1" d="M55.13,29.45a7.61,7.61,0,1,0,0,10.76,7.63,7.63,0,0,0,0-10.76Zm-1.78,2.91a1.23,1.23,0,1,1-2.46,0,1.14,1.14,0,1,0-1.14,1.14,3.61,3.61,0,0,1,2.55,6.16,3.7,3.7,0,0,1-1.32.83v.64a1.23,1.23,0,1,1-2.46,0v-.64a3.59,3.59,0,0,1-2.37-3.38,1.23,1.23,0,1,1,2.46,0A1.14,1.14,0,1,0,49.75,36a3.6,3.6,0,0,1-1.23-7v-.45a1.23,1.23,0,1,1,2.46,0V29A3.59,3.59,0,0,1,53.35,32.36Z"/><path class="cls-1" d="M24.74,20.56V49.1h50V20.56Zm4.87,19.21A5.55,5.55,0,0,1,33.8,44h4.94a1.23,1.23,0,0,1,0,2.46h-6a1.23,1.23,0,0,1-1.23-1.23,3.09,3.09,0,0,0-3.09-3.1,1.24,1.24,0,0,1-1.24-1.23V28.8a1.24,1.24,0,0,1,1.24-1.23,3.09,3.09,0,0,0,3.09-3.1,1.23,1.23,0,0,1,1.23-1.23h5.15a1.24,1.24,0,0,1,0,2.47H33.8a5.57,5.57,0,0,1-4.19,4.19v9.87ZM65.76,44A5.55,5.55,0,0,1,70,39.77V29.9a5.57,5.57,0,0,1-4.19-4.19H61.64a1.24,1.24,0,0,1,0-2.47h5.22a1.23,1.23,0,0,1,1.23,1.23,3.09,3.09,0,0,0,3.09,3.1,1.23,1.23,0,0,1,1.24,1.23V40.86a1.23,1.23,0,0,1-1.24,1.23,3.09,3.09,0,0,0-3.09,3.1,1.23,1.23,0,0,1-1.23,1.23H60.75a1.23,1.23,0,1,1,0-2.46Zm-16-19.2A10.07,10.07,0,1,1,39.68,34.83,10.07,10.07,0,0,1,49.75,24.76Z"/><path class="cls-1" d="M70.85,83.81H29.15A1.14,1.14,0,0,0,28,84.94v4.87H72V84.94A1.14,1.14,0,0,0,70.85,83.81Z"/><path class="cls-1" d="M93.61,62.47H6.39V68H93.61V62.47Zm-83.18,3.9a1.23,1.23,0,1,1,0-2.46h2.4a1.23,1.23,0,0,1,0,2.46Zm6.67,0a1.23,1.23,0,1,1,0-2.46h2.39a1.23,1.23,0,1,1,0,2.46Zm6.67,0a1.23,1.23,0,1,1,0-2.46h2.39a1.23,1.23,0,0,1,0,2.46Z"/><path class="cls-1" d="M6.39,60H93.61V10.19H6.39V60Zm15.89-9.67v-31a1.23,1.23,0,0,1,1.23-1.23H76a1.23,1.23,0,0,1,1.23,1.23v31A1.23,1.23,0,0,1,76,51.57H23.51a1.23,1.23,0,0,1-1.23-1.23ZM84.45,28a1.24,1.24,0,0,1,2.47,0v7.89A1.23,1.23,0,0,1,89.06,37l-2.2,5.76a1.24,1.24,0,0,1-2.41-.39V28Zm-.86,14.42a1.24,1.24,0,1,1-2.47,0V34.48A1.23,1.23,0,0,1,79,33.32l2.21-5.75a1.23,1.23,0,0,1,2.4.38Z"/><rect x="45.95" y="70.46" width="8.1" height="10.89"/><text x="0.0" y="117.5" font-size="5.0" font-weight="bold" font-family="Arbeit Regular, Helvetica, Arial-Unicode, Arial, Sans-serif" fill="#000000">Created by Danurdara</text><text x="0.0" y="122.5" font-size="5.0" font-weight="bold" font-family="Arbeit Regular, Helvetica, Arial-Unicode, Arial, Sans-serif" fill="#000000">from Noun Project</text></svg>