<?xml version="1.0" encoding="utf-8"?>
<!-- Generator: Adobe Illustrator 26.1.0, SVG Export Plug-In . SVG Version: 6.00 Build 0)  -->
<svg version="1.1" id="Layer_1" xmlns="http://www.w3.org/2000/svg" xmlns:xlink="http://www.w3.org/1999/xlink" x="0px" y="0px"
	 viewBox="0 0 100 100" style="enable-background:new 0 0 100 100;" xml:space="preserve">
<style type="text/css">
	.st0{fill:url(#SVGID_1_);}
	.st1{fill:url(#SVGID_00000119108550912484328640000005778564760439147698_);}
	.st2{fill:url(#SVGID_00000174581083045428309920000015312021117892799921_);}
	.st3{fill:url(#SVGID_00000041259151431723202360000010690805623666276994_);}
	.st4{fill:url(#SVGID_00000174565339679501998630000013608392443413019273_);}
	.st5{fill:url(#SVGID_00000127041411473997304040000013800798876216473751_);}
	.st6{fill:url(#SVGID_00000031168767242029112390000008297999183004205206_);}
</style>
<g>
	<linearGradient id="SVGID_1_" gradientUnits="userSpaceOnUse" x1="5" y1="82.9722" x2="95" y2="82.9722">
		<stop  offset="0" style="stop-color:#412E64"/>
		<stop  offset="0.29" style="stop-color:#5B489D"/>
		<stop  offset="0.73" style="stop-color:#CF6FAC"/>
	</linearGradient>
	<path class="st0" d="M87,70.5H13c-4.4,0-8,3.6-8,8v9c0,4.4,3.6,8,8,8h74c4.4,0,8-3.6,8-8v-9C95,74.1,91.4,70.5,87,70.5z M58.9,78.9
		l-10,10c-0.8,0.8-2,0.8-2.8,0l-5-5c-0.7-0.8-0.6-2.1,0.2-2.8c0.7-0.6,1.9-0.6,2.6,0l3.6,3.6l8.6-8.6c0.8-0.7,2.1-0.6,2.8,0.2
		C59.6,77,59.6,78.1,58.9,78.9z"/>
	
		<linearGradient id="SVGID_00000075123111661217521660000005528516874006992058_" gradientUnits="userSpaceOnUse" x1="30" y1="15.4722" x2="95" y2="15.4722">
		<stop  offset="0" style="stop-color:#412E64"/>
		<stop  offset="0.29" style="stop-color:#5B489D"/>
		<stop  offset="0.73" style="stop-color:#CF6FAC"/>
	</linearGradient>
	<path style="fill:url(#SVGID_00000075123111661217521660000005528516874006992058_);" d="M34,5.5h57c2.2,0,4,1.8,4,4v12
		c0,2.2-1.8,4-4,4H34c-2.2,0-4-1.8-4-4v-12C30,7.3,31.8,5.5,34,5.5z"/>
	
		<linearGradient id="SVGID_00000126287310646737882230000018285319603414015670_" gradientUnits="userSpaceOnUse" x1="30" y1="45.4722" x2="95" y2="45.4722">
		<stop  offset="0" style="stop-color:#412E64"/>
		<stop  offset="0.29" style="stop-color:#5B489D"/>
		<stop  offset="0.73" style="stop-color:#CF6FAC"/>
	</linearGradient>
	<path style="fill:url(#SVGID_00000126287310646737882230000018285319603414015670_);" d="M91,35.5H34c-2.2,0-4,1.8-4,4v12
		c0,2.2,1.8,4,4,4h57c2.2,0,4-1.8,4-4v-12C95,37.3,93.2,35.5,91,35.5z M43.4,46.4c0.7,0.7,0.7,1.8,0,2.5s-1.8,0.7-2.5,0l0,0L40,48
		l-0.9,0.9c-0.7,0.7-1.8,0.7-2.5,0s-0.7-1.8,0-2.5l0,0l0.9-0.9l-0.9-0.9c-0.7-0.7-0.7-1.8,0-2.5s1.8-0.7,2.5,0l0,0L40,43l0.9-0.9
		c0.7-0.7,1.8-0.7,2.5,0s0.7,1.8,0,2.5l0,0l-0.9,0.9L43.4,46.4z M58.4,46.4c0.7,0.7,0.7,1.8,0,2.5s-1.8,0.7-2.5,0l0,0L55,48
		l-0.9,0.9c-0.7,0.7-1.8,0.7-2.5,0s-0.7-1.8,0-2.5l0,0l0.9-0.9l-0.9-0.9c-0.7-0.7-0.7-1.8,0-2.5s1.8-0.7,2.5,0l0,0L55,43l0.9-0.9
		c0.7-0.7,1.8-0.7,2.5,0s0.7,1.8,0,2.5l0,0l-0.9,0.9L58.4,46.4z M73.4,46.4c0.7,0.7,0.7,1.8,0,2.5c-0.7,0.7-1.8,0.7-2.5,0l0,0L70,48
		l-0.9,0.9c-0.7,0.7-1.8,0.7-2.5,0c-0.7-0.7-0.7-1.8,0-2.5l0.9-0.9l-0.9-0.9c-0.7-0.7-0.7-1.8,0-2.5c0.7-0.7,1.8-0.7,2.5,0L70,43
		l0.9-0.9c0.7-0.7,1.8-0.7,2.5,0c0.7,0.7,0.7,1.8,0,2.5l-0.9,0.9L73.4,46.4z M88.4,46.4c0.7,0.7,0.7,1.8,0,2.5
		c-0.7,0.7-1.8,0.7-2.5,0l0,0L85,48l-0.9,0.9c-0.7,0.7-1.8,0.7-2.5,0c-0.7-0.7-0.7-1.8,0-2.5l0,0l0.9-0.9l-0.9-0.9
		c-0.7-0.7-0.7-1.8,0-2.5c0.7-0.7,1.8-0.7,2.5,0L85,43l0.9-0.9c0.7-0.7,1.8-0.7,2.5,0c0.7,0.7,0.7,1.8,0,2.5l-0.9,0.9L88.4,46.4z"/>
	
		<linearGradient id="SVGID_00000101795467543285039310000008437558233446889377_" gradientUnits="userSpaceOnUse" x1="3" y1="20.4722" x2="22" y2="20.4722">
		<stop  offset="0" style="stop-color:#412E64"/>
		<stop  offset="0.29" style="stop-color:#5B489D"/>
		<stop  offset="0.73" style="stop-color:#CF6FAC"/>
	</linearGradient>
	<path style="fill:url(#SVGID_00000101795467543285039310000008437558233446889377_);" d="M20,27.5c-1.1,0-2-0.9-2-2V23
		c0-3-2.5-5.5-5.5-5.5S7,19.9,7,23v2.5c0,1.1-0.9,2-2,2s-2-0.9-2-2V23c0-5.2,4.3-9.5,9.5-9.5S22,17.7,22,23v2.5
		C22,26.6,21.1,27.5,20,27.5z"/>
	
		<linearGradient id="SVGID_00000113352408852541368380000013821443258188803226_" gradientUnits="userSpaceOnUse" x1="7.5" y1="10.4722" x2="17.5" y2="10.4722">
		<stop  offset="0" style="stop-color:#412E64"/>
		<stop  offset="0.29" style="stop-color:#5B489D"/>
		<stop  offset="0.73" style="stop-color:#CF6FAC"/>
	</linearGradient>
	<circle style="fill:url(#SVGID_00000113352408852541368380000013821443258188803226_);" cx="12.5" cy="10.5" r="5"/>
	
		<linearGradient id="SVGID_00000023993305947241941580000017559746601974863295_" gradientUnits="userSpaceOnUse" x1="5" y1="50.4722" x2="20" y2="50.4722">
		<stop  offset="0" style="stop-color:#412E64"/>
		<stop  offset="0.29" style="stop-color:#5B489D"/>
		<stop  offset="0.73" style="stop-color:#CF6FAC"/>
	</linearGradient>
	<path style="fill:url(#SVGID_00000023993305947241941580000017559746601974863295_);" d="M7,45.5h11c1.1,0,2,0.9,2,2v6
		c0,1.1-0.9,2-2,2H7c-1.1,0-2-0.9-2-2v-6C5,46.4,5.9,45.5,7,45.5z"/>
	
		<linearGradient id="SVGID_00000034054121528445817420000014410312366942175423_" gradientUnits="userSpaceOnUse" x1="5.5" y1="40.4722" x2="19.5" y2="40.4722">
		<stop  offset="0" style="stop-color:#412E64"/>
		<stop  offset="0.29" style="stop-color:#5B489D"/>
		<stop  offset="0.73" style="stop-color:#CF6FAC"/>
	</linearGradient>
	<path style="fill:url(#SVGID_00000034054121528445817420000014410312366942175423_);" d="M17.5,47.5c-1.1,0-2-0.9-2-2v-5
		c0-1.7-1.3-3-3-3s-3,1.3-3,3v5c0,1.1-0.9,2-2,2s-2-0.9-2-2v-5c0-3.9,3.1-7,7-7s7,3.1,7,7v5C19.5,46.6,18.6,47.5,17.5,47.5z"/>
</g>
</svg>
