<svg xmlns="http://www.w3.org/2000/svg" version="1.1" viewBox="-5.0 -10.0 110.0 135.0">
 <path d="m42.266 66.094h-24.953c-0.86328 0-1.5625-0.69922-1.5625-1.5625s0.69922-1.5625 1.5625-1.5625h24.312c-0.10547-0.79297-0.16406-1.5898-0.17188-2.3906 0.007813-2.3945 0.45703-4.7695 1.3281-7h-25.469c-0.86328 0-1.5625-0.69922-1.5625-1.5625s0.69922-1.5625 1.5625-1.5625h27.016c3.168-5.1875 8.5664-8.6055 14.609-9.25v-31.469h-30.688l-18.875 18.859v49.5h43.047c-4.9102-2.4102-8.5938-6.7578-10.156-12zm-24.969-40.641h33.484c0.86328 0 1.5625 0.69922 1.5625 1.5625s-0.69922 1.5625-1.5625 1.5625h-33.484c-0.86328 0-1.5625-0.69922-1.5625-1.5625s0.69922-1.5625 1.5625-1.5625zm0 12.5h33.484c0.86328 0 1.5625 0.69922 1.5625 1.5625s-0.69922 1.5625-1.5625 1.5625h-33.484c-0.86328 0-1.5625-0.69922-1.5625-1.5625s0.69922-1.5625 1.5625-1.5625z"/>
 <path d="m90.695 86.898-14.902-14.898-0.55078 0.65625c-0.67578 0.80859-1.4258 1.5547-2.2344 2.2305l-0.64453 0.55078 14.895 14.895h0.003907c0.45312 0.45703 1.0742 0.71094 1.7188 0.70703 0.64062 0.003907 1.2617-0.25 1.7227-0.69922l0.015625-0.015625h-0.003906c0.92578-0.95703 0.91406-2.4766-0.019532-3.4258z"/>
 <path d="m74.266 70.078c0.28906-0.39453 0.55859-0.80859 0.79688-1.2344l0.09375-0.15625c2.6211-4.6172 2.8281-10.223 0.5625-15.023-2.2695-4.8008-6.7305-8.1953-11.961-9.1055-5.2305-0.91016-10.578 0.78516-14.332 4.5391-3.7539 3.7539-5.4492 9.1016-4.5391 14.332 0.91016 5.2305 4.3047 9.6914 9.1055 11.961 4.8008 2.2656 10.406 2.0586 15.023-0.5625l0.15625-0.09375c0.4375-0.26562 0.84375-0.53125 1.25-0.8125 1.4648-1.082 2.7617-2.3789 3.8438-3.8438zm-5.6094-13.203-9.6562 9.6406c-0.28906 0.30078-0.6875 0.46875-1.1016 0.46875-0.41406 0-0.8125-0.16797-1.1016-0.46875l-3.5625-3.5469c-0.61328-0.61328-0.61328-1.6055 0-2.2188s1.6055-0.61328 2.2188 0l2.4531 2.4531 8.5469-8.5469c0.29297-0.29297 0.6875-0.45703 1.1016-0.45703 0.41406 0 0.80859 0.16406 1.1016 0.45703 0.60938 0.61328 0.60938 1.6055 0 2.2188z"/>
<text x="0.0" y="117.5" font-size="5.0" font-weight="bold" font-family="Arbeit Regular, Helvetica, Arial-Unicode, Arial, Sans-serif" fill="#000000">Created by Darwin Mulya</text><text x="0.0" y="122.5" font-size="5.0" font-weight="bold" font-family="Arbeit Regular, Helvetica, Arial-Unicode, Arial, Sans-serif" fill="#000000">from Noun Project</text></svg>