<?xml version="1.0" encoding="utf-8"?>
<!-- Generator: Adobe Illustrator 26.1.0, SVG Export Plug-In . SVG Version: 6.00 Build 0)  -->
<svg version="1.1" id="Layer_1" xmlns="http://www.w3.org/2000/svg" xmlns:xlink="http://www.w3.org/1999/xlink" x="0px" y="0px"
	 viewBox="0 0 110 105" style="enable-background:new 0 0 110 105;" xml:space="preserve">
<style type="text/css">
	.st0{fill:url(#SVGID_1_);}
</style>
<linearGradient id="SVGID_1_" gradientUnits="userSpaceOnUse" x1="13.418" y1="52.5" x2="96.582" y2="52.5">
	<stop  offset="0" style="stop-color:#412E64"/>
	<stop  offset="0.29" style="stop-color:#5B489D"/>
	<stop  offset="0.73" style="stop-color:#CF6FAC"/>
</linearGradient>
<path class="st0" d="M71.1,69.2H38.9c-6.8,0-12.2,5.5-12.2,12.2s5.5,12.2,12.2,12.2h32.1c6.8,0,12.2-5.5,12.2-12.2
	S77.8,69.2,71.1,69.2z M62.5,77.7L52,86.2c-0.2,0.2-0.4,0.2-0.7,0.2c-0.3,0-0.5-0.1-0.7-0.3L47.4,83h0c-0.4-0.4-0.4-1.1,0-1.5
	c0.4-0.4,1.1-0.4,1.5,0l2.6,2.5l9.8-8c0.2-0.2,0.5-0.3,0.8-0.3c0.3,0,0.5,0.2,0.7,0.4c0.2,0.2,0.3,0.5,0.2,0.8
	C62.9,77.2,62.8,77.5,62.5,77.7L62.5,77.7z M25.7,35.8h58.7c6.8,0,12.2-5.5,12.2-12.2s-5.5-12.2-12.2-12.2H25.7
	c-6.8,0-12.2,5.5-12.2,12.2S18.9,35.8,25.7,35.8z M48.1,20.4h9.4v0c0.6,0,1,0.5,1,1c0,0.6-0.5,1-1,1h-9.4c-0.6,0-1-0.5-1-1
	C47.1,20.9,47.5,20.4,48.1,20.4L48.1,20.4z M48.1,24.7l32.8,0c0.6,0,1,0.5,1,1c0,0.6-0.5,1-1,1H48.1c-0.6,0-1-0.5-1-1
	C47.1,25.2,47.5,24.7,48.1,24.7L48.1,24.7z M29.9,23.2c-0.9-1.1-1.1-2.6-0.4-3.9c0.6-1.3,1.9-2.1,3.3-2.1c1.4,0,2.7,0.8,3.3,2.1
	c0.6,1.3,0.4,2.8-0.4,3.9c2.1,1.1,3.4,3.2,3.4,5.6c0,0.3-0.1,0.5-0.3,0.7c-0.2,0.2-0.5,0.3-0.7,0.3H27.5c-0.6,0-1-0.5-1-1
	C26.4,26.5,27.8,24.3,29.9,23.2L29.9,23.2z M36.8,27.8h-8.2c0.4-1.9,2.1-3.3,4.1-3.3C34.7,24.5,36.4,25.9,36.8,27.8z M32.7,22.6
	L32.7,22.6c-0.6,0-1.2-0.4-1.4-1c-0.2-0.6-0.1-1.3,0.3-1.7c0.4-0.4,1.1-0.6,1.7-0.3c0.6,0.2,1,0.8,1,1.4
	C34.3,21.9,33.6,22.6,32.7,22.6L32.7,22.6z M32.2,50.4L27.4,47h10.7l-4.9,3.4C32.9,50.6,32.5,50.6,32.2,50.4L32.2,50.4z M40.4,47.9
	c0,0,0,0.1,0,0.1v6.8c0,0.3-0.1,0.5-0.3,0.7c-0.2,0.2-0.5,0.3-0.7,0.3H26.1c-0.6,0-1-0.5-1-1V48c0,0,0-0.1,0-0.1l5.9,4.2
	c1,0.7,2.4,0.7,3.4,0L40.4,47.9z M84.4,39.2H25.7c-6.8,0-12.2,5.5-12.2,12.2c0,6.8,5.5,12.2,12.2,12.2h58.7
	c6.8,0,12.2-5.5,12.2-12.2C96.6,44.7,91.1,39.2,84.4,39.2L84.4,39.2z M48.2,48.2h9.4c0.6,0,1,0.5,1,1c0,0.6-0.5,1-1,1h-9.5
	c-0.6,0-1-0.5-1-1C47.1,48.7,47.5,48.2,48.2,48.2L48.2,48.2z M42.5,54.8c0,1.7-1.4,3.1-3.1,3.1H26.1c-1.7,0-3.1-1.4-3.1-3.1V48
	c0-1.7,1.4-3.1,3.1-3.1h13.3c1.7,0,3.1,1.4,3.1,3.1V54.8z M80.9,54.6H48.1c-0.6,0-1-0.5-1-1c0-0.6,0.5-1,1-1h32.8c0.6,0,1,0.5,1,1
	C82,54.1,81.5,54.6,80.9,54.6z"/>
</svg>
