<?xml version="1.0" encoding="utf-8"?>
<!-- Generator: Adobe Illustrator 26.1.0, SVG Export Plug-In . SVG Version: 6.00 Build 0)  -->
<svg version="1.1" id="Layer_1" xmlns="http://www.w3.org/2000/svg" xmlns:xlink="http://www.w3.org/1999/xlink" x="0px" y="0px"
	 viewBox="0 0 800 400" style="enable-background:new 0 0 800 400;" xml:space="preserve">
<style type="text/css">
	.st0{fill:url(#SVGID_1_);}
	.st1{fill:#FFFFFF;}
	.st2{font-family:'ArialMT';}
	.st3{font-size:14px;}
	.st4{fill:url(#SVGID_00000004547743425706792580000005234446770617798306_);}
	.st5{fill:url(#SVGID_00000174587429615920124490000012610622065324305064_);}
	.st6{fill:url(#SVGID_00000020374150526318538820000008055934667907234716_);}
	.st7{fill:url(#SVGID_00000147217938210235865640000006311684575136695965_);}
	.st8{stroke:#D4C4FF;stroke-width:2;stroke-dasharray:4;}
	.st9{fill:#8A2BE2;}
	.st10{font-family:'Arial-BoldMT';}
	.st11{font-size:38.7829px;}
	.st12{fill:#666666;}
	.st13{font-size:22.1617px;}
</style>
<g>
	<g>
		<g>
			
				<linearGradient id="SVGID_1_" gradientUnits="userSpaceOnUse" x1="-138.01" y1="735.35" x2="-137.01" y2="734.35" gradientTransform="matrix(100 0 0 -60 13831 44291)">
				<stop  offset="0" style="stop-color:#9C6CFF"/>
				<stop  offset="1" style="stop-color:#8A2BE2"/>
			</linearGradient>
			<path class="st0" d="M42,170h76c6.6,0,12,5.4,12,12v36c0,6.6-5.4,12-12,12H42c-6.6,0-12-5.4-12-12v-36C30,175.4,35.4,170,42,170z
				"/>
			<text transform="matrix(1 0 0 1 65.2139 195)" class="st1 st2 st3">Data</text>
			<text transform="matrix(1 0 0 1 49.2622 215)" class="st1 st2 st3">Collection</text>
		</g>
		<g>
			
				<linearGradient id="SVGID_00000018209729141387692400000002890324320402731145_" gradientUnits="userSpaceOnUse" x1="-138.01" y1="735.35" x2="-137.01" y2="734.35" gradientTransform="matrix(100 0 0 -60 13991 44291)">
				<stop  offset="0" style="stop-color:#9C6CFF"/>
				<stop  offset="1" style="stop-color:#8A2BE2"/>
			</linearGradient>
			<path style="fill:url(#SVGID_00000018209729141387692400000002890324320402731145_);" d="M202,170h76c6.6,0,12,5.4,12,12v36
				c0,6.6-5.4,12-12,12h-76c-6.6,0-12-5.4-12-12v-36C190,175.4,195.4,170,202,170z"/>
			<text transform="matrix(1 0 0 1 222.4932 195)" class="st1 st2 st3">Tax &amp;</text>
			<text transform="matrix(1 0 0 1 201.8691 215)" class="st1 st2 st3">Calculations</text>
		</g>
		<g>
			
				<linearGradient id="SVGID_00000117634557306479064570000018128133080223980946_" gradientUnits="userSpaceOnUse" x1="-138.01" y1="735.35" x2="-137.01" y2="734.35" gradientTransform="matrix(100 0 0 -60 14151 44291)">
				<stop  offset="0" style="stop-color:#9C6CFF"/>
				<stop  offset="1" style="stop-color:#8A2BE2"/>
			</linearGradient>
			<path style="fill:url(#SVGID_00000117634557306479064570000018128133080223980946_);" d="M362,170h76c6.6,0,12,5.4,12,12v36
				c0,6.6-5.4,12-12,12h-76c-6.6,0-12-5.4-12-12v-36C350,175.4,355.4,170,362,170z"/>
			<text transform="matrix(1 0 0 1 370.4346 195)" class="st1 st2 st3">Review &amp;</text>
			<text transform="matrix(1 0 0 1 372.3726 215)" class="st1 st2 st3">Approval</text>
		</g>
		<g>
			
				<linearGradient id="SVGID_00000075877827382491271220000010290305730990120594_" gradientUnits="userSpaceOnUse" x1="-138.01" y1="735.35" x2="-137.01" y2="734.35" gradientTransform="matrix(100 0 0 -60 14311 44291)">
				<stop  offset="0" style="stop-color:#9C6CFF"/>
				<stop  offset="1" style="stop-color:#8A2BE2"/>
			</linearGradient>
			<path style="fill:url(#SVGID_00000075877827382491271220000010290305730990120594_);" d="M522,170h76c6.6,0,12,5.4,12,12v36
				c0,6.6-5.4,12-12,12h-76c-6.6,0-12-5.4-12-12v-36C510,175.4,515.4,170,522,170z"/>
			<text transform="matrix(1 0 0 1 532.376 195)" class="st1 st2 st3">Payment</text>
			<text transform="matrix(1 0 0 1 525.3726 215)" class="st1 st2 st3">Processing</text>
		</g>
		<g>
			
				<linearGradient id="SVGID_00000163047062898282995410000011914490517705209778_" gradientUnits="userSpaceOnUse" x1="-138.01" y1="735.35" x2="-137.01" y2="734.35" gradientTransform="matrix(100 0 0 -60 14471 44291)">
				<stop  offset="0" style="stop-color:#9C6CFF"/>
				<stop  offset="1" style="stop-color:#8A2BE2"/>
			</linearGradient>
			<path style="fill:url(#SVGID_00000163047062898282995410000011914490517705209778_);" d="M682,170h76c6.6,0,12,5.4,12,12v36
				c0,6.6-5.4,12-12,12h-76c-6.6,0-12-5.4-12-12v-36C670,175.4,675.4,170,682,170z"/>
			<text transform="matrix(1 0 0 1 701.7207 195)" class="st1 st2 st3">Direct</text>
			<text transform="matrix(1 0 0 1 696.2656 215)" class="st1 st2 st3">Deposit</text>
		</g>
		<path class="st8" d="M130,200h60"/>
		<path class="st8" d="M290,200h60"/>
		<path class="st8" d="M450,200h60"/>
		<path class="st8" d="M610,200h60"/>
	</g>
	<text transform="matrix(1 0 0 1 290.092 89.251)" class="st9 st10 st11">WageWorks</text>
	<text transform="matrix(1 0 0 1 260.8186 119.3018)" class="st12 st2 st13">Streamlined Payroll Process</text>
</g>
</svg>
