<?xml version="1.0" encoding="utf-8"?>
<!-- Generator: Adobe Illustrator 26.1.0, SVG Export Plug-In . SVG Version: 6.00 Build 0)  -->
<svg version="1.1" id="Layer_1" xmlns="http://www.w3.org/2000/svg" xmlns:xlink="http://www.w3.org/1999/xlink" x="0px" y="0px"
	 viewBox="0 0 93 72" style="enable-background:new 0 0 93 72;" xml:space="preserve">
<style type="text/css">
	.st0{fill:url(#SVGID_1_);}
</style>
<linearGradient id="SVGID_1_" gradientUnits="userSpaceOnUse" x1="-699.0256" y1="777.6393" x2="-611.8839" y2="777.6393" gradientTransform="matrix(1 0 0 -1 702.34 814.1267)">
	<stop  offset="0" style="stop-color:#412E64"/>
	<stop  offset="0.29" style="stop-color:#5B489D"/>
	<stop  offset="0.73" style="stop-color:#CF6FAC"/>
</linearGradient>
<path class="st0" d="M55.3,21.7L24.6,67.2c-0.4,0.5-1,0.8-1.6,0.8h0c-0.6,0-1.3-0.3-1.6-0.9L3.7,41.6c-0.5-0.8-0.4-1.8,0.2-2.5
	c0.4-0.4,0.9-0.6,1.4-0.6c0.4,0,0.7,0.1,1,0.3l15.9,9.8h0.1l29.9-29.4c0.4-0.4,0.9-0.6,1.4-0.6c0.5,0,0.9,0.2,1.3,0.5
	C55.8,19.7,55.9,20.8,55.3,21.7L55.3,21.7z M89.4,4.8c-0.4-0.3-0.8-0.4-1.3-0.4c-0.1,0-0.2,0-0.3,0c-0.6,0.1-1.2,0.4-1.6,0.9
	l-32,39.8c0,0-0.1,0.1-0.1,0.1c0,0,0,0-0.1,0l-6.4-3l-6.6,9l14.4,16.5c0.4,0.5,1.1,0.8,1.8,0.8c0.1,0,0.2,0,0.3,0
	c0.8-0.1,1.4-0.5,1.8-1.2L90.2,7.9C90.7,6.8,90.4,5.5,89.4,4.8z"/>
</svg>
