<?xml version="1.0" encoding="utf-8"?>
<!-- Generator: Adobe Illustrator 26.1.0, SVG Export Plug-In . SVG Version: 6.00 Build 0)  -->
<svg version="1.1" id="Layer_1" xmlns="http://www.w3.org/2000/svg" xmlns:xlink="http://www.w3.org/1999/xlink" x="0px" y="0px"
	 viewBox="0 0 235 44" style="enable-background:new 0 0 235 44;" xml:space="preserve">
<style type="text/css">
	.st0{fill-rule:evenodd;clip-rule:evenodd;fill:#93C840;}
	.st1{fill-rule:evenodd;clip-rule:evenodd;fill:#0E2366;}
	.st2{fill:#0E2366;}
	.st3{fill:#93C840;}
</style>
<g>
	<path class="st0" d="M32,10V0H10.5C4.6,0,0,4.3,0,10H32z M10,12H0v21.5C0,39.4,4.3,44,10,44V12z"/>
	<path class="st1" d="M12,33v10h21.5C39.4,43,44,38.7,44,33H12z M34,32h10V10.5C44,4.6,39.7,0,34,0V32z"/>
	<path class="st2" d="M75.7,4.6H65.6c-0.6,0-1.2,0.1-1.7,0.5c-0.4,0.4-0.6,0.9-0.5,1.5V11h10.8v4.2H63.3V26H57V5.4
		c-0.1-1.5,0.5-2.9,1.7-3.9c1.3-1,2.9-1.5,4.6-1.5c4.3-0.1,8.5,0.1,12.7,0.4L75.7,4.6z M78.7,0h2.6c0.5-0.1,0.9,0.1,1.2,0.4
		C82.9,0.8,83,1.2,83,1.7v2.1C83,4.2,82.9,4.7,82.6,5c-0.3,0.3-0.8,0.5-1.2,0.4h-2.6c-0.5,0.1-0.9-0.1-1.3-0.4
		c-0.3-0.3-0.5-0.8-0.4-1.2V1.7c-0.1-0.5,0.1-0.9,0.4-1.2C77.8,0.1,78.2-0.1,78.7,0z M82.9,27h-5.7V8.3h5.7V27z M97.4,13.3
		c-2-0.1-3.9,0.3-5.7,1V27H86V8.5h4.4l0.5,2.5c2.6-2.2,4.6-3.3,7.1-2.9L97.4,13.3z M108.6,19.5l-4.8-1.3c-1.4-0.3-2.7-1-3.7-2.1
		c-0.7-1.1-1.1-2.4-1-3.7c0-2,0.6-3.4,1.9-4.2c1.2-0.8,3.4-1.2,6.4-1.2c3,0,6,0.2,9,0.7l-0.4,3.7c-3.3-0.1-5.8-0.1-7.5-0.1h-1.9
		c-0.4,0-0.7,0.1-1.1,0.1c-0.4,0.1-0.6,0.2-0.6,0.4c-0.1,0.2-0.1,0.5-0.1,0.7v0.3c0,0.1,0,0.2,0.1,0.3l0.1,0.2
		c0.1,0.1,0.1,0.1,0.2,0.2c0.1,0.1,0.2,0.1,0.3,0.1l0.4,0.1l0.4,0.1l0.5,0.1l0.6,0.1l5,1.4c1.4,0.3,2.7,1,3.7,2
		c0.8,1,1.2,2.3,1.1,3.6c0,2.3-0.7,3.8-2,4.6c-1.3,0.8-3.6,1.2-6.9,1.2c-2.9,0-5.8-0.2-8.7-0.7l0.4-3.7c0.9,0.1,3.2,0.1,6.7,0.1
		c1.3,0.1,2.6,0,4-0.2c0.6-0.1,0.9-0.6,0.9-1.2v-0.3c0-0.1-0.1-0.2-0.1-0.3c0-0.1-0.1-0.1-0.2-0.2c-0.1-0.1-0.2-0.1-0.3-0.2
		l-0.3-0.2c-0.1-0.1-0.2-0.1-0.4-0.2l-0.4-0.1l-0.6-0.1C109,19.6,108.8,19.6,108.6,19.5 M118.1,8.4V3h5.6v5.6h5.3v3.9h-5.3v8.8
		c-0.1,0.5,0.1,1.1,0.5,1.5c0.5,0.3,1,0.5,1.6,0.4h2.4l0.6,4c-1.7,0.6-3.5,0.8-5.3,0.8c-1.5,0.1-2.9-0.4-4-1.5c-1-1.1-1.5-2.6-1.4-4
		L118.1,8.4L118.1,8.4z M151.5,23.3l0.5,3.8c-2.5,0.7-5.2,1-7.8,0.9c-3.8,0-6.4-0.9-7.9-2.7c-1.5-1.8-2.3-4.9-2.3-9.3
		c0-4.4,0.8-7.5,2.3-9.3c1.5-1.8,4.2-2.7,7.9-2.7c2.5,0,4.9,0.3,7.3,0.8L151,8.6c-1.9-0.1-4.2-0.2-6.8-0.2c-1.8,0-3,0.5-3.6,1.6
		c-0.6,1.1-1,3.1-1,6c0,2.9,0.3,4.9,1,6c0.6,1.1,1.9,1.6,3.6,1.6C146.7,23.7,149.1,23.6,151.5,23.3 M154.3,14.3l-0.5-3.5
		c2.8-0.5,5.7-0.8,8.6-0.8c2.2,0,3.9,0.5,4.9,1.4c1.1,0.9,1.6,2.6,1.6,4.9v11.3h-3.9l-0.5-2.6c-1.5,1.9-3.8,3-6.2,3
		c-1.4,0.1-2.8-0.4-3.9-1.3c-1-0.9-1.6-2.3-1.5-3.6v-1.7c-0.1-1.2,0.4-2.4,1.3-3.2c1.1-0.8,2.4-1.2,3.7-1.1h5.9v-0.8
		c0.1-0.6-0.2-1.3-0.6-1.8c-0.6-0.4-1.4-0.5-2.1-0.5C159.4,14,157.1,14.1,154.3,14.3 M157.9,21.7v0.7c0,1.2,0.7,1.8,2,1.8
		c1.5-0.1,3-0.7,4.1-1.7v-2.4h-4.5c-0.4-0.1-0.9,0.1-1.2,0.4C158,20.9,157.9,21.3,157.9,21.7 M175.1,10.4l0.4,2.4
		c0.8-0.9,1.8-1.6,2.9-2.1c1.2-0.5,2.5-0.8,3.8-0.8c3.9,0,5.8,3,5.8,9c0,3.2-0.5,5.5-1.6,6.7c-1,1.3-2.7,1.9-4.9,1.9
		c-2,0.1-4-0.5-5.6-1.6c0.1,1.2,0.1,2.4,0.1,3.6V34h-5V10.4H175.1z M176,15.5v7.7c1.2,0.4,2.5,0.6,3.8,0.7c0.9,0.1,1.8-0.3,2.3-1
		c0.4-0.6,0.6-2,0.6-4c0-2-0.2-3.3-0.6-4c-0.4-0.7-1.2-1.1-2.1-1C178.7,14.1,177.2,14.6,176,15.5L176,15.5L176,15.5z M191.4,3h2.2
		c0.4-0.1,0.8,0.1,1.1,0.4c0.3,0.3,0.4,0.7,0.3,1.1v1.8c0.1,0.4-0.1,0.8-0.4,1.1c-0.3,0.3-0.7,0.4-1.1,0.4h-2.2
		c-0.4,0.1-0.8-0.1-1.1-0.4c-0.3-0.3-0.4-0.7-0.4-1.1V4.5c-0.1-0.4,0.1-0.8,0.3-1.1C190.6,3.1,191,3,191.4,3z M194.9,27h-4.8V10.2
		h4.8V27z M197,9.7V5h5.2v4.7h4.8v3.4h-4.8v8c-0.1,0.5,0.1,1,0.4,1.3c0.4,0.3,1,0.4,1.5,0.4h2.2l0.6,3.5c-1.6,0.5-3.2,0.7-4.9,0.7
		c-1.3,0.1-2.7-0.4-3.7-1.3c-0.9-1-1.4-2.2-1.3-3.6L197,9.7L197,9.7z M209.3,14.3l-0.5-3.5c2.8-0.5,5.7-0.8,8.6-0.8
		c2.2,0,3.9,0.5,4.9,1.4c1.1,0.9,1.6,2.6,1.6,4.9v11.3h-4l-0.5-2.6c-1.5,1.9-3.7,3-6.1,3c-1.4,0.1-2.8-0.4-3.9-1.3
		c-1-0.9-1.6-2.3-1.5-3.6v-1.7c-0.1-1.2,0.4-2.4,1.3-3.2c1.1-0.8,2.4-1.2,3.7-1.1h5.9v-0.8c0.1-0.6-0.1-1.3-0.6-1.8
		c-0.6-0.4-1.4-0.5-2.1-0.5C214.4,14,212.1,14.1,209.3,14.3 M212.9,21.7v0.7c0,1.2,0.6,1.8,2,1.8c1.5-0.1,3-0.7,4.1-1.7v-2.4h-4.5
		C213.5,20.1,212.9,20.7,212.9,21.7 M231.1,4v18.1c0,1.1,0.6,1.7,1.9,1.7h1.4l0.6,3.5c-1.3,0.5-2.7,0.8-4.1,0.7
		c-1.3,0.1-2.6-0.4-3.6-1.2c-0.9-0.9-1.4-2.1-1.3-3.4V4H231.1L231.1,4z"/>
	<path class="st3" d="M63.6,38.3L63.6,38.3c0.7,0.1,1.4,0.4,1.8,0.9c0.4,0.6,0.6,1.3,0.5,2c0.1,0.8-0.2,1.7-0.9,2.2
		c-0.9,0.5-2,0.7-3,0.6c-2.2,0-3.9,0-5.1-0.1V33.1c1-0.1,2.5-0.1,4.5-0.1c1.1-0.1,2.2,0.1,3.2,0.6c0.7,0.5,1,1.4,0.9,2.2
		c0,0.6-0.1,1.2-0.5,1.8C64.8,38,64.2,38.2,63.6,38.3L63.6,38.3L63.6,38.3z M60,37.4h1.5c0.4,0,0.7,0,1-0.2c0.2-0.3,0.3-0.6,0.3-1
		c0-0.3-0.1-0.7-0.3-0.9c-0.3-0.2-0.7-0.3-1.1-0.2H60L60,37.4L60,37.4z M60,42h1.6c0.4,0,0.8,0,1.1-0.3c0.2-0.3,0.3-0.7,0.3-1.1
		c0.1-0.4,0-0.8-0.3-1.1c-0.3-0.2-0.8-0.3-1.2-0.3H60L60,42L60,42z M77.2,41.4h-3.4L73.1,44H70l3.1-10.2c0-0.2,0.2-0.4,0.4-0.6
		c0.2-0.1,0.4-0.2,0.7-0.2h2.8c0.2,0,0.5,0.1,0.7,0.2c0.2,0.1,0.3,0.3,0.4,0.6L81,44h-3.1C77.9,44,77.2,41.4,77.2,41.4z M76.7,39.2
		l-0.7-2.8c-0.1-0.4-0.2-0.8-0.2-1.2h-0.4c-0.1,0.4-0.2,0.8-0.2,1.2l-0.7,2.8L76.7,39.2L76.7,39.2z M94,33v9.9
		c0,0.3-0.1,0.6-0.3,0.8c-0.2,0.2-0.5,0.3-0.8,0.3h-1.5c-0.2,0-0.5-0.1-0.7-0.2c-0.2-0.2-0.4-0.4-0.5-0.7l-2.7-4.7
		c-0.3-0.6-0.6-1.2-0.7-1.8h-0.1c0.1,0.6,0.1,1.2,0.1,1.9V44H84v-9.9c0-0.3,0.1-0.6,0.3-0.8c0.2-0.2,0.5-0.3,0.8-0.3h1.4
		c0.2,0,0.5,0.1,0.7,0.2c0.2,0.2,0.4,0.4,0.5,0.7l2.5,4.5c0.3,0.6,0.6,1.2,0.8,1.8h0.1c-0.1-0.6-0.1-1.3-0.1-1.9V33H94L94,33z
		 M100.8,39.3H100c0.1,0.3,0.1,0.7,0.1,1V44H97V33h3.1v2.9c0,0.5,0,0.9-0.1,1.4h0.8l2.6-4.3h3.4l-2.8,4.3c-0.2,0.4-0.5,0.7-0.9,0.9
		c0.5,0.3,0.8,0.6,1.1,1.1L107,44h-3.5L100.8,39.3z"/>
</g>
</svg>
