<?xml version="1.0" encoding="utf-8"?>
<!-- Generator: Adobe Illustrator 26.1.0, SVG Export Plug-In . SVG Version: 6.00 Build 0)  -->
<svg version="1.1" id="Layer_1" xmlns="http://www.w3.org/2000/svg" xmlns:xlink="http://www.w3.org/1999/xlink" x="0px" y="0px"
	 viewBox="0 0 708.7 498.9" style="enable-background:new 0 0 708.7 498.9;" xml:space="preserve">
<style type="text/css">
	
		.st0{clip-path:url(#SVGID_00000121973646863833462020000016336375955930410385_);fill:url(#SVGID_00000146474582279396593710000010175530248500478889_);}
	
		.st1{clip-path:url(#SVGID_00000170981353030630485680000013143450151031372970_);fill:url(#SVGID_00000096759487409554747370000001266420710809720728_);}
	.st2{opacity:0.5;}
	.st3{clip-path:url(#SVGID_00000043451471413727239780000007560971565139322039_);}
	
		.st4{clip-path:url(#SVGID_00000058575096291868936600000000793953872080586162_);fill:url(#SVGID_00000091705518174866135940000006722551519784706228_);}
	
		.st5{clip-path:url(#SVGID_00000060719028167072412320000010923560292060011690_);fill:url(#SVGID_00000068657409326208746020000011168375485206891447_);}
	
		.st6{clip-path:url(#SVGID_00000029033367943211402500000013192838618171287685_);fill:url(#SVGID_00000010294636782967124770000013596292502036926851_);}
	
		.st7{clip-path:url(#SVGID_00000060722143774639931150000016220349282954600592_);fill:url(#SVGID_00000007421109115622669310000000842266082118844337_);}
	
		.st8{clip-path:url(#SVGID_00000012466474804877258480000015621052810191118495_);fill:url(#SVGID_00000037667748242829323840000001554953012299712931_);}
	
		.st9{clip-path:url(#SVGID_00000158751233405275740670000014081174616173014696_);fill:url(#SVGID_00000157289930597383388910000000233200432148098690_);}
	
		.st10{clip-path:url(#SVGID_00000067925135666684666760000005887446242368932499_);fill:url(#SVGID_00000160189500131163810870000015172367520890255031_);}
	
		.st11{clip-path:url(#SVGID_00000183937703885380636740000000995896371080105615_);fill:url(#SVGID_00000126312806721438945760000015355916501312775607_);}
	
		.st12{clip-path:url(#SVGID_00000087393156365723436690000009219137454255220396_);fill:url(#SVGID_00000102503576801543547690000007019930547186420104_);}
	
		.st13{clip-path:url(#SVGID_00000056404751105883440040000016282138048726297266_);fill:url(#SVGID_00000034075414033341394820000015724388759317465514_);}
	
		.st14{clip-path:url(#SVGID_00000053511387490361100960000016008995011130231168_);fill:url(#SVGID_00000147211533880187168730000006535153276874037122_);}
	
		.st15{clip-path:url(#SVGID_00000092438621410327500100000016726478239565027243_);fill:url(#SVGID_00000089541228366713991330000001791063303977799297_);}
	
		.st16{clip-path:url(#SVGID_00000029025019145841583850000012773364924893770137_);fill:url(#SVGID_00000142861730013775100370000016254595439633890951_);}
	.st17{fill:none;stroke:#FFFFFF;stroke-width:9.000000e-03;stroke-miterlimit:10;}
	.st18{fill:#233E99;}
</style>
<g>
	<defs>
		<path id="SVGID_1_" d="M37.1,147.3c-10.4,2.2-18,11.1-19.1,22.2c-2.3,24.7-5.8,69-3.7,88.6c5,46.4,37.4,82.8,88.8,99.7l4.6,1.5
			l4.9-1.6c37.9-12.1,81.1-44.5,88.5-99.2c2.4-17.9-0.4-54.2-3.5-87.4l-0.2-1.6c-1-11.1-8.7-20-19.2-22.2
			c-24.4-5.1-48.2-7.6-70.6-7.6C85.3,139.6,61.5,142.2,37.1,147.3"/>
	</defs>
	<clipPath id="SVGID_00000182527128431369458920000004562320716751103663_">
		<use xlink:href="#SVGID_1_"  style="overflow:visible;"/>
	</clipPath>
	
		<linearGradient id="SVGID_00000130639042861182537310000011373614130540397481_" gradientUnits="userSpaceOnUse" x1="-726.5552" y1="594.1903" x2="-723.7109" y2="594.1903" gradientTransform="matrix(55.1051 55.1051 55.1051 -55.1051 7312.5498 72940.0391)">
		<stop  offset="0" style="stop-color:#0066B2"/>
		<stop  offset="1.515150e-02" style="stop-color:#0066B2"/>
		<stop  offset="0.9394" style="stop-color:#152449"/>
		<stop  offset="1" style="stop-color:#152449"/>
	</linearGradient>
	
		<polygon style="clip-path:url(#SVGID_00000182527128431369458920000004562320716751103663_);fill:url(#SVGID_00000130639042861182537310000011373614130540397481_);" points="
		107.8,44 313.3,249.4 107.8,454.9 -97.6,249.4 	"/>
</g>
<g>
	<defs>
		<path id="SVGID_00000161628264120536265370000014275472314847614855_" d="M40.9,160.4c-4.3,0.9-7,4.6-7.4,9.1
			c-1.7,18.6-5.8,66.5-3.7,85.7c4.7,43.4,36.1,71.9,73.5,85.9c1.8,0.7,3.7,1.3,5.6,2c0.4-0.1,13-3.6,13-3.6
			c2.5-1.2,10.6-5.1,13.1-6.7c24-15.8,44.9-47.8,52.2-77.5c4.6-18.7-2-67.1-3.7-85.7c-0.4-4.4-3.1-8.2-7.4-9.1
			c-11.7-2.4-37.4-7.3-67.6-7.3C78.3,153.1,52.6,158,40.9,160.4"/>
	</defs>
	<clipPath id="SVGID_00000052082234839624917310000008402361025621836216_">
		<use xlink:href="#SVGID_00000161628264120536265370000014275472314847614855_"  style="overflow:visible;"/>
	</clipPath>
	
		<linearGradient id="SVGID_00000119832078449919584920000014496818078631717531_" gradientUnits="userSpaceOnUse" x1="-724.6047" y1="594.0801" x2="-721.7604" y2="594.0801" gradientTransform="matrix(50.848 42.6666 42.6666 -50.848 11522.1592 61301.0117)">
		<stop  offset="0" style="stop-color:#00BCEE"/>
		<stop  offset="1.277710e-02" style="stop-color:#00BCEE"/>
		<stop  offset="0.1131" style="stop-color:#00B8EB"/>
		<stop  offset="0.2197" style="stop-color:#02ABE2"/>
		<stop  offset="0.3287" style="stop-color:#0496D3"/>
		<stop  offset="0.4374" style="stop-color:#0779BE"/>
		<stop  offset="0.565" style="stop-color:#036DB6"/>
		<stop  offset="0.6204" style="stop-color:#0066B2"/>
		<stop  offset="0.8277" style="stop-color:#0C4076"/>
		<stop  offset="0.9949" style="stop-color:#152449"/>
		<stop  offset="1" style="stop-color:#152449"/>
	</linearGradient>
	
		<polygon style="clip-path:url(#SVGID_00000052082234839624917310000008402361025621836216_);fill:url(#SVGID_00000119832078449919584920000014496818078631717531_);" points="
		95.5,72.3 285.3,231.5 124,423.7 -65.8,264.5 	"/>
</g>
<g class="st2">
	<g>
		<defs>
			<rect id="SVGID_00000145771641238995590890000015587287822310742717_" x="11.8" y="149.1" width="178.6" height="209.7"/>
		</defs>
		<clipPath id="SVGID_00000172419046963376378000000017524145933458710969_">
			<use xlink:href="#SVGID_00000145771641238995590890000015587287822310742717_"  style="overflow:visible;"/>
		</clipPath>
		<g style="clip-path:url(#SVGID_00000172419046963376378000000017524145933458710969_);">
			<defs>
				<rect id="SVGID_00000010999179237581804630000007125985982073860016_" x="11.8" y="149" width="178.6" height="209.7"/>
			</defs>
			<clipPath id="SVGID_00000120534762568262997120000001178295431127256496_">
				<use xlink:href="#SVGID_00000010999179237581804630000007125985982073860016_"  style="overflow:visible;"/>
			</clipPath>
			<g transform="matrix(1 0 0 1 0 0)" style="clip-path:url(#SVGID_00000120534762568262997120000001178295431127256496_);">
				
					<image style="overflow:visible;" width="262" height="308" xlink:href="B253DAD0.png"  transform="matrix(0.6817 0 0 0.6808 11.8194 149.0493)">
				</image>
			</g>
		</g>
	</g>
</g>
<g>
	<defs>
		<path id="SVGID_00000160163648243473486400000007829615138964436621_" d="M170.8,254.5c-2.1,19.3-10.5,36.3-23.1,49l2.3-2.3
			c12.6-12.6,22.2-26.8,23.2-48.8L170.8,254.5z"/>
	</defs>
	<clipPath id="SVGID_00000109031031378422335600000016159281342814240910_">
		<use xlink:href="#SVGID_00000160163648243473486400000007829615138964436621_"  style="overflow:visible;"/>
	</clipPath>
	
		<linearGradient id="SVGID_00000022544280532707549290000005933545908738956161_" gradientUnits="userSpaceOnUse" x1="-648.5685" y1="561.0153" x2="-645.7242" y2="561.0153" gradientTransform="matrix(8.955 0 0 -8.955 5955.5991 5301.79)">
		<stop  offset="0" style="stop-color:#FFFFFF"/>
		<stop  offset="0.1197" style="stop-color:#F3F3F3"/>
		<stop  offset="0.4811" style="stop-color:#D4D4D4"/>
		<stop  offset="0.7874" style="stop-color:#C1C1C1"/>
		<stop  offset="1" style="stop-color:#BABABA"/>
	</linearGradient>
	
		<rect x="147.7" y="252.4" style="clip-path:url(#SVGID_00000109031031378422335600000016159281342814240910_);fill:url(#SVGID_00000022544280532707549290000005933545908738956161_);" width="25.5" height="51.1"/>
</g>
<g>
	<defs>
		<path id="SVGID_00000089566642996687661120000004733657360378258092_" d="M66.7,170.4l-2.3,2.3c11.9-1.6,26.5-3.1,42.3-3.1
			c25.6,0,47.9,3.7,60.5,6.1l2.4-2.4c0,0-25.7-6.3-60.6-6.3C95.8,167.1,81.5,168,66.7,170.4"/>
	</defs>
	<clipPath id="SVGID_00000170241982822559092690000001695053555538554520_">
		<use xlink:href="#SVGID_00000089566642996687661120000004733657360378258092_"  style="overflow:visible;"/>
	</clipPath>
	
		<linearGradient id="SVGID_00000088130420920248074260000005539093630530567595_" gradientUnits="userSpaceOnUse" x1="-715.0844" y1="584.5511" x2="-712.24" y2="584.5511" gradientTransform="matrix(36.9949 0 0 -36.9949 26518.8359 21796.8984)">
		<stop  offset="0" style="stop-color:#BABABA"/>
		<stop  offset="0.2126" style="stop-color:#C1C1C1"/>
		<stop  offset="0.5189" style="stop-color:#D4D4D4"/>
		<stop  offset="0.8803" style="stop-color:#F3F3F3"/>
		<stop  offset="1" style="stop-color:#FFFFFF"/>
	</linearGradient>
	
		<rect x="64.4" y="167.1" style="clip-path:url(#SVGID_00000170241982822559092690000001695053555538554520_);fill:url(#SVGID_00000088130420920248074260000005539093630530567595_);" width="105.2" height="8.7"/>
</g>
<g>
	<defs>
		<path id="SVGID_00000105426681217414294500000003770412184917754292_" d="M68.8,196.4l-2.3,2.3c6.9-3.9,15.3-5.9,23.8-5.9
			c1,0,2,0,3,0.1c15.1,0.8,25.5,10.9,43.6,11.8c1,0.1,1.9,0.1,2.9,0.1c13.1,0,22.3-4.7,29.3-8.5l2.3-2.3c-7,3.9-16.2,8.5-29.2,8.5
			c-0.9,0-1.9,0-2.9-0.1c-18.1-0.9-28.5-11-43.6-11.8c-1-0.1-2-0.1-3-0.1C84,190.5,75.7,192.5,68.8,196.4"/>
	</defs>
	<clipPath id="SVGID_00000146478432516481877790000014494435740433337987_">
		<use xlink:href="#SVGID_00000105426681217414294500000003770412184917754292_"  style="overflow:visible;"/>
	</clipPath>
	
		<linearGradient id="SVGID_00000010303270959250964080000004893425153954010242_" gradientUnits="userSpaceOnUse" x1="-714.9655" y1="584.069" x2="-712.1212" y2="584.069" gradientTransform="matrix(36.8387 0 0 -36.8387 26404.832 21713.9785)">
		<stop  offset="0" style="stop-color:#BABABA"/>
		<stop  offset="0.2126" style="stop-color:#C1C1C1"/>
		<stop  offset="0.5189" style="stop-color:#D4D4D4"/>
		<stop  offset="0.8803" style="stop-color:#F3F3F3"/>
		<stop  offset="1" style="stop-color:#FFFFFF"/>
	</linearGradient>
	
		<rect x="66.5" y="190.5" style="clip-path:url(#SVGID_00000146478432516481877790000014494435740433337987_);fill:url(#SVGID_00000010303270959250964080000004893425153954010242_);" width="104.8" height="14.3"/>
</g>
<g>
	<defs>
		<path id="SVGID_00000021805647180433608380000017369669985737518497_" d="M144,264.6c-13.8,0-22.4-5.5-29.6-7.8l-2.3,2.3
			c7.2,2.3,15.8,7.8,29.6,7.8c13.3,0,24.6-7.9,29-12l2.3-2.3C168.6,256.7,157.3,264.6,144,264.6"/>
	</defs>
	<clipPath id="SVGID_00000140009397304819080280000010407685878670091190_">
		<use xlink:href="#SVGID_00000021805647180433608380000017369669985737518497_"  style="overflow:visible;"/>
	</clipPath>
	
		<linearGradient id="SVGID_00000093871895509503349260000010791595283604192141_" gradientUnits="userSpaceOnUse" x1="-699.6022" y1="578.2073" x2="-696.7581" y2="578.2073" gradientTransform="matrix(21.4251 0 0 -21.4251 15101.1543 12647.8564)">
		<stop  offset="0" style="stop-color:#BABABA"/>
		<stop  offset="0.2126" style="stop-color:#C1C1C1"/>
		<stop  offset="0.5189" style="stop-color:#D4D4D4"/>
		<stop  offset="0.8803" style="stop-color:#F3F3F3"/>
		<stop  offset="1" style="stop-color:#FFFFFF"/>
	</linearGradient>
	
		<rect x="112.1" y="252.5" style="clip-path:url(#SVGID_00000140009397304819080280000010407685878670091190_);fill:url(#SVGID_00000093871895509503349260000010791595283604192141_);" width="60.9" height="14.3"/>
</g>
<g>
	<defs>
		<path id="SVGID_00000176746235124870910550000017848598845407992766_" d="M168.9,196.3c0.8,10.6,1.6,22.4,2,33l0.2,10.5l2.5-2.2
			c0,0,0-26.8-2.4-43.6L168.9,196.3z"/>
	</defs>
	<clipPath id="SVGID_00000166660956286014500630000008314910354305729169_">
		<use xlink:href="#SVGID_00000176746235124870910550000017848598845407992766_"  style="overflow:visible;"/>
	</clipPath>
	
		<linearGradient id="SVGID_00000047029266289013685390000005766832089985790127_" gradientUnits="userSpaceOnUse" x1="-257.9314" y1="457.7941" x2="-255.089" y2="457.7941" gradientTransform="matrix(1.6421 0 0 -1.6421 592.4836 968.5991)">
		<stop  offset="0" style="stop-color:#BABABA"/>
		<stop  offset="0.2126" style="stop-color:#C1C1C1"/>
		<stop  offset="0.5189" style="stop-color:#D4D4D4"/>
		<stop  offset="0.8803" style="stop-color:#F3F3F3"/>
		<stop  offset="1" style="stop-color:#FFFFFF"/>
	</linearGradient>
	
		<rect x="168.9" y="194" style="clip-path:url(#SVGID_00000166660956286014500630000008314910354305729169_);fill:url(#SVGID_00000047029266289013685390000005766832089985790127_);" width="4.7" height="45.8"/>
</g>
<g>
	<defs>
		<path id="SVGID_00000025413270334965555230000015109869799905649026_" d="M137.3,330.3l-2.3,2.3c8.7-5.1,16.8-11.2,23.8-18.2
			c0.8-0.8,1.5-1.5,2.3-2.3C154.1,319.1,146.1,325.2,137.3,330.3"/>
	</defs>
	<clipPath id="SVGID_00000051362065595457455660000017802084537236789912_">
		<use xlink:href="#SVGID_00000025413270334965555230000015109869799905649026_"  style="overflow:visible;"/>
	</clipPath>
	
		<linearGradient id="SVGID_00000151511487605082402600000018287544518172494991_" gradientUnits="userSpaceOnUse" x1="-651.608" y1="558.5907" x2="-648.764" y2="558.5907" gradientTransform="matrix(9.1843 0 0 -9.1843 6119.5781 5452.6514)">
		<stop  offset="0" style="stop-color:#BABABA"/>
		<stop  offset="3.313543e-03" style="stop-color:#BBBBBB"/>
		<stop  offset="0.1219" style="stop-color:#D9D9D9"/>
		<stop  offset="0.2389" style="stop-color:#EEEEEE"/>
		<stop  offset="0.3526" style="stop-color:#FBFBFB"/>
		<stop  offset="0.4592" style="stop-color:#FFFFFF"/>
		<stop  offset="1" style="stop-color:#FFFFFF"/>
	</linearGradient>
	
		<rect x="135" y="312.1" style="clip-path:url(#SVGID_00000051362065595457455660000017802084537236789912_);fill:url(#SVGID_00000151511487605082402600000018287544518172494991_);" width="26.1" height="20.6"/>
</g>
<g>
	<defs>
		<polygon id="SVGID_00000152229631951259724980000007074037813641112472_" points="92.5,249.1 135,332.7 137.3,330.3 94.8,246.8 		
			"/>
	</defs>
	<clipPath id="SVGID_00000094603479113008584780000009109961560832417439_">
		<use xlink:href="#SVGID_00000152229631951259724980000007074037813641112472_"  style="overflow:visible;"/>
	</clipPath>
	
		<linearGradient id="SVGID_00000087372840515668063910000001803092953036592527_" gradientUnits="userSpaceOnUse" x1="-687.8998" y1="572.8737" x2="-685.0556" y2="572.8737" gradientTransform="matrix(15.7593 0 0 -15.7593 10933.2705 9317.8096)">
		<stop  offset="0" style="stop-color:#BABABA"/>
		<stop  offset="0.2126" style="stop-color:#C1C1C1"/>
		<stop  offset="0.5189" style="stop-color:#D4D4D4"/>
		<stop  offset="0.8803" style="stop-color:#F3F3F3"/>
		<stop  offset="1" style="stop-color:#FFFFFF"/>
	</linearGradient>
	
		<rect x="92.5" y="246.8" style="clip-path:url(#SVGID_00000094603479113008584780000009109961560832417439_);fill:url(#SVGID_00000087372840515668063910000001803092953036592527_);" width="44.8" height="85.8"/>
</g>
<g>
	<defs>
		<polygon id="SVGID_00000134957409280327541620000001620146468282248601_" points="43.2,214.7 98.6,325.4 101.3,323.1 45.5,211.9 
					"/>
	</defs>
	<clipPath id="SVGID_00000100381095979329870640000012410110976666813592_">
		<use xlink:href="#SVGID_00000134957409280327541620000001620146468282248601_"  style="overflow:visible;"/>
	</clipPath>
	
		<linearGradient id="SVGID_00000145762710066298910560000000990046597313324203_" gradientUnits="userSpaceOnUse" x1="-700.1187" y1="577.3773" x2="-697.2745" y2="577.3773" gradientTransform="matrix(20.4445 0 0 -20.4445 14356.7783 12072.833)">
		<stop  offset="0" style="stop-color:#BABABA"/>
		<stop  offset="0.2126" style="stop-color:#C1C1C1"/>
		<stop  offset="0.5189" style="stop-color:#D4D4D4"/>
		<stop  offset="0.8803" style="stop-color:#F3F3F3"/>
		<stop  offset="1" style="stop-color:#FFFFFF"/>
	</linearGradient>
	
		<rect x="43.2" y="211.9" style="clip-path:url(#SVGID_00000100381095979329870640000012410110976666813592_);fill:url(#SVGID_00000145762710066298910560000000990046597313324203_);" width="58.1" height="113.5"/>
</g>
<g>
	<defs>
		<path id="SVGID_00000097465601549785401980000001428423254820720562_" d="M109,343l-2.3,2.3c5.2-1.7,10.3-3.7,15.3-5.9l2.3-2.3v0
			C119.8,338.4,111.8,341.4,109,343"/>
	</defs>
	<clipPath id="SVGID_00000054976520758772495390000001168646326344200075_">
		<use xlink:href="#SVGID_00000097465601549785401980000001428423254820720562_"  style="overflow:visible;"/>
	</clipPath>
	
		<linearGradient id="SVGID_00000134207353911386792120000017430541578831707801_" gradientUnits="userSpaceOnUse" x1="-614.0948" y1="541.4454" x2="-611.2509" y2="541.4454" gradientTransform="matrix(6.1678 0 0 -6.1678 3894.252 3680.6741)">
		<stop  offset="0" style="stop-color:#BABABA"/>
		<stop  offset="0.2126" style="stop-color:#C1C1C1"/>
		<stop  offset="0.5189" style="stop-color:#D4D4D4"/>
		<stop  offset="0.8803" style="stop-color:#F3F3F3"/>
		<stop  offset="1" style="stop-color:#FFFFFF"/>
	</linearGradient>
	
		<rect x="106.7" y="337.1" style="clip-path:url(#SVGID_00000054976520758772495390000001168646326344200075_);fill:url(#SVGID_00000134207353911386792120000017430541578831707801_);" width="17.5" height="8.2"/>
</g>
<g>
	<defs>
		<path id="SVGID_00000173850786030302184700000013228178176166174394_" d="M33.9,163.8c-1.7,1.7-2.8,4.1-3,6.8
			c-1.4,15.1-4.3,49.4-4.3,72.3c0,5.6,0.2,10.5,0.6,14.2c5,46,39.2,74.8,79.5,88.1l2.3-2.3c-40.3-13.3-74.6-42.1-79.5-88.1
			c0-0.2,0-0.3-0.1-0.5c-2-19.7,2.1-67.5,3.8-86.1c0.2-2.6,1.3-5,3-6.8C35.4,162.3,34.7,163.1,33.9,163.8"/>
	</defs>
	<clipPath id="SVGID_00000018931824427274888340000014143920085499013012_">
		<use xlink:href="#SVGID_00000173850786030302184700000013228178176166174394_"  style="overflow:visible;"/>
	</clipPath>
	
		<linearGradient id="SVGID_00000139281033656750677540000009970764426970193294_" gradientUnits="userSpaceOnUse" x1="-710.632" y1="581.3352" x2="-707.7877" y2="581.3352" gradientTransform="matrix(29.0334 0 0 -29.0334 20658.6465 17131.5723)">
		<stop  offset="0" style="stop-color:#BABABA"/>
		<stop  offset="0.2126" style="stop-color:#C1C1C1"/>
		<stop  offset="0.5189" style="stop-color:#D4D4D4"/>
		<stop  offset="0.8803" style="stop-color:#F3F3F3"/>
		<stop  offset="1" style="stop-color:#FFFFFF"/>
	</linearGradient>
	
		<rect x="26.6" y="161.5" style="clip-path:url(#SVGID_00000018931824427274888340000014143920085499013012_);fill:url(#SVGID_00000139281033656750677540000009970764426970193294_);" width="82.4" height="183.7"/>
</g>
<g>
	<defs>
		<path id="SVGID_00000060021431480872462300000003097057915324512393_" d="M167.2,175.8c0.2,2.1,0.5,4.7,0.7,7.2l2.3-2.3
			c0-2.6-0.6-7.3-0.6-7.3L167.2,175.8z"/>
	</defs>
	<clipPath id="SVGID_00000101075617905416997960000007133787965497496495_">
		<use xlink:href="#SVGID_00000060021431480872462300000003097057915324512393_"  style="overflow:visible;"/>
	</clipPath>
	
		<linearGradient id="SVGID_00000161599271556525356060000010028628895062305955_" gradientUnits="userSpaceOnUse" x1="-791.8286" y1="358.6685" x2="-788.9844" y2="358.6685" gradientTransform="matrix(0 -3.3872 -3.3872 0 1383.5699 -2499.0244)">
		<stop  offset="0" style="stop-color:#FFFFFF"/>
		<stop  offset="0.1197" style="stop-color:#F3F3F3"/>
		<stop  offset="0.4811" style="stop-color:#D4D4D4"/>
		<stop  offset="0.7874" style="stop-color:#C1C1C1"/>
		<stop  offset="1" style="stop-color:#BABABA"/>
	</linearGradient>
	
		<rect x="167.2" y="173.4" style="clip-path:url(#SVGID_00000101075617905416997960000007133787965497496495_);fill:url(#SVGID_00000161599271556525356060000010028628895062305955_);" width="3" height="9.6"/>
</g>
<g>
	<defs>
		<path id="SVGID_00000152944966862254288740000005166837639608244881_" d="M45.5,174.8L45.5,174.8
			C45.5,174.8,45.5,174.8,45.5,174.8 M47.8,172.5l-2.3,2.3c0.4-0.4,0.9-0.6,1.4-0.6c0.4,0,0.9,0.1,1.2,0.4l16.6,12.5
			c1.1,0.8,1.6,2.1,1.6,3.3l0,8.3l2.4-2.3l0-8.4c0-1.3-0.6-2.4-1.7-3.2l-16.6-12.5c-0.3-0.2-0.8-0.4-1.2-0.4
			C48.7,171.9,48.2,172.1,47.8,172.5"/>
	</defs>
	<clipPath id="SVGID_00000112624753848648635450000015656868478437939617_">
		<use xlink:href="#SVGID_00000152944966862254288740000005166837639608244881_"  style="overflow:visible;"/>
	</clipPath>
	
		<linearGradient id="SVGID_00000154412691829125022290000014461127271651234197_" gradientUnits="userSpaceOnUse" x1="-648.7698" y1="565.7139" x2="-645.9258" y2="565.7139" gradientTransform="matrix(8.2021 0 0 -8.2021 5366.7397 4825.312)">
		<stop  offset="0" style="stop-color:#BABABA"/>
		<stop  offset="0.2126" style="stop-color:#C1C1C1"/>
		<stop  offset="0.5189" style="stop-color:#D4D4D4"/>
		<stop  offset="0.8803" style="stop-color:#F3F3F3"/>
		<stop  offset="1" style="stop-color:#FFFFFF"/>
	</linearGradient>
	
		<rect x="45.5" y="171.9" style="clip-path:url(#SVGID_00000112624753848648635450000015656868478437939617_);fill:url(#SVGID_00000154412691829125022290000014461127271651234197_);" width="23.3" height="26.9"/>
</g>
<g>
	<defs>
		<path id="SVGID_00000093163452091105443410000008413342885394198159_" d="M173,252.5l-0.1,0.7c-2.5,23-13.8,41.3-30.7,54.9
			l-23.2-45.4c-1.7-3.4-4.4-5.6-4.7-5.9c7.2,2.3,15.8,7.8,29.6,7.8C157.3,264.6,168.6,256.7,173,252.5 M96.9,321.3
			c-28.2-13.6-48.5-36.4-51.9-68.1c-0.9-8.7-0.4-24.6,0.5-40.9l55.4,110.7C99.5,322.5,98.2,321.9,96.9,321.3 M66.7,170.4
			c11.9-1.6,26.4-3.1,42.3-3.1c25.6,0,48,3.6,60.6,6c0,0,0.4,4.8,0.6,7.3c-6.8,3.7-15.7,7.9-28.1,7.9c-0.9,0-1.9,0-2.9-0.1
			c-18.1-0.9-28.1-10.3-43.2-11.1c-0.8,0-1.7-0.1-2.5-0.1c-4.7,0-9.2,0.7-13.5,1.9L66.7,170.4z M40.6,159.1c-4.3,0.9-7,4.7-7.4,9.2
			c-1.7,18.8-5.8,67.2-3.8,86.6c4.7,43.9,36.1,72.1,73.9,86.1c1.8,0.7,3.7,1.3,5.6,2c0.4-0.2,0.9-0.3,1.3-0.5c0,0,0.1,0,0.1,0
			c4.7-1.6,9.4-3.4,13.8-5.4l-68.6-134l-6.7-5c-1-0.8-1.7-2-1.7-3.3V174c0-1.2,0.9-2.1,2.1-2.1c0.4,0,0.9,0.1,1.2,0.4l16.6,12.5
			c1.1,0.8,1.6,2.1,1.6,3.3l0.1,8.3c6.9-3.9,15.2-5.9,23.8-5.9c1,0,2,0,3,0.1c15.1,0.8,25.5,10.9,43.6,11.8c1,0.1,1.9,0.1,2.9,0.1
			c13.1,0,22.3-4.7,29.2-8.5c0.8,10.6,1.6,22.4,2,33l0.2,10.5c-8.2,6.7-21.7,12.6-29.4,12.6c-12.7,0-21.4-8.1-33.4-8.1
			c-5.9,0-11.2,1.8-15.8,4.8l42.5,83.5c5.3-3.1,10.4-6.6,15.1-10.4l0,0c19.3-15.6,33.1-37.2,36-65c2.1-19.4-2-67.8-3.7-86.6
			c-0.4-4.5-3.1-8.3-7.5-9.2c-11.8-2.4-37.8-7.4-68.3-7.4C78.5,151.7,52.5,156.7,40.6,159.1"/>
	</defs>
	<clipPath id="SVGID_00000090974884318729824040000008548201753861169596_">
		<use xlink:href="#SVGID_00000093163452091105443410000008413342885394198159_"  style="overflow:visible;"/>
	</clipPath>
	
		<linearGradient id="SVGID_00000053518793845049125390000017410029634330784161_" gradientUnits="userSpaceOnUse" x1="-725.3489" y1="594.8438" x2="-722.5046" y2="594.8438" gradientTransform="matrix(48.4289 48.4289 48.4289 -48.4289 6349.7104 64103.3203)">
		<stop  offset="0" style="stop-color:#FFFFFF"/>
		<stop  offset="0.5408" style="stop-color:#FFFFFF"/>
		<stop  offset="0.6474" style="stop-color:#FBFBFB"/>
		<stop  offset="0.7611" style="stop-color:#EEEEEE"/>
		<stop  offset="0.8781" style="stop-color:#D9D9D9"/>
		<stop  offset="0.9967" style="stop-color:#BBBBBB"/>
		<stop  offset="1" style="stop-color:#BABABA"/>
	</linearGradient>
	
		<polygon style="clip-path:url(#SVGID_00000090974884318729824040000008548201753861169596_);fill:url(#SVGID_00000053518793845049125390000017410029634330784161_);" points="
		109,70.1 286.2,247.4 109,424.6 -68.3,247.4 	"/>
</g>
<path class="st17" d="M184.7,168.3c-0.4-4.5-3.1-8.3-7.5-9.2c-11.8-2.4-37.8-7.4-68.3-7.4c-30.5,0-56.5,4.9-68.3,7.4
	c-4.3,0.9-7,4.7-7.4,9.2c-1.7,18.8-5.8,67.2-3.8,86.6c4.7,43.9,36.1,72.1,73.9,86.1c1.8,0.7,3.7,1.3,5.6,2c0.4-0.1,0.9-0.3,1.3-0.4
	c0,0,0.1,0,0.1,0c4.7-1.6,9.4-3.4,13.8-5.4l-68.6-134l-6.7-5c-1-0.8-1.7-1.9-1.7-3.3V174c0-1.2,0.9-2.1,2.1-2.1
	c0.4,0,0.9,0.1,1.2,0.4l16.6,12.5c1.1,0.8,1.6,2.1,1.6,3.3l0.1,8.3c6.9-3.9,15.3-5.9,23.8-5.9c1,0,2,0,3,0.1
	c15.1,0.8,25.5,10.9,43.6,11.8c1,0.1,1.9,0.1,2.9,0.1c13.1,0,22.3-4.7,29.2-8.5c0.8,10.6,1.6,22.4,2,33l0.2,10.5
	c-8.2,6.7-21.7,12.6-29.4,12.6c-12.7,0-21.4-8.1-33.4-8.1c-5.9,0-11.2,1.8-15.8,4.8l42.5,83.5c5.3-3.1,10.4-6.6,15.1-10.4
	c0,0,0,0,0,0c19.3-15.6,33.1-37.2,36.1-65C190.6,235.5,186.5,187.1,184.7,168.3z M100.9,323.1c-1.3-0.6-2.6-1.2-3.9-1.8
	c-28.2-13.6-48.5-36.4-51.9-68.1c-0.9-8.7-0.4-24.6,0.5-40.8L100.9,323.1z M142.1,188.7c-1,0-1.9,0-2.9-0.1
	c-18.1-0.9-28.1-10.3-43.2-11.1c-0.8-0.1-1.7-0.1-2.5-0.1c-4.7,0-9.2,0.7-13.5,2l-13.3-9c11.9-1.7,26.5-3.1,42.3-3.1
	c25.6,0,48,3.6,60.6,6c0,0,0.4,4.8,0.6,7.3C163.3,184.5,154.5,188.7,142.1,188.7z M142.3,308.1l-23.2-45.4c-1.7-3.4-4.4-5.6-4.7-5.9
	c7.2,2.3,15.8,7.8,29.6,7.8c13.3,0,24.6-7.8,29-12l-0.1,0.7C170.5,276.2,159.1,294.5,142.3,308.1z"/>
<g>
	<path class="st18" d="M264.2,262.7c0,6.3-2.1,11.1-6.4,14.4c-3.8,2.9-9,4.4-15.6,4.4c-4.6,0-8.9-0.7-13.1-2.2
		c-2.7-1-4.4-1.8-5.1-2.4l3.8-7.4c4.7,2.3,9.3,3.4,13.8,3.4c3.1,0,5.6-0.7,7.7-2c2.5-1.6,3.7-3.8,3.7-6.7c0-2.3-0.9-4.1-2.8-5.6
		c-1.3-1-4.5-2.4-9.6-4.1c-5.1-1.7-8.7-3.5-10.9-5.3c-3.4-2.9-5.1-6.8-5.1-11.9c0-5.9,2.1-10.4,6.2-13.4c3.6-2.8,8.5-4.2,14.6-4.2
		c6.7,0,12.3,1.2,16.8,3.5l-2.5,7.6c-4.5-1.6-9-2.3-13.6-2.3c-2.9,0-5.2,0.6-7.1,1.9c-2.2,1.5-3.2,3.6-3.2,6.3
		c0,2.4,1.2,4.3,3.5,5.7c1.6,1,5.1,2.3,10.4,4c4.5,1.4,7.8,3.2,10,5.2C262.8,254.2,264.2,257.9,264.2,262.7"/>
	<path class="st18" d="M298.5,278.5c-4.9,2.1-9.2,3.2-13.1,3.2c-6.6,0-10.4-2.7-11.4-8.1c-0.3-1.9-0.5-4.4-0.5-7.7v-20.7h-7.2v-6
		l7.2-1.3l1.5-12l9.4-1.6v13.6h12.9l-1.1,7.3h-11.8v22.2c0,2.2,0.2,3.7,0.7,4.5c0.7,1.3,2.1,1.9,4.1,1.9c1.8,0,4.2-0.5,7.1-1.4
		L298.5,278.5z"/>
	<path class="st18" d="M335.8,280.7h-9.1l-0.8-4.9c-3.7,3.8-7.8,5.8-12.4,5.8c-3.9,0-6.9-1.3-9-3.8c-1.9-2.3-2.9-5.5-2.9-9.5
		c0-5.8,2.7-9.7,8.2-11.7c2.5-0.9,7.7-1.6,15.6-2v-2.3c0-2.8-0.5-4.7-1.4-5.7c-1-1-2.9-1.5-5.7-1.5c-2.8,0-6.5,0.6-11.1,1.8
		l-1.9-6.2c5.6-2.5,11.2-3.8,16.7-3.8c6.1,0,10.2,1.7,12.1,5c1.2,2.1,1.8,6.1,1.8,12V280.7z M325.4,270.3V260
		c-4.1,0.2-7,0.7-8.6,1.3c-3.1,1.2-4.7,3.3-4.7,6.4c0,3.9,1.9,5.9,5.8,5.9C320,273.6,322.5,272.5,325.4,270.3"/>
	<path class="st18" d="M382.6,280.7h-10.9v-25.9c0-2.8-0.2-4.8-0.7-5.9c-0.7-1.9-2.3-2.9-4.7-2.9c-2.6,0-5.9,1.3-9.9,3.9v30.9h-10.9
		v-42.9h9.4l0.8,5.7c5.6-4.4,10.5-6.6,14.8-6.6c5.2,0,8.7,1.8,10.5,5.3c1.1,2.2,1.6,5.7,1.6,10.5V280.7z"/>
	<path class="st18" d="M431,259c0,6.1-1.2,11.1-3.7,15.2c-2.9,4.9-7.3,7.4-13,7.4c-2.9,0-5.7-0.9-8.4-2.7c-1.6-1.1-2.8-2.2-3.6-3.3
		l-0.7,5.1h-9.5v-61.8l10.9-1.6v24.9c4.9-3.5,9.1-5.2,12.8-5.2c5.5,0,9.5,2.4,12.1,7.3C430,248,431,253,431,259 M419.7,259.6
		c0-9.2-2.7-13.8-8.1-13.8c-2.6,0-5.5,1.1-8.5,3.2v19.1c2.3,2.9,5.2,4.4,8.7,4.4C417,272.6,419.7,268.2,419.7,259.6"/>
	<path class="st18" d="M450.5,224.3c0,1.7-0.6,3.1-1.8,4.4c-1.2,1.2-2.6,1.9-4.3,1.9c-1.7,0-3.2-0.6-4.4-1.8
		c-1.2-1.2-1.8-2.7-1.8-4.4c0-1.7,0.6-3.1,1.8-4.4c1.2-1.2,2.7-1.9,4.4-1.9c1.7,0,3.2,0.6,4.4,1.8
		C449.9,221.1,450.5,222.5,450.5,224.3 M449.8,280.7h-10.9v-42.9h10.9V280.7z"/>
	<path class="st18" d="M492.5,276.2c-1.1,1-2.8,2-5,3c-3.6,1.6-7.2,2.4-10.7,2.4c-6.5,0-11.4-2.1-14.7-6.2c-3-3.8-4.5-9-4.5-15.8
		c0-6.7,1.6-12.1,4.7-16.1c3.4-4.4,8.4-6.6,15-6.6c3,0,6.2,0.5,9.5,1.4c2.5,0.7,4.1,1.4,5,2l-2.5,6.3c-3.5-1-6.7-1.5-9.7-1.5
		c-7,0-10.4,4.7-10.4,14.1c0,9.1,3.4,13.6,10.4,13.6c2.6,0,5.9-0.8,10.1-2.4L492.5,276.2z"/>
	<path class="st18" d="M561.5,264.4c0,7.2-3.2,12-9.7,14.5c-3.1,1.2-8.8,1.8-17.3,1.8h-14.8v-60.1h16.7c7.6,0,13,0.6,16,1.9
		c5.2,2.2,7.8,6.5,7.8,13.1c0,8.1-4.2,12.9-12.5,14.2C556.8,250.7,561.5,255.6,561.5,264.4 M549.1,236.8c0-3.3-1-5.6-3.1-6.8
		c-1.6-1-4.7-1.5-9.4-1.5h-5.8v17.7h4.6c4.5,0,7.7-0.5,9.6-1.4C547.7,243.4,549.1,240.8,549.1,236.8 M549.8,263
		c0-4.1-1.6-6.8-4.8-8.2c-1.6-0.7-4.4-1-8.5-1h-5.8v18.9h4.1c5.2,0,8.6-0.4,10.3-1.3C548.3,270,549.8,267.2,549.8,263"/>
	<path class="st18" d="M601.7,280.7h-9.1l-0.8-4.9c-3.7,3.8-7.8,5.8-12.4,5.8c-3.9,0-6.9-1.3-9-3.8c-1.9-2.3-2.9-5.5-2.9-9.5
		c0-5.8,2.7-9.7,8.2-11.7c2.5-0.9,7.7-1.6,15.6-2v-2.3c0-2.8-0.5-4.7-1.4-5.7c-1-1-2.9-1.5-5.7-1.5c-2.8,0-6.5,0.6-11.1,1.8
		l-1.9-6.2c5.7-2.5,11.2-3.8,16.7-3.8c6.1,0,10.2,1.7,12.1,5c1.2,2.1,1.8,6.1,1.8,12V280.7z M591.3,270.3V260
		c-4.1,0.2-7,0.7-8.6,1.3c-3.1,1.2-4.7,3.3-4.7,6.4c0,3.9,1.9,5.9,5.8,5.9C585.9,273.6,588.4,272.5,591.3,270.3"/>
	<path class="st18" d="M648.3,280.7h-10.9v-25.9c0-2.8-0.2-4.8-0.7-5.9c-0.7-1.9-2.3-2.9-4.7-2.9c-2.6,0-5.9,1.3-9.9,3.9v30.9h-10.9
		v-42.9h9.4l0.8,5.7c5.6-4.4,10.5-6.6,14.8-6.6c5.2,0,8.7,1.8,10.5,5.3c1.1,2.2,1.6,5.7,1.6,10.5V280.7z"/>
	<polygon class="st18" points="696.8,280.7 684.3,280.7 668.7,260.5 668.7,280.7 657.8,280.7 657.8,218.9 668.7,217.2 668.7,256.9 
		684.1,237.8 695.7,237.8 678.8,258.2 	"/>
</g>
</svg>
